<svg xmlns="http://www.w3.org/2000/svg" viewBox="-34 -12.5 128 112.5" role="img" aria-label="brick-1x3 l-blue (isometric mirror)">
<title>brick-1x3 l-blue (isometric mirror)</title>
<polygon points="60,60 90,45 90,81 60,96" fill="#00316D" stroke="#001939" stroke-width="0.6" stroke-linejoin="round"/>
<polygon points="60,60 -30,15 -30,51 60,96" fill="#004396" stroke="#001939" stroke-width="0.6" stroke-linejoin="round"/>
<polygon points="0,0 -30,15 60,60 90,45" fill="#0055BF" stroke="#001939" stroke-width="0.6" stroke-linejoin="round"/>
<ellipse cx="0" cy="15" rx="9" ry="4.5" fill="#004396" stroke="#001939" stroke-width="0.6"/>
<rect x="-9" y="11" width="18" height="4" fill="#004396"/>
<path d="M -9 11 L -9 15 M 9 11 L 9 15" fill="none" stroke="#001939" stroke-width="0.6"/>
<ellipse cx="0" cy="11" rx="9" ry="4.5" fill="#0070FC" stroke="#001939" stroke-width="0.6"/>
<ellipse cx="30" cy="30" rx="9" ry="4.5" fill="#004396" stroke="#001939" stroke-width="0.6"/>
<rect x="21" y="26" width="18" height="4" fill="#004396"/>
<path d="M 21 26 L 21 30 M 39 26 L 39 30" fill="none" stroke="#001939" stroke-width="0.6"/>
<ellipse cx="30" cy="26" rx="9" ry="4.5" fill="#0070FC" stroke="#001939" stroke-width="0.6"/>
<ellipse cx="60" cy="45" rx="9" ry="4.5" fill="#004396" stroke="#001939" stroke-width="0.6"/>
<rect x="51" y="41" width="18" height="4" fill="#004396"/>
<path d="M 51 41 L 51 45 M 69 41 L 69 45" fill="none" stroke="#001939" stroke-width="0.6"/>
<ellipse cx="60" cy="41" rx="9" ry="4.5" fill="#0070FC" stroke="#001939" stroke-width="0.6"/>
</svg>
