<svg xmlns="http://www.w3.org/2000/svg" viewBox="-124 -12.5 158 127.5" role="img" aria-label="brick-1x4 l-grey (isometric)">
<title>brick-1x4 l-grey (isometric)</title>
<polygon points="-90,75 -120,60 -120,96 -90,111" fill="#8B9196" stroke="#2F3234" stroke-width="0.6" stroke-linejoin="round"/>
<polygon points="-90,75 30,15 30,51 -90,111" fill="#767C82" stroke="#2F3234" stroke-width="0.6" stroke-linejoin="round"/>
<polygon points="0,0 30,15 -90,75 -120,60" fill="#A0A5A9" stroke="#2F3234" stroke-width="0.6" stroke-linejoin="round"/>
<ellipse cx="0" cy="15" rx="9" ry="4.5" fill="#8B9196" stroke="#2F3234" stroke-width="0.6"/>
<rect x="-9" y="11" width="18" height="4" fill="#8B9196"/>
<path d="M -9 11 L -9 15 M 9 11 L 9 15" fill="none" stroke="#2F3234" stroke-width="0.6"/>
<ellipse cx="0" cy="11" rx="9" ry="4.5" fill="#C0C3C6" stroke="#2F3234" stroke-width="0.6"/>
<ellipse cx="-30" cy="30" rx="9" ry="4.5" fill="#8B9196" stroke="#2F3234" stroke-width="0.6"/>
<rect x="-39" y="26" width="18" height="4" fill="#8B9196"/>
<path d="M -39 26 L -39 30 M -21 26 L -21 30" fill="none" stroke="#2F3234" stroke-width="0.6"/>
<ellipse cx="-30" cy="26" rx="9" ry="4.5" fill="#C0C3C6" stroke="#2F3234" stroke-width="0.6"/>
<ellipse cx="-60" cy="45" rx="9" ry="4.5" fill="#8B9196" stroke="#2F3234" stroke-width="0.6"/>
<rect x="-69" y="41" width="18" height="4" fill="#8B9196"/>
<path d="M -69 41 L -69 45 M -51 41 L -51 45" fill="none" stroke="#2F3234" stroke-width="0.6"/>
<ellipse cx="-60" cy="41" rx="9" ry="4.5" fill="#C0C3C6" stroke="#2F3234" stroke-width="0.6"/>
<ellipse cx="-90" cy="60" rx="9" ry="4.5" fill="#8B9196" stroke="#2F3234" stroke-width="0.6"/>
<rect x="-99" y="56" width="18" height="4" fill="#8B9196"/>
<path d="M -99 56 L -99 60 M -81 56 L -81 60" fill="none" stroke="#2F3234" stroke-width="0.6"/>
<ellipse cx="-90" cy="56" rx="9" ry="4.5" fill="#C0C3C6" stroke="#2F3234" stroke-width="0.6"/>
</svg>
