<svg xmlns="http://www.w3.org/2000/svg" viewBox="-64 -12.5 308 202.5" role="img" aria-label="brick-2x8 l-red (isometric mirror)">
<title>brick-2x8 l-red (isometric mirror)</title>
<polygon points="180,150 240,120 240,156 180,186" fill="#7B1006" stroke="#3C0803" stroke-width="0.6" stroke-linejoin="round"/>
<polygon points="180,150 -60,30 -60,66 180,186" fill="#A21507" stroke="#3C0803" stroke-width="0.6" stroke-linejoin="round"/>
<polygon points="0,0 -60,30 180,150 240,120" fill="#C91A09" stroke="#3C0803" stroke-width="0.6" stroke-linejoin="round"/>
<ellipse cx="0" cy="15" rx="9" ry="4.5" fill="#A21507" stroke="#3C0803" stroke-width="0.6"/>
<rect x="-9" y="11" width="18" height="4" fill="#A21507"/>
<path d="M -9 11 L -9 15 M 9 11 L 9 15" fill="none" stroke="#3C0803" stroke-width="0.6"/>
<ellipse cx="0" cy="11" rx="9" ry="4.5" fill="#F52E1A" stroke="#3C0803" stroke-width="0.6"/>
<ellipse cx="30" cy="30" rx="9" ry="4.5" fill="#A21507" stroke="#3C0803" stroke-width="0.6"/>
<rect x="21" y="26" width="18" height="4" fill="#A21507"/>
<path d="M 21 26 L 21 30 M 39 26 L 39 30" fill="none" stroke="#3C0803" stroke-width="0.6"/>
<ellipse cx="30" cy="26" rx="9" ry="4.5" fill="#F52E1A" stroke="#3C0803" stroke-width="0.6"/>
<ellipse cx="60" cy="45" rx="9" ry="4.5" fill="#A21507" stroke="#3C0803" stroke-width="0.6"/>
<rect x="51" y="41" width="18" height="4" fill="#A21507"/>
<path d="M 51 41 L 51 45 M 69 41 L 69 45" fill="none" stroke="#3C0803" stroke-width="0.6"/>
<ellipse cx="60" cy="41" rx="9" ry="4.5" fill="#F52E1A" stroke="#3C0803" stroke-width="0.6"/>
<ellipse cx="90" cy="60" rx="9" ry="4.5" fill="#A21507" stroke="#3C0803" stroke-width="0.6"/>
<rect x="81" y="56" width="18" height="4" fill="#A21507"/>
<path d="M 81 56 L 81 60 M 99 56 L 99 60" fill="none" stroke="#3C0803" stroke-width="0.6"/>
<ellipse cx="90" cy="56" rx="9" ry="4.5" fill="#F52E1A" stroke="#3C0803" stroke-width="0.6"/>
<ellipse cx="120" cy="75" rx="9" ry="4.5" fill="#A21507" stroke="#3C0803" stroke-width="0.6"/>
<rect x="111" y="71" width="18" height="4" fill="#A21507"/>
<path d="M 111 71 L 111 75 M 129 71 L 129 75" fill="none" stroke="#3C0803" stroke-width="0.6"/>
<ellipse cx="120" cy="71" rx="9" ry="4.5" fill="#F52E1A" stroke="#3C0803" stroke-width="0.6"/>
<ellipse cx="150" cy="90" rx="9" ry="4.5" fill="#A21507" stroke="#3C0803" stroke-width="0.6"/>
<rect x="141" y="86" width="18" height="4" fill="#A21507"/>
<path d="M 141 86 L 141 90 M 159 86 L 159 90" fill="none" stroke="#3C0803" stroke-width="0.6"/>
<ellipse cx="150" cy="86" rx="9" ry="4.5" fill="#F52E1A" stroke="#3C0803" stroke-width="0.6"/>
<ellipse cx="180" cy="105" rx="9" ry="4.5" fill="#A21507" stroke="#3C0803" stroke-width="0.6"/>
<rect x="171" y="101" width="18" height="4" fill="#A21507"/>
<path d="M 171 101 L 171 105 M 189 101 L 189 105" fill="none" stroke="#3C0803" stroke-width="0.6"/>
<ellipse cx="180" cy="101" rx="9" ry="4.5" fill="#F52E1A" stroke="#3C0803" stroke-width="0.6"/>
<ellipse cx="210" cy="120" rx="9" ry="4.5" fill="#A21507" stroke="#3C0803" stroke-width="0.6"/>
<rect x="201" y="116" width="18" height="4" fill="#A21507"/>
<path d="M 201 116 L 201 120 M 219 116 L 219 120" fill="none" stroke="#3C0803" stroke-width="0.6"/>
<ellipse cx="210" cy="116" rx="9" ry="4.5" fill="#F52E1A" stroke="#3C0803" stroke-width="0.6"/>
<ellipse cx="-30" cy="30" rx="9" ry="4.5" fill="#A21507" stroke="#3C0803" stroke-width="0.6"/>
<rect x="-39" y="26" width="18" height="4" fill="#A21507"/>
<path d="M -39 26 L -39 30 M -21 26 L -21 30" fill="none" stroke="#3C0803" stroke-width="0.6"/>
<ellipse cx="-30" cy="26" rx="9" ry="4.5" fill="#F52E1A" stroke="#3C0803" stroke-width="0.6"/>
<ellipse cx="0" cy="45" rx="9" ry="4.5" fill="#A21507" stroke="#3C0803" stroke-width="0.6"/>
<rect x="-9" y="41" width="18" height="4" fill="#A21507"/>
<path d="M -9 41 L -9 45 M 9 41 L 9 45" fill="none" stroke="#3C0803" stroke-width="0.6"/>
<ellipse cx="0" cy="41" rx="9" ry="4.5" fill="#F52E1A" stroke="#3C0803" stroke-width="0.6"/>
<ellipse cx="30" cy="60" rx="9" ry="4.5" fill="#A21507" stroke="#3C0803" stroke-width="0.6"/>
<rect x="21" y="56" width="18" height="4" fill="#A21507"/>
<path d="M 21 56 L 21 60 M 39 56 L 39 60" fill="none" stroke="#3C0803" stroke-width="0.6"/>
<ellipse cx="30" cy="56" rx="9" ry="4.5" fill="#F52E1A" stroke="#3C0803" stroke-width="0.6"/>
<ellipse cx="60" cy="75" rx="9" ry="4.5" fill="#A21507" stroke="#3C0803" stroke-width="0.6"/>
<rect x="51" y="71" width="18" height="4" fill="#A21507"/>
<path d="M 51 71 L 51 75 M 69 71 L 69 75" fill="none" stroke="#3C0803" stroke-width="0.6"/>
<ellipse cx="60" cy="71" rx="9" ry="4.5" fill="#F52E1A" stroke="#3C0803" stroke-width="0.6"/>
<ellipse cx="90" cy="90" rx="9" ry="4.5" fill="#A21507" stroke="#3C0803" stroke-width="0.6"/>
<rect x="81" y="86" width="18" height="4" fill="#A21507"/>
<path d="M 81 86 L 81 90 M 99 86 L 99 90" fill="none" stroke="#3C0803" stroke-width="0.6"/>
<ellipse cx="90" cy="86" rx="9" ry="4.5" fill="#F52E1A" stroke="#3C0803" stroke-width="0.6"/>
<ellipse cx="120" cy="105" rx="9" ry="4.5" fill="#A21507" stroke="#3C0803" stroke-width="0.6"/>
<rect x="111" y="101" width="18" height="4" fill="#A21507"/>
<path d="M 111 101 L 111 105 M 129 101 L 129 105" fill="none" stroke="#3C0803" stroke-width="0.6"/>
<ellipse cx="120" cy="101" rx="9" ry="4.5" fill="#F52E1A" stroke="#3C0803" stroke-width="0.6"/>
<ellipse cx="150" cy="120" rx="9" ry="4.5" fill="#A21507" stroke="#3C0803" stroke-width="0.6"/>
<rect x="141" y="116" width="18" height="4" fill="#A21507"/>
<path d="M 141 116 L 141 120 M 159 116 L 159 120" fill="none" stroke="#3C0803" stroke-width="0.6"/>
<ellipse cx="150" cy="116" rx="9" ry="4.5" fill="#F52E1A" stroke="#3C0803" stroke-width="0.6"/>
<ellipse cx="180" cy="135" rx="9" ry="4.5" fill="#A21507" stroke="#3C0803" stroke-width="0.6"/>
<rect x="171" y="131" width="18" height="4" fill="#A21507"/>
<path d="M 171 131 L 171 135 M 189 131 L 189 135" fill="none" stroke="#3C0803" stroke-width="0.6"/>
<ellipse cx="180" cy="131" rx="9" ry="4.5" fill="#F52E1A" stroke="#3C0803" stroke-width="0.6"/>
</svg>
