<svg xmlns="http://www.w3.org/2000/svg" viewBox="-302.549 -1.396 379.723 215.541" role="img" aria-label="broken-plate-2x10 l-green (broken)">
<title>broken-plate-2x10 l-green (broken)</title>
<defs><clipPath id="halfA"><path d="M -150 75 L -144.559 85.547 L -129.727 77.31 L -127.416 94.118 L -112.584 85.882 L -110.273 102.69 L -95.441 94.453 L -90 105 L -94 108 L -86 111 L -94 114 L -90 117 L 60 42 L 60 30 L 0 0 Z"/></clipPath><clipPath id="halfB"><path d="M -150 75 L -144.559 85.547 L -129.727 77.31 L -127.416 94.118 L -112.584 85.882 L -110.273 102.69 L -95.441 94.453 L -90 105 L -94 108 L -86 111 L -94 114 L -90 117 L -240 192 L -300 162 L -300 150 Z"/></clipPath></defs>
<g transform="translate(4.472 -2.236) rotate(7 -120 96)">
<g clip-path="url(#halfA)">
<polygon points="-240,180 -300,150 -300,162 -240,192" fill="#1A5830" stroke="#0B2414" stroke-width="0.6" stroke-linejoin="round"/>
<polygon points="-240,180 60,30 60,42 -240,192" fill="#11391F" stroke="#0B2414" stroke-width="0.6" stroke-linejoin="round"/>
<polygon points="0,0 60,30 -240,180 -300,150" fill="#237841" stroke="#0B2414" stroke-width="0.6" stroke-linejoin="round"/>
<ellipse cx="0" cy="15" rx="9" ry="4.5" fill="#1A5830" stroke="#0B2414" stroke-width="0.6"/>
<rect x="-9" y="11" width="18" height="4" fill="#1A5830"/>
<path d="M -9 11 L -9 15 M 9 11 L 9 15" fill="none" stroke="#0B2414" stroke-width="0.6"/>
<ellipse cx="0" cy="11" rx="9" ry="4.5" fill="#31A75B" stroke="#0B2414" stroke-width="0.6"/>
<ellipse cx="-30" cy="30" rx="9" ry="4.5" fill="#1A5830" stroke="#0B2414" stroke-width="0.6"/>
<rect x="-39" y="26" width="18" height="4" fill="#1A5830"/>
<path d="M -39 26 L -39 30 M -21 26 L -21 30" fill="none" stroke="#0B2414" stroke-width="0.6"/>
<ellipse cx="-30" cy="26" rx="9" ry="4.5" fill="#31A75B" stroke="#0B2414" stroke-width="0.6"/>
<ellipse cx="-60" cy="45" rx="9" ry="4.5" fill="#1A5830" stroke="#0B2414" stroke-width="0.6"/>
<rect x="-69" y="41" width="18" height="4" fill="#1A5830"/>
<path d="M -69 41 L -69 45 M -51 41 L -51 45" fill="none" stroke="#0B2414" stroke-width="0.6"/>
<ellipse cx="-60" cy="41" rx="9" ry="4.5" fill="#31A75B" stroke="#0B2414" stroke-width="0.6"/>
<ellipse cx="-90" cy="60" rx="9" ry="4.5" fill="#1A5830" stroke="#0B2414" stroke-width="0.6"/>
<rect x="-99" y="56" width="18" height="4" fill="#1A5830"/>
<path d="M -99 56 L -99 60 M -81 56 L -81 60" fill="none" stroke="#0B2414" stroke-width="0.6"/>
<ellipse cx="-90" cy="56" rx="9" ry="4.5" fill="#31A75B" stroke="#0B2414" stroke-width="0.6"/>
<ellipse cx="-120" cy="75" rx="9" ry="4.5" fill="#1A5830" stroke="#0B2414" stroke-width="0.6"/>
<rect x="-129" y="71" width="18" height="4" fill="#1A5830"/>
<path d="M -129 71 L -129 75 M -111 71 L -111 75" fill="none" stroke="#0B2414" stroke-width="0.6"/>
<ellipse cx="-120" cy="71" rx="9" ry="4.5" fill="#31A75B" stroke="#0B2414" stroke-width="0.6"/>
<ellipse cx="-150" cy="90" rx="9" ry="4.5" fill="#1A5830" stroke="#0B2414" stroke-width="0.6"/>
<rect x="-159" y="86" width="18" height="4" fill="#1A5830"/>
<path d="M -159 86 L -159 90 M -141 86 L -141 90" fill="none" stroke="#0B2414" stroke-width="0.6"/>
<ellipse cx="-150" cy="86" rx="9" ry="4.5" fill="#31A75B" stroke="#0B2414" stroke-width="0.6"/>
<ellipse cx="-180" cy="105" rx="9" ry="4.5" fill="#1A5830" stroke="#0B2414" stroke-width="0.6"/>
<rect x="-189" y="101" width="18" height="4" fill="#1A5830"/>
<path d="M -189 101 L -189 105 M -171 101 L -171 105" fill="none" stroke="#0B2414" stroke-width="0.6"/>
<ellipse cx="-180" cy="101" rx="9" ry="4.5" fill="#31A75B" stroke="#0B2414" stroke-width="0.6"/>
<ellipse cx="-210" cy="120" rx="9" ry="4.5" fill="#1A5830" stroke="#0B2414" stroke-width="0.6"/>
<rect x="-219" y="116" width="18" height="4" fill="#1A5830"/>
<path d="M -219 116 L -219 120 M -201 116 L -201 120" fill="none" stroke="#0B2414" stroke-width="0.6"/>
<ellipse cx="-210" cy="116" rx="9" ry="4.5" fill="#31A75B" stroke="#0B2414" stroke-width="0.6"/>
<ellipse cx="-240" cy="135" rx="9" ry="4.5" fill="#1A5830" stroke="#0B2414" stroke-width="0.6"/>
<rect x="-249" y="131" width="18" height="4" fill="#1A5830"/>
<path d="M -249 131 L -249 135 M -231 131 L -231 135" fill="none" stroke="#0B2414" stroke-width="0.6"/>
<ellipse cx="-240" cy="131" rx="9" ry="4.5" fill="#31A75B" stroke="#0B2414" stroke-width="0.6"/>
<ellipse cx="-270" cy="150" rx="9" ry="4.5" fill="#1A5830" stroke="#0B2414" stroke-width="0.6"/>
<rect x="-279" y="146" width="18" height="4" fill="#1A5830"/>
<path d="M -279 146 L -279 150 M -261 146 L -261 150" fill="none" stroke="#0B2414" stroke-width="0.6"/>
<ellipse cx="-270" cy="146" rx="9" ry="4.5" fill="#31A75B" stroke="#0B2414" stroke-width="0.6"/>
<ellipse cx="30" cy="30" rx="9" ry="4.5" fill="#1A5830" stroke="#0B2414" stroke-width="0.6"/>
<rect x="21" y="26" width="18" height="4" fill="#1A5830"/>
<path d="M 21 26 L 21 30 M 39 26 L 39 30" fill="none" stroke="#0B2414" stroke-width="0.6"/>
<ellipse cx="30" cy="26" rx="9" ry="4.5" fill="#31A75B" stroke="#0B2414" stroke-width="0.6"/>
<ellipse cx="0" cy="45" rx="9" ry="4.5" fill="#1A5830" stroke="#0B2414" stroke-width="0.6"/>
<rect x="-9" y="41" width="18" height="4" fill="#1A5830"/>
<path d="M -9 41 L -9 45 M 9 41 L 9 45" fill="none" stroke="#0B2414" stroke-width="0.6"/>
<ellipse cx="0" cy="41" rx="9" ry="4.5" fill="#31A75B" stroke="#0B2414" stroke-width="0.6"/>
<ellipse cx="-30" cy="60" rx="9" ry="4.5" fill="#1A5830" stroke="#0B2414" stroke-width="0.6"/>
<rect x="-39" y="56" width="18" height="4" fill="#1A5830"/>
<path d="M -39 56 L -39 60 M -21 56 L -21 60" fill="none" stroke="#0B2414" stroke-width="0.6"/>
<ellipse cx="-30" cy="56" rx="9" ry="4.5" fill="#31A75B" stroke="#0B2414" stroke-width="0.6"/>
<ellipse cx="-60" cy="75" rx="9" ry="4.5" fill="#1A5830" stroke="#0B2414" stroke-width="0.6"/>
<rect x="-69" y="71" width="18" height="4" fill="#1A5830"/>
<path d="M -69 71 L -69 75 M -51 71 L -51 75" fill="none" stroke="#0B2414" stroke-width="0.6"/>
<ellipse cx="-60" cy="71" rx="9" ry="4.5" fill="#31A75B" stroke="#0B2414" stroke-width="0.6"/>
<ellipse cx="-90" cy="90" rx="9" ry="4.5" fill="#1A5830" stroke="#0B2414" stroke-width="0.6"/>
<rect x="-99" y="86" width="18" height="4" fill="#1A5830"/>
<path d="M -99 86 L -99 90 M -81 86 L -81 90" fill="none" stroke="#0B2414" stroke-width="0.6"/>
<ellipse cx="-90" cy="86" rx="9" ry="4.5" fill="#31A75B" stroke="#0B2414" stroke-width="0.6"/>
<ellipse cx="-120" cy="105" rx="9" ry="4.5" fill="#1A5830" stroke="#0B2414" stroke-width="0.6"/>
<rect x="-129" y="101" width="18" height="4" fill="#1A5830"/>
<path d="M -129 101 L -129 105 M -111 101 L -111 105" fill="none" stroke="#0B2414" stroke-width="0.6"/>
<ellipse cx="-120" cy="101" rx="9" ry="4.5" fill="#31A75B" stroke="#0B2414" stroke-width="0.6"/>
<ellipse cx="-150" cy="120" rx="9" ry="4.5" fill="#1A5830" stroke="#0B2414" stroke-width="0.6"/>
<rect x="-159" y="116" width="18" height="4" fill="#1A5830"/>
<path d="M -159 116 L -159 120 M -141 116 L -141 120" fill="none" stroke="#0B2414" stroke-width="0.6"/>
<ellipse cx="-150" cy="116" rx="9" ry="4.5" fill="#31A75B" stroke="#0B2414" stroke-width="0.6"/>
<ellipse cx="-180" cy="135" rx="9" ry="4.5" fill="#1A5830" stroke="#0B2414" stroke-width="0.6"/>
<rect x="-189" y="131" width="18" height="4" fill="#1A5830"/>
<path d="M -189 131 L -189 135 M -171 131 L -171 135" fill="none" stroke="#0B2414" stroke-width="0.6"/>
<ellipse cx="-180" cy="131" rx="9" ry="4.5" fill="#31A75B" stroke="#0B2414" stroke-width="0.6"/>
<ellipse cx="-210" cy="150" rx="9" ry="4.5" fill="#1A5830" stroke="#0B2414" stroke-width="0.6"/>
<rect x="-219" y="146" width="18" height="4" fill="#1A5830"/>
<path d="M -219 146 L -219 150 M -201 146 L -201 150" fill="none" stroke="#0B2414" stroke-width="0.6"/>
<ellipse cx="-210" cy="146" rx="9" ry="4.5" fill="#31A75B" stroke="#0B2414" stroke-width="0.6"/>
<ellipse cx="-240" cy="165" rx="9" ry="4.5" fill="#1A5830" stroke="#0B2414" stroke-width="0.6"/>
<rect x="-249" y="161" width="18" height="4" fill="#1A5830"/>
<path d="M -249 161 L -249 165 M -231 161 L -231 165" fill="none" stroke="#0B2414" stroke-width="0.6"/>
<ellipse cx="-240" cy="161" rx="9" ry="4.5" fill="#31A75B" stroke="#0B2414" stroke-width="0.6"/>
</g>
<path d="M -150 75 L -144.559 85.547 L -129.727 77.31 L -127.416 94.118 L -112.584 85.882 L -110.273 102.69 L -95.441 94.453 L -90 105 L -94 108 L -86 111 L -94 114 L -90 117" fill="none" stroke="#0B2414" stroke-width="1.4" stroke-linejoin="round" stroke-linecap="round"/>
</g>
<g transform="translate(-4.472 2.236) rotate(-7 -120 96)">
<g clip-path="url(#halfB)">
<polygon points="-240,180 -300,150 -300,162 -240,192" fill="#1A5830" stroke="#0B2414" stroke-width="0.6" stroke-linejoin="round"/>
<polygon points="-240,180 60,30 60,42 -240,192" fill="#11391F" stroke="#0B2414" stroke-width="0.6" stroke-linejoin="round"/>
<polygon points="0,0 60,30 -240,180 -300,150" fill="#237841" stroke="#0B2414" stroke-width="0.6" stroke-linejoin="round"/>
<ellipse cx="0" cy="15" rx="9" ry="4.5" fill="#1A5830" stroke="#0B2414" stroke-width="0.6"/>
<rect x="-9" y="11" width="18" height="4" fill="#1A5830"/>
<path d="M -9 11 L -9 15 M 9 11 L 9 15" fill="none" stroke="#0B2414" stroke-width="0.6"/>
<ellipse cx="0" cy="11" rx="9" ry="4.5" fill="#31A75B" stroke="#0B2414" stroke-width="0.6"/>
<ellipse cx="-30" cy="30" rx="9" ry="4.5" fill="#1A5830" stroke="#0B2414" stroke-width="0.6"/>
<rect x="-39" y="26" width="18" height="4" fill="#1A5830"/>
<path d="M -39 26 L -39 30 M -21 26 L -21 30" fill="none" stroke="#0B2414" stroke-width="0.6"/>
<ellipse cx="-30" cy="26" rx="9" ry="4.5" fill="#31A75B" stroke="#0B2414" stroke-width="0.6"/>
<ellipse cx="-60" cy="45" rx="9" ry="4.5" fill="#1A5830" stroke="#0B2414" stroke-width="0.6"/>
<rect x="-69" y="41" width="18" height="4" fill="#1A5830"/>
<path d="M -69 41 L -69 45 M -51 41 L -51 45" fill="none" stroke="#0B2414" stroke-width="0.6"/>
<ellipse cx="-60" cy="41" rx="9" ry="4.5" fill="#31A75B" stroke="#0B2414" stroke-width="0.6"/>
<ellipse cx="-90" cy="60" rx="9" ry="4.5" fill="#1A5830" stroke="#0B2414" stroke-width="0.6"/>
<rect x="-99" y="56" width="18" height="4" fill="#1A5830"/>
<path d="M -99 56 L -99 60 M -81 56 L -81 60" fill="none" stroke="#0B2414" stroke-width="0.6"/>
<ellipse cx="-90" cy="56" rx="9" ry="4.5" fill="#31A75B" stroke="#0B2414" stroke-width="0.6"/>
<ellipse cx="-120" cy="75" rx="9" ry="4.5" fill="#1A5830" stroke="#0B2414" stroke-width="0.6"/>
<rect x="-129" y="71" width="18" height="4" fill="#1A5830"/>
<path d="M -129 71 L -129 75 M -111 71 L -111 75" fill="none" stroke="#0B2414" stroke-width="0.6"/>
<ellipse cx="-120" cy="71" rx="9" ry="4.5" fill="#31A75B" stroke="#0B2414" stroke-width="0.6"/>
<ellipse cx="-150" cy="90" rx="9" ry="4.5" fill="#1A5830" stroke="#0B2414" stroke-width="0.6"/>
<rect x="-159" y="86" width="18" height="4" fill="#1A5830"/>
<path d="M -159 86 L -159 90 M -141 86 L -141 90" fill="none" stroke="#0B2414" stroke-width="0.6"/>
<ellipse cx="-150" cy="86" rx="9" ry="4.5" fill="#31A75B" stroke="#0B2414" stroke-width="0.6"/>
<ellipse cx="-180" cy="105" rx="9" ry="4.5" fill="#1A5830" stroke="#0B2414" stroke-width="0.6"/>
<rect x="-189" y="101" width="18" height="4" fill="#1A5830"/>
<path d="M -189 101 L -189 105 M -171 101 L -171 105" fill="none" stroke="#0B2414" stroke-width="0.6"/>
<ellipse cx="-180" cy="101" rx="9" ry="4.5" fill="#31A75B" stroke="#0B2414" stroke-width="0.6"/>
<ellipse cx="-210" cy="120" rx="9" ry="4.5" fill="#1A5830" stroke="#0B2414" stroke-width="0.6"/>
<rect x="-219" y="116" width="18" height="4" fill="#1A5830"/>
<path d="M -219 116 L -219 120 M -201 116 L -201 120" fill="none" stroke="#0B2414" stroke-width="0.6"/>
<ellipse cx="-210" cy="116" rx="9" ry="4.5" fill="#31A75B" stroke="#0B2414" stroke-width="0.6"/>
<ellipse cx="-240" cy="135" rx="9" ry="4.5" fill="#1A5830" stroke="#0B2414" stroke-width="0.6"/>
<rect x="-249" y="131" width="18" height="4" fill="#1A5830"/>
<path d="M -249 131 L -249 135 M -231 131 L -231 135" fill="none" stroke="#0B2414" stroke-width="0.6"/>
<ellipse cx="-240" cy="131" rx="9" ry="4.5" fill="#31A75B" stroke="#0B2414" stroke-width="0.6"/>
<ellipse cx="-270" cy="150" rx="9" ry="4.5" fill="#1A5830" stroke="#0B2414" stroke-width="0.6"/>
<rect x="-279" y="146" width="18" height="4" fill="#1A5830"/>
<path d="M -279 146 L -279 150 M -261 146 L -261 150" fill="none" stroke="#0B2414" stroke-width="0.6"/>
<ellipse cx="-270" cy="146" rx="9" ry="4.5" fill="#31A75B" stroke="#0B2414" stroke-width="0.6"/>
<ellipse cx="30" cy="30" rx="9" ry="4.5" fill="#1A5830" stroke="#0B2414" stroke-width="0.6"/>
<rect x="21" y="26" width="18" height="4" fill="#1A5830"/>
<path d="M 21 26 L 21 30 M 39 26 L 39 30" fill="none" stroke="#0B2414" stroke-width="0.6"/>
<ellipse cx="30" cy="26" rx="9" ry="4.5" fill="#31A75B" stroke="#0B2414" stroke-width="0.6"/>
<ellipse cx="0" cy="45" rx="9" ry="4.5" fill="#1A5830" stroke="#0B2414" stroke-width="0.6"/>
<rect x="-9" y="41" width="18" height="4" fill="#1A5830"/>
<path d="M -9 41 L -9 45 M 9 41 L 9 45" fill="none" stroke="#0B2414" stroke-width="0.6"/>
<ellipse cx="0" cy="41" rx="9" ry="4.5" fill="#31A75B" stroke="#0B2414" stroke-width="0.6"/>
<ellipse cx="-30" cy="60" rx="9" ry="4.5" fill="#1A5830" stroke="#0B2414" stroke-width="0.6"/>
<rect x="-39" y="56" width="18" height="4" fill="#1A5830"/>
<path d="M -39 56 L -39 60 M -21 56 L -21 60" fill="none" stroke="#0B2414" stroke-width="0.6"/>
<ellipse cx="-30" cy="56" rx="9" ry="4.5" fill="#31A75B" stroke="#0B2414" stroke-width="0.6"/>
<ellipse cx="-60" cy="75" rx="9" ry="4.5" fill="#1A5830" stroke="#0B2414" stroke-width="0.6"/>
<rect x="-69" y="71" width="18" height="4" fill="#1A5830"/>
<path d="M -69 71 L -69 75 M -51 71 L -51 75" fill="none" stroke="#0B2414" stroke-width="0.6"/>
<ellipse cx="-60" cy="71" rx="9" ry="4.5" fill="#31A75B" stroke="#0B2414" stroke-width="0.6"/>
<ellipse cx="-90" cy="90" rx="9" ry="4.5" fill="#1A5830" stroke="#0B2414" stroke-width="0.6"/>
<rect x="-99" y="86" width="18" height="4" fill="#1A5830"/>
<path d="M -99 86 L -99 90 M -81 86 L -81 90" fill="none" stroke="#0B2414" stroke-width="0.6"/>
<ellipse cx="-90" cy="86" rx="9" ry="4.5" fill="#31A75B" stroke="#0B2414" stroke-width="0.6"/>
<ellipse cx="-120" cy="105" rx="9" ry="4.5" fill="#1A5830" stroke="#0B2414" stroke-width="0.6"/>
<rect x="-129" y="101" width="18" height="4" fill="#1A5830"/>
<path d="M -129 101 L -129 105 M -111 101 L -111 105" fill="none" stroke="#0B2414" stroke-width="0.6"/>
<ellipse cx="-120" cy="101" rx="9" ry="4.5" fill="#31A75B" stroke="#0B2414" stroke-width="0.6"/>
<ellipse cx="-150" cy="120" rx="9" ry="4.5" fill="#1A5830" stroke="#0B2414" stroke-width="0.6"/>
<rect x="-159" y="116" width="18" height="4" fill="#1A5830"/>
<path d="M -159 116 L -159 120 M -141 116 L -141 120" fill="none" stroke="#0B2414" stroke-width="0.6"/>
<ellipse cx="-150" cy="116" rx="9" ry="4.5" fill="#31A75B" stroke="#0B2414" stroke-width="0.6"/>
<ellipse cx="-180" cy="135" rx="9" ry="4.5" fill="#1A5830" stroke="#0B2414" stroke-width="0.6"/>
<rect x="-189" y="131" width="18" height="4" fill="#1A5830"/>
<path d="M -189 131 L -189 135 M -171 131 L -171 135" fill="none" stroke="#0B2414" stroke-width="0.6"/>
<ellipse cx="-180" cy="131" rx="9" ry="4.5" fill="#31A75B" stroke="#0B2414" stroke-width="0.6"/>
<ellipse cx="-210" cy="150" rx="9" ry="4.5" fill="#1A5830" stroke="#0B2414" stroke-width="0.6"/>
<rect x="-219" y="146" width="18" height="4" fill="#1A5830"/>
<path d="M -219 146 L -219 150 M -201 146 L -201 150" fill="none" stroke="#0B2414" stroke-width="0.6"/>
<ellipse cx="-210" cy="146" rx="9" ry="4.5" fill="#31A75B" stroke="#0B2414" stroke-width="0.6"/>
<ellipse cx="-240" cy="165" rx="9" ry="4.5" fill="#1A5830" stroke="#0B2414" stroke-width="0.6"/>
<rect x="-249" y="161" width="18" height="4" fill="#1A5830"/>
<path d="M -249 161 L -249 165 M -231 161 L -231 165" fill="none" stroke="#0B2414" stroke-width="0.6"/>
<ellipse cx="-240" cy="161" rx="9" ry="4.5" fill="#31A75B" stroke="#0B2414" stroke-width="0.6"/>
</g>
<path d="M -150 75 L -144.559 85.547 L -129.727 77.31 L -127.416 94.118 L -112.584 85.882 L -110.273 102.69 L -95.441 94.453 L -90 105 L -94 108 L -86 111 L -94 114 L -90 117" fill="none" stroke="#0B2414" stroke-width="1.4" stroke-linejoin="round" stroke-linecap="round"/>
</g>
</svg>
