<svg xmlns="http://www.w3.org/2000/svg" viewBox="-184 -12.5 218 133.5" role="img" aria-label="plate-1x6 l-green (isometric)">
<title>plate-1x6 l-green (isometric)</title>
<polygon points="-150,105 -180,90 -180,102 -150,117" fill="#1A5830" stroke="#0B2414" stroke-width="0.6" stroke-linejoin="round"/>
<polygon points="-150,105 30,15 30,27 -150,117" fill="#11391F" stroke="#0B2414" stroke-width="0.6" stroke-linejoin="round"/>
<polygon points="0,0 30,15 -150,105 -180,90" fill="#237841" stroke="#0B2414" stroke-width="0.6" stroke-linejoin="round"/>
<ellipse cx="0" cy="15" rx="9" ry="4.5" fill="#1A5830" stroke="#0B2414" stroke-width="0.6"/>
<rect x="-9" y="11" width="18" height="4" fill="#1A5830"/>
<path d="M -9 11 L -9 15 M 9 11 L 9 15" fill="none" stroke="#0B2414" stroke-width="0.6"/>
<ellipse cx="0" cy="11" rx="9" ry="4.5" fill="#31A75B" stroke="#0B2414" stroke-width="0.6"/>
<ellipse cx="-30" cy="30" rx="9" ry="4.5" fill="#1A5830" stroke="#0B2414" stroke-width="0.6"/>
<rect x="-39" y="26" width="18" height="4" fill="#1A5830"/>
<path d="M -39 26 L -39 30 M -21 26 L -21 30" fill="none" stroke="#0B2414" stroke-width="0.6"/>
<ellipse cx="-30" cy="26" rx="9" ry="4.5" fill="#31A75B" stroke="#0B2414" stroke-width="0.6"/>
<ellipse cx="-60" cy="45" rx="9" ry="4.5" fill="#1A5830" stroke="#0B2414" stroke-width="0.6"/>
<rect x="-69" y="41" width="18" height="4" fill="#1A5830"/>
<path d="M -69 41 L -69 45 M -51 41 L -51 45" fill="none" stroke="#0B2414" stroke-width="0.6"/>
<ellipse cx="-60" cy="41" rx="9" ry="4.5" fill="#31A75B" stroke="#0B2414" stroke-width="0.6"/>
<ellipse cx="-90" cy="60" rx="9" ry="4.5" fill="#1A5830" stroke="#0B2414" stroke-width="0.6"/>
<rect x="-99" y="56" width="18" height="4" fill="#1A5830"/>
<path d="M -99 56 L -99 60 M -81 56 L -81 60" fill="none" stroke="#0B2414" stroke-width="0.6"/>
<ellipse cx="-90" cy="56" rx="9" ry="4.5" fill="#31A75B" stroke="#0B2414" stroke-width="0.6"/>
<ellipse cx="-120" cy="75" rx="9" ry="4.5" fill="#1A5830" stroke="#0B2414" stroke-width="0.6"/>
<rect x="-129" y="71" width="18" height="4" fill="#1A5830"/>
<path d="M -129 71 L -129 75 M -111 71 L -111 75" fill="none" stroke="#0B2414" stroke-width="0.6"/>
<ellipse cx="-120" cy="71" rx="9" ry="4.5" fill="#31A75B" stroke="#0B2414" stroke-width="0.6"/>
<ellipse cx="-150" cy="90" rx="9" ry="4.5" fill="#1A5830" stroke="#0B2414" stroke-width="0.6"/>
<rect x="-159" y="86" width="18" height="4" fill="#1A5830"/>
<path d="M -159 86 L -159 90 M -141 86 L -141 90" fill="none" stroke="#0B2414" stroke-width="0.6"/>
<ellipse cx="-150" cy="86" rx="9" ry="4.5" fill="#31A75B" stroke="#0B2414" stroke-width="0.6"/>
</svg>
