<svg xmlns="http://www.w3.org/2000/svg" viewBox="-484 -12.5 728 388.5" role="img" aria-label="plate-8x16 l-blue (isometric)">
<title>plate-8x16 l-blue (isometric)</title>
<polygon points="-240,360 -480,240 -480,252 -240,372" fill="#004396" stroke="#001939" stroke-width="0.6" stroke-linejoin="round"/>
<polygon points="-240,360 240,120 240,132 -240,372" fill="#00316D" stroke="#001939" stroke-width="0.6" stroke-linejoin="round"/>
<polygon points="0,0 240,120 -240,360 -480,240" fill="#0055BF" stroke="#001939" stroke-width="0.6" stroke-linejoin="round"/>
<ellipse cx="0" cy="15" rx="9" ry="4.5" fill="#004396" stroke="#001939" stroke-width="0.6"/>
<rect x="-9" y="11" width="18" height="4" fill="#004396"/>
<path d="M -9 11 L -9 15 M 9 11 L 9 15" fill="none" stroke="#001939" stroke-width="0.6"/>
<ellipse cx="0" cy="11" rx="9" ry="4.5" fill="#0070FC" stroke="#001939" stroke-width="0.6"/>
<ellipse cx="-30" cy="30" rx="9" ry="4.5" fill="#004396" stroke="#001939" stroke-width="0.6"/>
<rect x="-39" y="26" width="18" height="4" fill="#004396"/>
<path d="M -39 26 L -39 30 M -21 26 L -21 30" fill="none" stroke="#001939" stroke-width="0.6"/>
<ellipse cx="-30" cy="26" rx="9" ry="4.5" fill="#0070FC" stroke="#001939" stroke-width="0.6"/>
<ellipse cx="-60" cy="45" rx="9" ry="4.5" fill="#004396" stroke="#001939" stroke-width="0.6"/>
<rect x="-69" y="41" width="18" height="4" fill="#004396"/>
<path d="M -69 41 L -69 45 M -51 41 L -51 45" fill="none" stroke="#001939" stroke-width="0.6"/>
<ellipse cx="-60" cy="41" rx="9" ry="4.5" fill="#0070FC" stroke="#001939" stroke-width="0.6"/>
<ellipse cx="-90" cy="60" rx="9" ry="4.5" fill="#004396" stroke="#001939" stroke-width="0.6"/>
<rect x="-99" y="56" width="18" height="4" fill="#004396"/>
<path d="M -99 56 L -99 60 M -81 56 L -81 60" fill="none" stroke="#001939" stroke-width="0.6"/>
<ellipse cx="-90" cy="56" rx="9" ry="4.5" fill="#0070FC" stroke="#001939" stroke-width="0.6"/>
<ellipse cx="-120" cy="75" rx="9" ry="4.5" fill="#004396" stroke="#001939" stroke-width="0.6"/>
<rect x="-129" y="71" width="18" height="4" fill="#004396"/>
<path d="M -129 71 L -129 75 M -111 71 L -111 75" fill="none" stroke="#001939" stroke-width="0.6"/>
<ellipse cx="-120" cy="71" rx="9" ry="4.5" fill="#0070FC" stroke="#001939" stroke-width="0.6"/>
<ellipse cx="-150" cy="90" rx="9" ry="4.5" fill="#004396" stroke="#001939" stroke-width="0.6"/>
<rect x="-159" y="86" width="18" height="4" fill="#004396"/>
<path d="M -159 86 L -159 90 M -141 86 L -141 90" fill="none" stroke="#001939" stroke-width="0.6"/>
<ellipse cx="-150" cy="86" rx="9" ry="4.5" fill="#0070FC" stroke="#001939" stroke-width="0.6"/>
<ellipse cx="-180" cy="105" rx="9" ry="4.5" fill="#004396" stroke="#001939" stroke-width="0.6"/>
<rect x="-189" y="101" width="18" height="4" fill="#004396"/>
<path d="M -189 101 L -189 105 M -171 101 L -171 105" fill="none" stroke="#001939" stroke-width="0.6"/>
<ellipse cx="-180" cy="101" rx="9" ry="4.5" fill="#0070FC" stroke="#001939" stroke-width="0.6"/>
<ellipse cx="-210" cy="120" rx="9" ry="4.5" fill="#004396" stroke="#001939" stroke-width="0.6"/>
<rect x="-219" y="116" width="18" height="4" fill="#004396"/>
<path d="M -219 116 L -219 120 M -201 116 L -201 120" fill="none" stroke="#001939" stroke-width="0.6"/>
<ellipse cx="-210" cy="116" rx="9" ry="4.5" fill="#0070FC" stroke="#001939" stroke-width="0.6"/>
<ellipse cx="-240" cy="135" rx="9" ry="4.5" fill="#004396" stroke="#001939" stroke-width="0.6"/>
<rect x="-249" y="131" width="18" height="4" fill="#004396"/>
<path d="M -249 131 L -249 135 M -231 131 L -231 135" fill="none" stroke="#001939" stroke-width="0.6"/>
<ellipse cx="-240" cy="131" rx="9" ry="4.5" fill="#0070FC" stroke="#001939" stroke-width="0.6"/>
<ellipse cx="-270" cy="150" rx="9" ry="4.5" fill="#004396" stroke="#001939" stroke-width="0.6"/>
<rect x="-279" y="146" width="18" height="4" fill="#004396"/>
<path d="M -279 146 L -279 150 M -261 146 L -261 150" fill="none" stroke="#001939" stroke-width="0.6"/>
<ellipse cx="-270" cy="146" rx="9" ry="4.5" fill="#0070FC" stroke="#001939" stroke-width="0.6"/>
<ellipse cx="-300" cy="165" rx="9" ry="4.5" fill="#004396" stroke="#001939" stroke-width="0.6"/>
<rect x="-309" y="161" width="18" height="4" fill="#004396"/>
<path d="M -309 161 L -309 165 M -291 161 L -291 165" fill="none" stroke="#001939" stroke-width="0.6"/>
<ellipse cx="-300" cy="161" rx="9" ry="4.5" fill="#0070FC" stroke="#001939" stroke-width="0.6"/>
<ellipse cx="-330" cy="180" rx="9" ry="4.5" fill="#004396" stroke="#001939" stroke-width="0.6"/>
<rect x="-339" y="176" width="18" height="4" fill="#004396"/>
<path d="M -339 176 L -339 180 M -321 176 L -321 180" fill="none" stroke="#001939" stroke-width="0.6"/>
<ellipse cx="-330" cy="176" rx="9" ry="4.5" fill="#0070FC" stroke="#001939" stroke-width="0.6"/>
<ellipse cx="-360" cy="195" rx="9" ry="4.5" fill="#004396" stroke="#001939" stroke-width="0.6"/>
<rect x="-369" y="191" width="18" height="4" fill="#004396"/>
<path d="M -369 191 L -369 195 M -351 191 L -351 195" fill="none" stroke="#001939" stroke-width="0.6"/>
<ellipse cx="-360" cy="191" rx="9" ry="4.5" fill="#0070FC" stroke="#001939" stroke-width="0.6"/>
<ellipse cx="-390" cy="210" rx="9" ry="4.5" fill="#004396" stroke="#001939" stroke-width="0.6"/>
<rect x="-399" y="206" width="18" height="4" fill="#004396"/>
<path d="M -399 206 L -399 210 M -381 206 L -381 210" fill="none" stroke="#001939" stroke-width="0.6"/>
<ellipse cx="-390" cy="206" rx="9" ry="4.5" fill="#0070FC" stroke="#001939" stroke-width="0.6"/>
<ellipse cx="-420" cy="225" rx="9" ry="4.5" fill="#004396" stroke="#001939" stroke-width="0.6"/>
<rect x="-429" y="221" width="18" height="4" fill="#004396"/>
<path d="M -429 221 L -429 225 M -411 221 L -411 225" fill="none" stroke="#001939" stroke-width="0.6"/>
<ellipse cx="-420" cy="221" rx="9" ry="4.5" fill="#0070FC" stroke="#001939" stroke-width="0.6"/>
<ellipse cx="-450" cy="240" rx="9" ry="4.5" fill="#004396" stroke="#001939" stroke-width="0.6"/>
<rect x="-459" y="236" width="18" height="4" fill="#004396"/>
<path d="M -459 236 L -459 240 M -441 236 L -441 240" fill="none" stroke="#001939" stroke-width="0.6"/>
<ellipse cx="-450" cy="236" rx="9" ry="4.5" fill="#0070FC" stroke="#001939" stroke-width="0.6"/>
<ellipse cx="30" cy="30" rx="9" ry="4.5" fill="#004396" stroke="#001939" stroke-width="0.6"/>
<rect x="21" y="26" width="18" height="4" fill="#004396"/>
<path d="M 21 26 L 21 30 M 39 26 L 39 30" fill="none" stroke="#001939" stroke-width="0.6"/>
<ellipse cx="30" cy="26" rx="9" ry="4.5" fill="#0070FC" stroke="#001939" stroke-width="0.6"/>
<ellipse cx="0" cy="45" rx="9" ry="4.5" fill="#004396" stroke="#001939" stroke-width="0.6"/>
<rect x="-9" y="41" width="18" height="4" fill="#004396"/>
<path d="M -9 41 L -9 45 M 9 41 L 9 45" fill="none" stroke="#001939" stroke-width="0.6"/>
<ellipse cx="0" cy="41" rx="9" ry="4.5" fill="#0070FC" stroke="#001939" stroke-width="0.6"/>
<ellipse cx="-30" cy="60" rx="9" ry="4.5" fill="#004396" stroke="#001939" stroke-width="0.6"/>
<rect x="-39" y="56" width="18" height="4" fill="#004396"/>
<path d="M -39 56 L -39 60 M -21 56 L -21 60" fill="none" stroke="#001939" stroke-width="0.6"/>
<ellipse cx="-30" cy="56" rx="9" ry="4.5" fill="#0070FC" stroke="#001939" stroke-width="0.6"/>
<ellipse cx="-60" cy="75" rx="9" ry="4.5" fill="#004396" stroke="#001939" stroke-width="0.6"/>
<rect x="-69" y="71" width="18" height="4" fill="#004396"/>
<path d="M -69 71 L -69 75 M -51 71 L -51 75" fill="none" stroke="#001939" stroke-width="0.6"/>
<ellipse cx="-60" cy="71" rx="9" ry="4.5" fill="#0070FC" stroke="#001939" stroke-width="0.6"/>
<ellipse cx="-90" cy="90" rx="9" ry="4.5" fill="#004396" stroke="#001939" stroke-width="0.6"/>
<rect x="-99" y="86" width="18" height="4" fill="#004396"/>
<path d="M -99 86 L -99 90 M -81 86 L -81 90" fill="none" stroke="#001939" stroke-width="0.6"/>
<ellipse cx="-90" cy="86" rx="9" ry="4.5" fill="#0070FC" stroke="#001939" stroke-width="0.6"/>
<ellipse cx="-120" cy="105" rx="9" ry="4.5" fill="#004396" stroke="#001939" stroke-width="0.6"/>
<rect x="-129" y="101" width="18" height="4" fill="#004396"/>
<path d="M -129 101 L -129 105 M -111 101 L -111 105" fill="none" stroke="#001939" stroke-width="0.6"/>
<ellipse cx="-120" cy="101" rx="9" ry="4.5" fill="#0070FC" stroke="#001939" stroke-width="0.6"/>
<ellipse cx="-150" cy="120" rx="9" ry="4.5" fill="#004396" stroke="#001939" stroke-width="0.6"/>
<rect x="-159" y="116" width="18" height="4" fill="#004396"/>
<path d="M -159 116 L -159 120 M -141 116 L -141 120" fill="none" stroke="#001939" stroke-width="0.6"/>
<ellipse cx="-150" cy="116" rx="9" ry="4.5" fill="#0070FC" stroke="#001939" stroke-width="0.6"/>
<ellipse cx="-180" cy="135" rx="9" ry="4.5" fill="#004396" stroke="#001939" stroke-width="0.6"/>
<rect x="-189" y="131" width="18" height="4" fill="#004396"/>
<path d="M -189 131 L -189 135 M -171 131 L -171 135" fill="none" stroke="#001939" stroke-width="0.6"/>
<ellipse cx="-180" cy="131" rx="9" ry="4.5" fill="#0070FC" stroke="#001939" stroke-width="0.6"/>
<ellipse cx="-210" cy="150" rx="9" ry="4.5" fill="#004396" stroke="#001939" stroke-width="0.6"/>
<rect x="-219" y="146" width="18" height="4" fill="#004396"/>
<path d="M -219 146 L -219 150 M -201 146 L -201 150" fill="none" stroke="#001939" stroke-width="0.6"/>
<ellipse cx="-210" cy="146" rx="9" ry="4.5" fill="#0070FC" stroke="#001939" stroke-width="0.6"/>
<ellipse cx="-240" cy="165" rx="9" ry="4.5" fill="#004396" stroke="#001939" stroke-width="0.6"/>
<rect x="-249" y="161" width="18" height="4" fill="#004396"/>
<path d="M -249 161 L -249 165 M -231 161 L -231 165" fill="none" stroke="#001939" stroke-width="0.6"/>
<ellipse cx="-240" cy="161" rx="9" ry="4.5" fill="#0070FC" stroke="#001939" stroke-width="0.6"/>
<ellipse cx="-270" cy="180" rx="9" ry="4.5" fill="#004396" stroke="#001939" stroke-width="0.6"/>
<rect x="-279" y="176" width="18" height="4" fill="#004396"/>
<path d="M -279 176 L -279 180 M -261 176 L -261 180" fill="none" stroke="#001939" stroke-width="0.6"/>
<ellipse cx="-270" cy="176" rx="9" ry="4.5" fill="#0070FC" stroke="#001939" stroke-width="0.6"/>
<ellipse cx="-300" cy="195" rx="9" ry="4.5" fill="#004396" stroke="#001939" stroke-width="0.6"/>
<rect x="-309" y="191" width="18" height="4" fill="#004396"/>
<path d="M -309 191 L -309 195 M -291 191 L -291 195" fill="none" stroke="#001939" stroke-width="0.6"/>
<ellipse cx="-300" cy="191" rx="9" ry="4.5" fill="#0070FC" stroke="#001939" stroke-width="0.6"/>
<ellipse cx="-330" cy="210" rx="9" ry="4.5" fill="#004396" stroke="#001939" stroke-width="0.6"/>
<rect x="-339" y="206" width="18" height="4" fill="#004396"/>
<path d="M -339 206 L -339 210 M -321 206 L -321 210" fill="none" stroke="#001939" stroke-width="0.6"/>
<ellipse cx="-330" cy="206" rx="9" ry="4.5" fill="#0070FC" stroke="#001939" stroke-width="0.6"/>
<ellipse cx="-360" cy="225" rx="9" ry="4.5" fill="#004396" stroke="#001939" stroke-width="0.6"/>
<rect x="-369" y="221" width="18" height="4" fill="#004396"/>
<path d="M -369 221 L -369 225 M -351 221 L -351 225" fill="none" stroke="#001939" stroke-width="0.6"/>
<ellipse cx="-360" cy="221" rx="9" ry="4.5" fill="#0070FC" stroke="#001939" stroke-width="0.6"/>
<ellipse cx="-390" cy="240" rx="9" ry="4.5" fill="#004396" stroke="#001939" stroke-width="0.6"/>
<rect x="-399" y="236" width="18" height="4" fill="#004396"/>
<path d="M -399 236 L -399 240 M -381 236 L -381 240" fill="none" stroke="#001939" stroke-width="0.6"/>
<ellipse cx="-390" cy="236" rx="9" ry="4.5" fill="#0070FC" stroke="#001939" stroke-width="0.6"/>
<ellipse cx="-420" cy="255" rx="9" ry="4.5" fill="#004396" stroke="#001939" stroke-width="0.6"/>
<rect x="-429" y="251" width="18" height="4" fill="#004396"/>
<path d="M -429 251 L -429 255 M -411 251 L -411 255" fill="none" stroke="#001939" stroke-width="0.6"/>
<ellipse cx="-420" cy="251" rx="9" ry="4.5" fill="#0070FC" stroke="#001939" stroke-width="0.6"/>
<ellipse cx="60" cy="45" rx="9" ry="4.5" fill="#004396" stroke="#001939" stroke-width="0.6"/>
<rect x="51" y="41" width="18" height="4" fill="#004396"/>
<path d="M 51 41 L 51 45 M 69 41 L 69 45" fill="none" stroke="#001939" stroke-width="0.6"/>
<ellipse cx="60" cy="41" rx="9" ry="4.5" fill="#0070FC" stroke="#001939" stroke-width="0.6"/>
<ellipse cx="30" cy="60" rx="9" ry="4.5" fill="#004396" stroke="#001939" stroke-width="0.6"/>
<rect x="21" y="56" width="18" height="4" fill="#004396"/>
<path d="M 21 56 L 21 60 M 39 56 L 39 60" fill="none" stroke="#001939" stroke-width="0.6"/>
<ellipse cx="30" cy="56" rx="9" ry="4.5" fill="#0070FC" stroke="#001939" stroke-width="0.6"/>
<ellipse cx="0" cy="75" rx="9" ry="4.5" fill="#004396" stroke="#001939" stroke-width="0.6"/>
<rect x="-9" y="71" width="18" height="4" fill="#004396"/>
<path d="M -9 71 L -9 75 M 9 71 L 9 75" fill="none" stroke="#001939" stroke-width="0.6"/>
<ellipse cx="0" cy="71" rx="9" ry="4.5" fill="#0070FC" stroke="#001939" stroke-width="0.6"/>
<ellipse cx="-30" cy="90" rx="9" ry="4.5" fill="#004396" stroke="#001939" stroke-width="0.6"/>
<rect x="-39" y="86" width="18" height="4" fill="#004396"/>
<path d="M -39 86 L -39 90 M -21 86 L -21 90" fill="none" stroke="#001939" stroke-width="0.6"/>
<ellipse cx="-30" cy="86" rx="9" ry="4.5" fill="#0070FC" stroke="#001939" stroke-width="0.6"/>
<ellipse cx="-60" cy="105" rx="9" ry="4.5" fill="#004396" stroke="#001939" stroke-width="0.6"/>
<rect x="-69" y="101" width="18" height="4" fill="#004396"/>
<path d="M -69 101 L -69 105 M -51 101 L -51 105" fill="none" stroke="#001939" stroke-width="0.6"/>
<ellipse cx="-60" cy="101" rx="9" ry="4.5" fill="#0070FC" stroke="#001939" stroke-width="0.6"/>
<ellipse cx="-90" cy="120" rx="9" ry="4.5" fill="#004396" stroke="#001939" stroke-width="0.6"/>
<rect x="-99" y="116" width="18" height="4" fill="#004396"/>
<path d="M -99 116 L -99 120 M -81 116 L -81 120" fill="none" stroke="#001939" stroke-width="0.6"/>
<ellipse cx="-90" cy="116" rx="9" ry="4.5" fill="#0070FC" stroke="#001939" stroke-width="0.6"/>
<ellipse cx="-120" cy="135" rx="9" ry="4.5" fill="#004396" stroke="#001939" stroke-width="0.6"/>
<rect x="-129" y="131" width="18" height="4" fill="#004396"/>
<path d="M -129 131 L -129 135 M -111 131 L -111 135" fill="none" stroke="#001939" stroke-width="0.6"/>
<ellipse cx="-120" cy="131" rx="9" ry="4.5" fill="#0070FC" stroke="#001939" stroke-width="0.6"/>
<ellipse cx="-150" cy="150" rx="9" ry="4.5" fill="#004396" stroke="#001939" stroke-width="0.6"/>
<rect x="-159" y="146" width="18" height="4" fill="#004396"/>
<path d="M -159 146 L -159 150 M -141 146 L -141 150" fill="none" stroke="#001939" stroke-width="0.6"/>
<ellipse cx="-150" cy="146" rx="9" ry="4.5" fill="#0070FC" stroke="#001939" stroke-width="0.6"/>
<ellipse cx="-180" cy="165" rx="9" ry="4.5" fill="#004396" stroke="#001939" stroke-width="0.6"/>
<rect x="-189" y="161" width="18" height="4" fill="#004396"/>
<path d="M -189 161 L -189 165 M -171 161 L -171 165" fill="none" stroke="#001939" stroke-width="0.6"/>
<ellipse cx="-180" cy="161" rx="9" ry="4.5" fill="#0070FC" stroke="#001939" stroke-width="0.6"/>
<ellipse cx="-210" cy="180" rx="9" ry="4.5" fill="#004396" stroke="#001939" stroke-width="0.6"/>
<rect x="-219" y="176" width="18" height="4" fill="#004396"/>
<path d="M -219 176 L -219 180 M -201 176 L -201 180" fill="none" stroke="#001939" stroke-width="0.6"/>
<ellipse cx="-210" cy="176" rx="9" ry="4.5" fill="#0070FC" stroke="#001939" stroke-width="0.6"/>
<ellipse cx="-240" cy="195" rx="9" ry="4.5" fill="#004396" stroke="#001939" stroke-width="0.6"/>
<rect x="-249" y="191" width="18" height="4" fill="#004396"/>
<path d="M -249 191 L -249 195 M -231 191 L -231 195" fill="none" stroke="#001939" stroke-width="0.6"/>
<ellipse cx="-240" cy="191" rx="9" ry="4.5" fill="#0070FC" stroke="#001939" stroke-width="0.6"/>
<ellipse cx="-270" cy="210" rx="9" ry="4.5" fill="#004396" stroke="#001939" stroke-width="0.6"/>
<rect x="-279" y="206" width="18" height="4" fill="#004396"/>
<path d="M -279 206 L -279 210 M -261 206 L -261 210" fill="none" stroke="#001939" stroke-width="0.6"/>
<ellipse cx="-270" cy="206" rx="9" ry="4.5" fill="#0070FC" stroke="#001939" stroke-width="0.6"/>
<ellipse cx="-300" cy="225" rx="9" ry="4.5" fill="#004396" stroke="#001939" stroke-width="0.6"/>
<rect x="-309" y="221" width="18" height="4" fill="#004396"/>
<path d="M -309 221 L -309 225 M -291 221 L -291 225" fill="none" stroke="#001939" stroke-width="0.6"/>
<ellipse cx="-300" cy="221" rx="9" ry="4.5" fill="#0070FC" stroke="#001939" stroke-width="0.6"/>
<ellipse cx="-330" cy="240" rx="9" ry="4.5" fill="#004396" stroke="#001939" stroke-width="0.6"/>
<rect x="-339" y="236" width="18" height="4" fill="#004396"/>
<path d="M -339 236 L -339 240 M -321 236 L -321 240" fill="none" stroke="#001939" stroke-width="0.6"/>
<ellipse cx="-330" cy="236" rx="9" ry="4.5" fill="#0070FC" stroke="#001939" stroke-width="0.6"/>
<ellipse cx="-360" cy="255" rx="9" ry="4.5" fill="#004396" stroke="#001939" stroke-width="0.6"/>
<rect x="-369" y="251" width="18" height="4" fill="#004396"/>
<path d="M -369 251 L -369 255 M -351 251 L -351 255" fill="none" stroke="#001939" stroke-width="0.6"/>
<ellipse cx="-360" cy="251" rx="9" ry="4.5" fill="#0070FC" stroke="#001939" stroke-width="0.6"/>
<ellipse cx="-390" cy="270" rx="9" ry="4.5" fill="#004396" stroke="#001939" stroke-width="0.6"/>
<rect x="-399" y="266" width="18" height="4" fill="#004396"/>
<path d="M -399 266 L -399 270 M -381 266 L -381 270" fill="none" stroke="#001939" stroke-width="0.6"/>
<ellipse cx="-390" cy="266" rx="9" ry="4.5" fill="#0070FC" stroke="#001939" stroke-width="0.6"/>
<ellipse cx="90" cy="60" rx="9" ry="4.5" fill="#004396" stroke="#001939" stroke-width="0.6"/>
<rect x="81" y="56" width="18" height="4" fill="#004396"/>
<path d="M 81 56 L 81 60 M 99 56 L 99 60" fill="none" stroke="#001939" stroke-width="0.6"/>
<ellipse cx="90" cy="56" rx="9" ry="4.5" fill="#0070FC" stroke="#001939" stroke-width="0.6"/>
<ellipse cx="60" cy="75" rx="9" ry="4.5" fill="#004396" stroke="#001939" stroke-width="0.6"/>
<rect x="51" y="71" width="18" height="4" fill="#004396"/>
<path d="M 51 71 L 51 75 M 69 71 L 69 75" fill="none" stroke="#001939" stroke-width="0.6"/>
<ellipse cx="60" cy="71" rx="9" ry="4.5" fill="#0070FC" stroke="#001939" stroke-width="0.6"/>
<ellipse cx="30" cy="90" rx="9" ry="4.5" fill="#004396" stroke="#001939" stroke-width="0.6"/>
<rect x="21" y="86" width="18" height="4" fill="#004396"/>
<path d="M 21 86 L 21 90 M 39 86 L 39 90" fill="none" stroke="#001939" stroke-width="0.6"/>
<ellipse cx="30" cy="86" rx="9" ry="4.5" fill="#0070FC" stroke="#001939" stroke-width="0.6"/>
<ellipse cx="0" cy="105" rx="9" ry="4.5" fill="#004396" stroke="#001939" stroke-width="0.6"/>
<rect x="-9" y="101" width="18" height="4" fill="#004396"/>
<path d="M -9 101 L -9 105 M 9 101 L 9 105" fill="none" stroke="#001939" stroke-width="0.6"/>
<ellipse cx="0" cy="101" rx="9" ry="4.5" fill="#0070FC" stroke="#001939" stroke-width="0.6"/>
<ellipse cx="-30" cy="120" rx="9" ry="4.5" fill="#004396" stroke="#001939" stroke-width="0.6"/>
<rect x="-39" y="116" width="18" height="4" fill="#004396"/>
<path d="M -39 116 L -39 120 M -21 116 L -21 120" fill="none" stroke="#001939" stroke-width="0.6"/>
<ellipse cx="-30" cy="116" rx="9" ry="4.5" fill="#0070FC" stroke="#001939" stroke-width="0.6"/>
<ellipse cx="-60" cy="135" rx="9" ry="4.5" fill="#004396" stroke="#001939" stroke-width="0.6"/>
<rect x="-69" y="131" width="18" height="4" fill="#004396"/>
<path d="M -69 131 L -69 135 M -51 131 L -51 135" fill="none" stroke="#001939" stroke-width="0.6"/>
<ellipse cx="-60" cy="131" rx="9" ry="4.5" fill="#0070FC" stroke="#001939" stroke-width="0.6"/>
<ellipse cx="-90" cy="150" rx="9" ry="4.5" fill="#004396" stroke="#001939" stroke-width="0.6"/>
<rect x="-99" y="146" width="18" height="4" fill="#004396"/>
<path d="M -99 146 L -99 150 M -81 146 L -81 150" fill="none" stroke="#001939" stroke-width="0.6"/>
<ellipse cx="-90" cy="146" rx="9" ry="4.5" fill="#0070FC" stroke="#001939" stroke-width="0.6"/>
<ellipse cx="-120" cy="165" rx="9" ry="4.5" fill="#004396" stroke="#001939" stroke-width="0.6"/>
<rect x="-129" y="161" width="18" height="4" fill="#004396"/>
<path d="M -129 161 L -129 165 M -111 161 L -111 165" fill="none" stroke="#001939" stroke-width="0.6"/>
<ellipse cx="-120" cy="161" rx="9" ry="4.5" fill="#0070FC" stroke="#001939" stroke-width="0.6"/>
<ellipse cx="-150" cy="180" rx="9" ry="4.5" fill="#004396" stroke="#001939" stroke-width="0.6"/>
<rect x="-159" y="176" width="18" height="4" fill="#004396"/>
<path d="M -159 176 L -159 180 M -141 176 L -141 180" fill="none" stroke="#001939" stroke-width="0.6"/>
<ellipse cx="-150" cy="176" rx="9" ry="4.5" fill="#0070FC" stroke="#001939" stroke-width="0.6"/>
<ellipse cx="-180" cy="195" rx="9" ry="4.5" fill="#004396" stroke="#001939" stroke-width="0.6"/>
<rect x="-189" y="191" width="18" height="4" fill="#004396"/>
<path d="M -189 191 L -189 195 M -171 191 L -171 195" fill="none" stroke="#001939" stroke-width="0.6"/>
<ellipse cx="-180" cy="191" rx="9" ry="4.5" fill="#0070FC" stroke="#001939" stroke-width="0.6"/>
<ellipse cx="-210" cy="210" rx="9" ry="4.5" fill="#004396" stroke="#001939" stroke-width="0.6"/>
<rect x="-219" y="206" width="18" height="4" fill="#004396"/>
<path d="M -219 206 L -219 210 M -201 206 L -201 210" fill="none" stroke="#001939" stroke-width="0.6"/>
<ellipse cx="-210" cy="206" rx="9" ry="4.5" fill="#0070FC" stroke="#001939" stroke-width="0.6"/>
<ellipse cx="-240" cy="225" rx="9" ry="4.5" fill="#004396" stroke="#001939" stroke-width="0.6"/>
<rect x="-249" y="221" width="18" height="4" fill="#004396"/>
<path d="M -249 221 L -249 225 M -231 221 L -231 225" fill="none" stroke="#001939" stroke-width="0.6"/>
<ellipse cx="-240" cy="221" rx="9" ry="4.5" fill="#0070FC" stroke="#001939" stroke-width="0.6"/>
<ellipse cx="-270" cy="240" rx="9" ry="4.5" fill="#004396" stroke="#001939" stroke-width="0.6"/>
<rect x="-279" y="236" width="18" height="4" fill="#004396"/>
<path d="M -279 236 L -279 240 M -261 236 L -261 240" fill="none" stroke="#001939" stroke-width="0.6"/>
<ellipse cx="-270" cy="236" rx="9" ry="4.5" fill="#0070FC" stroke="#001939" stroke-width="0.6"/>
<ellipse cx="-300" cy="255" rx="9" ry="4.5" fill="#004396" stroke="#001939" stroke-width="0.6"/>
<rect x="-309" y="251" width="18" height="4" fill="#004396"/>
<path d="M -309 251 L -309 255 M -291 251 L -291 255" fill="none" stroke="#001939" stroke-width="0.6"/>
<ellipse cx="-300" cy="251" rx="9" ry="4.5" fill="#0070FC" stroke="#001939" stroke-width="0.6"/>
<ellipse cx="-330" cy="270" rx="9" ry="4.5" fill="#004396" stroke="#001939" stroke-width="0.6"/>
<rect x="-339" y="266" width="18" height="4" fill="#004396"/>
<path d="M -339 266 L -339 270 M -321 266 L -321 270" fill="none" stroke="#001939" stroke-width="0.6"/>
<ellipse cx="-330" cy="266" rx="9" ry="4.5" fill="#0070FC" stroke="#001939" stroke-width="0.6"/>
<ellipse cx="-360" cy="285" rx="9" ry="4.5" fill="#004396" stroke="#001939" stroke-width="0.6"/>
<rect x="-369" y="281" width="18" height="4" fill="#004396"/>
<path d="M -369 281 L -369 285 M -351 281 L -351 285" fill="none" stroke="#001939" stroke-width="0.6"/>
<ellipse cx="-360" cy="281" rx="9" ry="4.5" fill="#0070FC" stroke="#001939" stroke-width="0.6"/>
<ellipse cx="120" cy="75" rx="9" ry="4.5" fill="#004396" stroke="#001939" stroke-width="0.6"/>
<rect x="111" y="71" width="18" height="4" fill="#004396"/>
<path d="M 111 71 L 111 75 M 129 71 L 129 75" fill="none" stroke="#001939" stroke-width="0.6"/>
<ellipse cx="120" cy="71" rx="9" ry="4.5" fill="#0070FC" stroke="#001939" stroke-width="0.6"/>
<ellipse cx="90" cy="90" rx="9" ry="4.5" fill="#004396" stroke="#001939" stroke-width="0.6"/>
<rect x="81" y="86" width="18" height="4" fill="#004396"/>
<path d="M 81 86 L 81 90 M 99 86 L 99 90" fill="none" stroke="#001939" stroke-width="0.6"/>
<ellipse cx="90" cy="86" rx="9" ry="4.5" fill="#0070FC" stroke="#001939" stroke-width="0.6"/>
<ellipse cx="60" cy="105" rx="9" ry="4.5" fill="#004396" stroke="#001939" stroke-width="0.6"/>
<rect x="51" y="101" width="18" height="4" fill="#004396"/>
<path d="M 51 101 L 51 105 M 69 101 L 69 105" fill="none" stroke="#001939" stroke-width="0.6"/>
<ellipse cx="60" cy="101" rx="9" ry="4.5" fill="#0070FC" stroke="#001939" stroke-width="0.6"/>
<ellipse cx="30" cy="120" rx="9" ry="4.5" fill="#004396" stroke="#001939" stroke-width="0.6"/>
<rect x="21" y="116" width="18" height="4" fill="#004396"/>
<path d="M 21 116 L 21 120 M 39 116 L 39 120" fill="none" stroke="#001939" stroke-width="0.6"/>
<ellipse cx="30" cy="116" rx="9" ry="4.5" fill="#0070FC" stroke="#001939" stroke-width="0.6"/>
<ellipse cx="0" cy="135" rx="9" ry="4.5" fill="#004396" stroke="#001939" stroke-width="0.6"/>
<rect x="-9" y="131" width="18" height="4" fill="#004396"/>
<path d="M -9 131 L -9 135 M 9 131 L 9 135" fill="none" stroke="#001939" stroke-width="0.6"/>
<ellipse cx="0" cy="131" rx="9" ry="4.5" fill="#0070FC" stroke="#001939" stroke-width="0.6"/>
<ellipse cx="-30" cy="150" rx="9" ry="4.5" fill="#004396" stroke="#001939" stroke-width="0.6"/>
<rect x="-39" y="146" width="18" height="4" fill="#004396"/>
<path d="M -39 146 L -39 150 M -21 146 L -21 150" fill="none" stroke="#001939" stroke-width="0.6"/>
<ellipse cx="-30" cy="146" rx="9" ry="4.5" fill="#0070FC" stroke="#001939" stroke-width="0.6"/>
<ellipse cx="-60" cy="165" rx="9" ry="4.5" fill="#004396" stroke="#001939" stroke-width="0.6"/>
<rect x="-69" y="161" width="18" height="4" fill="#004396"/>
<path d="M -69 161 L -69 165 M -51 161 L -51 165" fill="none" stroke="#001939" stroke-width="0.6"/>
<ellipse cx="-60" cy="161" rx="9" ry="4.5" fill="#0070FC" stroke="#001939" stroke-width="0.6"/>
<ellipse cx="-90" cy="180" rx="9" ry="4.5" fill="#004396" stroke="#001939" stroke-width="0.6"/>
<rect x="-99" y="176" width="18" height="4" fill="#004396"/>
<path d="M -99 176 L -99 180 M -81 176 L -81 180" fill="none" stroke="#001939" stroke-width="0.6"/>
<ellipse cx="-90" cy="176" rx="9" ry="4.5" fill="#0070FC" stroke="#001939" stroke-width="0.6"/>
<ellipse cx="-120" cy="195" rx="9" ry="4.5" fill="#004396" stroke="#001939" stroke-width="0.6"/>
<rect x="-129" y="191" width="18" height="4" fill="#004396"/>
<path d="M -129 191 L -129 195 M -111 191 L -111 195" fill="none" stroke="#001939" stroke-width="0.6"/>
<ellipse cx="-120" cy="191" rx="9" ry="4.5" fill="#0070FC" stroke="#001939" stroke-width="0.6"/>
<ellipse cx="-150" cy="210" rx="9" ry="4.5" fill="#004396" stroke="#001939" stroke-width="0.6"/>
<rect x="-159" y="206" width="18" height="4" fill="#004396"/>
<path d="M -159 206 L -159 210 M -141 206 L -141 210" fill="none" stroke="#001939" stroke-width="0.6"/>
<ellipse cx="-150" cy="206" rx="9" ry="4.5" fill="#0070FC" stroke="#001939" stroke-width="0.6"/>
<ellipse cx="-180" cy="225" rx="9" ry="4.5" fill="#004396" stroke="#001939" stroke-width="0.6"/>
<rect x="-189" y="221" width="18" height="4" fill="#004396"/>
<path d="M -189 221 L -189 225 M -171 221 L -171 225" fill="none" stroke="#001939" stroke-width="0.6"/>
<ellipse cx="-180" cy="221" rx="9" ry="4.5" fill="#0070FC" stroke="#001939" stroke-width="0.6"/>
<ellipse cx="-210" cy="240" rx="9" ry="4.5" fill="#004396" stroke="#001939" stroke-width="0.6"/>
<rect x="-219" y="236" width="18" height="4" fill="#004396"/>
<path d="M -219 236 L -219 240 M -201 236 L -201 240" fill="none" stroke="#001939" stroke-width="0.6"/>
<ellipse cx="-210" cy="236" rx="9" ry="4.5" fill="#0070FC" stroke="#001939" stroke-width="0.6"/>
<ellipse cx="-240" cy="255" rx="9" ry="4.5" fill="#004396" stroke="#001939" stroke-width="0.6"/>
<rect x="-249" y="251" width="18" height="4" fill="#004396"/>
<path d="M -249 251 L -249 255 M -231 251 L -231 255" fill="none" stroke="#001939" stroke-width="0.6"/>
<ellipse cx="-240" cy="251" rx="9" ry="4.5" fill="#0070FC" stroke="#001939" stroke-width="0.6"/>
<ellipse cx="-270" cy="270" rx="9" ry="4.5" fill="#004396" stroke="#001939" stroke-width="0.6"/>
<rect x="-279" y="266" width="18" height="4" fill="#004396"/>
<path d="M -279 266 L -279 270 M -261 266 L -261 270" fill="none" stroke="#001939" stroke-width="0.6"/>
<ellipse cx="-270" cy="266" rx="9" ry="4.5" fill="#0070FC" stroke="#001939" stroke-width="0.6"/>
<ellipse cx="-300" cy="285" rx="9" ry="4.5" fill="#004396" stroke="#001939" stroke-width="0.6"/>
<rect x="-309" y="281" width="18" height="4" fill="#004396"/>
<path d="M -309 281 L -309 285 M -291 281 L -291 285" fill="none" stroke="#001939" stroke-width="0.6"/>
<ellipse cx="-300" cy="281" rx="9" ry="4.5" fill="#0070FC" stroke="#001939" stroke-width="0.6"/>
<ellipse cx="-330" cy="300" rx="9" ry="4.5" fill="#004396" stroke="#001939" stroke-width="0.6"/>
<rect x="-339" y="296" width="18" height="4" fill="#004396"/>
<path d="M -339 296 L -339 300 M -321 296 L -321 300" fill="none" stroke="#001939" stroke-width="0.6"/>
<ellipse cx="-330" cy="296" rx="9" ry="4.5" fill="#0070FC" stroke="#001939" stroke-width="0.6"/>
<ellipse cx="150" cy="90" rx="9" ry="4.5" fill="#004396" stroke="#001939" stroke-width="0.6"/>
<rect x="141" y="86" width="18" height="4" fill="#004396"/>
<path d="M 141 86 L 141 90 M 159 86 L 159 90" fill="none" stroke="#001939" stroke-width="0.6"/>
<ellipse cx="150" cy="86" rx="9" ry="4.5" fill="#0070FC" stroke="#001939" stroke-width="0.6"/>
<ellipse cx="120" cy="105" rx="9" ry="4.5" fill="#004396" stroke="#001939" stroke-width="0.6"/>
<rect x="111" y="101" width="18" height="4" fill="#004396"/>
<path d="M 111 101 L 111 105 M 129 101 L 129 105" fill="none" stroke="#001939" stroke-width="0.6"/>
<ellipse cx="120" cy="101" rx="9" ry="4.5" fill="#0070FC" stroke="#001939" stroke-width="0.6"/>
<ellipse cx="90" cy="120" rx="9" ry="4.5" fill="#004396" stroke="#001939" stroke-width="0.6"/>
<rect x="81" y="116" width="18" height="4" fill="#004396"/>
<path d="M 81 116 L 81 120 M 99 116 L 99 120" fill="none" stroke="#001939" stroke-width="0.6"/>
<ellipse cx="90" cy="116" rx="9" ry="4.5" fill="#0070FC" stroke="#001939" stroke-width="0.6"/>
<ellipse cx="60" cy="135" rx="9" ry="4.5" fill="#004396" stroke="#001939" stroke-width="0.6"/>
<rect x="51" y="131" width="18" height="4" fill="#004396"/>
<path d="M 51 131 L 51 135 M 69 131 L 69 135" fill="none" stroke="#001939" stroke-width="0.6"/>
<ellipse cx="60" cy="131" rx="9" ry="4.5" fill="#0070FC" stroke="#001939" stroke-width="0.6"/>
<ellipse cx="30" cy="150" rx="9" ry="4.5" fill="#004396" stroke="#001939" stroke-width="0.6"/>
<rect x="21" y="146" width="18" height="4" fill="#004396"/>
<path d="M 21 146 L 21 150 M 39 146 L 39 150" fill="none" stroke="#001939" stroke-width="0.6"/>
<ellipse cx="30" cy="146" rx="9" ry="4.5" fill="#0070FC" stroke="#001939" stroke-width="0.6"/>
<ellipse cx="0" cy="165" rx="9" ry="4.5" fill="#004396" stroke="#001939" stroke-width="0.6"/>
<rect x="-9" y="161" width="18" height="4" fill="#004396"/>
<path d="M -9 161 L -9 165 M 9 161 L 9 165" fill="none" stroke="#001939" stroke-width="0.6"/>
<ellipse cx="0" cy="161" rx="9" ry="4.5" fill="#0070FC" stroke="#001939" stroke-width="0.6"/>
<ellipse cx="-30" cy="180" rx="9" ry="4.5" fill="#004396" stroke="#001939" stroke-width="0.6"/>
<rect x="-39" y="176" width="18" height="4" fill="#004396"/>
<path d="M -39 176 L -39 180 M -21 176 L -21 180" fill="none" stroke="#001939" stroke-width="0.6"/>
<ellipse cx="-30" cy="176" rx="9" ry="4.5" fill="#0070FC" stroke="#001939" stroke-width="0.6"/>
<ellipse cx="-60" cy="195" rx="9" ry="4.5" fill="#004396" stroke="#001939" stroke-width="0.6"/>
<rect x="-69" y="191" width="18" height="4" fill="#004396"/>
<path d="M -69 191 L -69 195 M -51 191 L -51 195" fill="none" stroke="#001939" stroke-width="0.6"/>
<ellipse cx="-60" cy="191" rx="9" ry="4.5" fill="#0070FC" stroke="#001939" stroke-width="0.6"/>
<ellipse cx="-90" cy="210" rx="9" ry="4.5" fill="#004396" stroke="#001939" stroke-width="0.6"/>
<rect x="-99" y="206" width="18" height="4" fill="#004396"/>
<path d="M -99 206 L -99 210 M -81 206 L -81 210" fill="none" stroke="#001939" stroke-width="0.6"/>
<ellipse cx="-90" cy="206" rx="9" ry="4.5" fill="#0070FC" stroke="#001939" stroke-width="0.6"/>
<ellipse cx="-120" cy="225" rx="9" ry="4.5" fill="#004396" stroke="#001939" stroke-width="0.6"/>
<rect x="-129" y="221" width="18" height="4" fill="#004396"/>
<path d="M -129 221 L -129 225 M -111 221 L -111 225" fill="none" stroke="#001939" stroke-width="0.6"/>
<ellipse cx="-120" cy="221" rx="9" ry="4.5" fill="#0070FC" stroke="#001939" stroke-width="0.6"/>
<ellipse cx="-150" cy="240" rx="9" ry="4.5" fill="#004396" stroke="#001939" stroke-width="0.6"/>
<rect x="-159" y="236" width="18" height="4" fill="#004396"/>
<path d="M -159 236 L -159 240 M -141 236 L -141 240" fill="none" stroke="#001939" stroke-width="0.6"/>
<ellipse cx="-150" cy="236" rx="9" ry="4.5" fill="#0070FC" stroke="#001939" stroke-width="0.6"/>
<ellipse cx="-180" cy="255" rx="9" ry="4.5" fill="#004396" stroke="#001939" stroke-width="0.6"/>
<rect x="-189" y="251" width="18" height="4" fill="#004396"/>
<path d="M -189 251 L -189 255 M -171 251 L -171 255" fill="none" stroke="#001939" stroke-width="0.6"/>
<ellipse cx="-180" cy="251" rx="9" ry="4.5" fill="#0070FC" stroke="#001939" stroke-width="0.6"/>
<ellipse cx="-210" cy="270" rx="9" ry="4.5" fill="#004396" stroke="#001939" stroke-width="0.6"/>
<rect x="-219" y="266" width="18" height="4" fill="#004396"/>
<path d="M -219 266 L -219 270 M -201 266 L -201 270" fill="none" stroke="#001939" stroke-width="0.6"/>
<ellipse cx="-210" cy="266" rx="9" ry="4.5" fill="#0070FC" stroke="#001939" stroke-width="0.6"/>
<ellipse cx="-240" cy="285" rx="9" ry="4.5" fill="#004396" stroke="#001939" stroke-width="0.6"/>
<rect x="-249" y="281" width="18" height="4" fill="#004396"/>
<path d="M -249 281 L -249 285 M -231 281 L -231 285" fill="none" stroke="#001939" stroke-width="0.6"/>
<ellipse cx="-240" cy="281" rx="9" ry="4.5" fill="#0070FC" stroke="#001939" stroke-width="0.6"/>
<ellipse cx="-270" cy="300" rx="9" ry="4.5" fill="#004396" stroke="#001939" stroke-width="0.6"/>
<rect x="-279" y="296" width="18" height="4" fill="#004396"/>
<path d="M -279 296 L -279 300 M -261 296 L -261 300" fill="none" stroke="#001939" stroke-width="0.6"/>
<ellipse cx="-270" cy="296" rx="9" ry="4.5" fill="#0070FC" stroke="#001939" stroke-width="0.6"/>
<ellipse cx="-300" cy="315" rx="9" ry="4.5" fill="#004396" stroke="#001939" stroke-width="0.6"/>
<rect x="-309" y="311" width="18" height="4" fill="#004396"/>
<path d="M -309 311 L -309 315 M -291 311 L -291 315" fill="none" stroke="#001939" stroke-width="0.6"/>
<ellipse cx="-300" cy="311" rx="9" ry="4.5" fill="#0070FC" stroke="#001939" stroke-width="0.6"/>
<ellipse cx="180" cy="105" rx="9" ry="4.5" fill="#004396" stroke="#001939" stroke-width="0.6"/>
<rect x="171" y="101" width="18" height="4" fill="#004396"/>
<path d="M 171 101 L 171 105 M 189 101 L 189 105" fill="none" stroke="#001939" stroke-width="0.6"/>
<ellipse cx="180" cy="101" rx="9" ry="4.5" fill="#0070FC" stroke="#001939" stroke-width="0.6"/>
<ellipse cx="150" cy="120" rx="9" ry="4.5" fill="#004396" stroke="#001939" stroke-width="0.6"/>
<rect x="141" y="116" width="18" height="4" fill="#004396"/>
<path d="M 141 116 L 141 120 M 159 116 L 159 120" fill="none" stroke="#001939" stroke-width="0.6"/>
<ellipse cx="150" cy="116" rx="9" ry="4.5" fill="#0070FC" stroke="#001939" stroke-width="0.6"/>
<ellipse cx="120" cy="135" rx="9" ry="4.5" fill="#004396" stroke="#001939" stroke-width="0.6"/>
<rect x="111" y="131" width="18" height="4" fill="#004396"/>
<path d="M 111 131 L 111 135 M 129 131 L 129 135" fill="none" stroke="#001939" stroke-width="0.6"/>
<ellipse cx="120" cy="131" rx="9" ry="4.5" fill="#0070FC" stroke="#001939" stroke-width="0.6"/>
<ellipse cx="90" cy="150" rx="9" ry="4.5" fill="#004396" stroke="#001939" stroke-width="0.6"/>
<rect x="81" y="146" width="18" height="4" fill="#004396"/>
<path d="M 81 146 L 81 150 M 99 146 L 99 150" fill="none" stroke="#001939" stroke-width="0.6"/>
<ellipse cx="90" cy="146" rx="9" ry="4.5" fill="#0070FC" stroke="#001939" stroke-width="0.6"/>
<ellipse cx="60" cy="165" rx="9" ry="4.5" fill="#004396" stroke="#001939" stroke-width="0.6"/>
<rect x="51" y="161" width="18" height="4" fill="#004396"/>
<path d="M 51 161 L 51 165 M 69 161 L 69 165" fill="none" stroke="#001939" stroke-width="0.6"/>
<ellipse cx="60" cy="161" rx="9" ry="4.5" fill="#0070FC" stroke="#001939" stroke-width="0.6"/>
<ellipse cx="30" cy="180" rx="9" ry="4.5" fill="#004396" stroke="#001939" stroke-width="0.6"/>
<rect x="21" y="176" width="18" height="4" fill="#004396"/>
<path d="M 21 176 L 21 180 M 39 176 L 39 180" fill="none" stroke="#001939" stroke-width="0.6"/>
<ellipse cx="30" cy="176" rx="9" ry="4.5" fill="#0070FC" stroke="#001939" stroke-width="0.6"/>
<ellipse cx="0" cy="195" rx="9" ry="4.5" fill="#004396" stroke="#001939" stroke-width="0.6"/>
<rect x="-9" y="191" width="18" height="4" fill="#004396"/>
<path d="M -9 191 L -9 195 M 9 191 L 9 195" fill="none" stroke="#001939" stroke-width="0.6"/>
<ellipse cx="0" cy="191" rx="9" ry="4.5" fill="#0070FC" stroke="#001939" stroke-width="0.6"/>
<ellipse cx="-30" cy="210" rx="9" ry="4.5" fill="#004396" stroke="#001939" stroke-width="0.6"/>
<rect x="-39" y="206" width="18" height="4" fill="#004396"/>
<path d="M -39 206 L -39 210 M -21 206 L -21 210" fill="none" stroke="#001939" stroke-width="0.6"/>
<ellipse cx="-30" cy="206" rx="9" ry="4.5" fill="#0070FC" stroke="#001939" stroke-width="0.6"/>
<ellipse cx="-60" cy="225" rx="9" ry="4.5" fill="#004396" stroke="#001939" stroke-width="0.6"/>
<rect x="-69" y="221" width="18" height="4" fill="#004396"/>
<path d="M -69 221 L -69 225 M -51 221 L -51 225" fill="none" stroke="#001939" stroke-width="0.6"/>
<ellipse cx="-60" cy="221" rx="9" ry="4.5" fill="#0070FC" stroke="#001939" stroke-width="0.6"/>
<ellipse cx="-90" cy="240" rx="9" ry="4.5" fill="#004396" stroke="#001939" stroke-width="0.6"/>
<rect x="-99" y="236" width="18" height="4" fill="#004396"/>
<path d="M -99 236 L -99 240 M -81 236 L -81 240" fill="none" stroke="#001939" stroke-width="0.6"/>
<ellipse cx="-90" cy="236" rx="9" ry="4.5" fill="#0070FC" stroke="#001939" stroke-width="0.6"/>
<ellipse cx="-120" cy="255" rx="9" ry="4.5" fill="#004396" stroke="#001939" stroke-width="0.6"/>
<rect x="-129" y="251" width="18" height="4" fill="#004396"/>
<path d="M -129 251 L -129 255 M -111 251 L -111 255" fill="none" stroke="#001939" stroke-width="0.6"/>
<ellipse cx="-120" cy="251" rx="9" ry="4.5" fill="#0070FC" stroke="#001939" stroke-width="0.6"/>
<ellipse cx="-150" cy="270" rx="9" ry="4.5" fill="#004396" stroke="#001939" stroke-width="0.6"/>
<rect x="-159" y="266" width="18" height="4" fill="#004396"/>
<path d="M -159 266 L -159 270 M -141 266 L -141 270" fill="none" stroke="#001939" stroke-width="0.6"/>
<ellipse cx="-150" cy="266" rx="9" ry="4.5" fill="#0070FC" stroke="#001939" stroke-width="0.6"/>
<ellipse cx="-180" cy="285" rx="9" ry="4.5" fill="#004396" stroke="#001939" stroke-width="0.6"/>
<rect x="-189" y="281" width="18" height="4" fill="#004396"/>
<path d="M -189 281 L -189 285 M -171 281 L -171 285" fill="none" stroke="#001939" stroke-width="0.6"/>
<ellipse cx="-180" cy="281" rx="9" ry="4.5" fill="#0070FC" stroke="#001939" stroke-width="0.6"/>
<ellipse cx="-210" cy="300" rx="9" ry="4.5" fill="#004396" stroke="#001939" stroke-width="0.6"/>
<rect x="-219" y="296" width="18" height="4" fill="#004396"/>
<path d="M -219 296 L -219 300 M -201 296 L -201 300" fill="none" stroke="#001939" stroke-width="0.6"/>
<ellipse cx="-210" cy="296" rx="9" ry="4.5" fill="#0070FC" stroke="#001939" stroke-width="0.6"/>
<ellipse cx="-240" cy="315" rx="9" ry="4.5" fill="#004396" stroke="#001939" stroke-width="0.6"/>
<rect x="-249" y="311" width="18" height="4" fill="#004396"/>
<path d="M -249 311 L -249 315 M -231 311 L -231 315" fill="none" stroke="#001939" stroke-width="0.6"/>
<ellipse cx="-240" cy="311" rx="9" ry="4.5" fill="#0070FC" stroke="#001939" stroke-width="0.6"/>
<ellipse cx="-270" cy="330" rx="9" ry="4.5" fill="#004396" stroke="#001939" stroke-width="0.6"/>
<rect x="-279" y="326" width="18" height="4" fill="#004396"/>
<path d="M -279 326 L -279 330 M -261 326 L -261 330" fill="none" stroke="#001939" stroke-width="0.6"/>
<ellipse cx="-270" cy="326" rx="9" ry="4.5" fill="#0070FC" stroke="#001939" stroke-width="0.6"/>
<ellipse cx="210" cy="120" rx="9" ry="4.5" fill="#004396" stroke="#001939" stroke-width="0.6"/>
<rect x="201" y="116" width="18" height="4" fill="#004396"/>
<path d="M 201 116 L 201 120 M 219 116 L 219 120" fill="none" stroke="#001939" stroke-width="0.6"/>
<ellipse cx="210" cy="116" rx="9" ry="4.5" fill="#0070FC" stroke="#001939" stroke-width="0.6"/>
<ellipse cx="180" cy="135" rx="9" ry="4.5" fill="#004396" stroke="#001939" stroke-width="0.6"/>
<rect x="171" y="131" width="18" height="4" fill="#004396"/>
<path d="M 171 131 L 171 135 M 189 131 L 189 135" fill="none" stroke="#001939" stroke-width="0.6"/>
<ellipse cx="180" cy="131" rx="9" ry="4.5" fill="#0070FC" stroke="#001939" stroke-width="0.6"/>
<ellipse cx="150" cy="150" rx="9" ry="4.5" fill="#004396" stroke="#001939" stroke-width="0.6"/>
<rect x="141" y="146" width="18" height="4" fill="#004396"/>
<path d="M 141 146 L 141 150 M 159 146 L 159 150" fill="none" stroke="#001939" stroke-width="0.6"/>
<ellipse cx="150" cy="146" rx="9" ry="4.5" fill="#0070FC" stroke="#001939" stroke-width="0.6"/>
<ellipse cx="120" cy="165" rx="9" ry="4.5" fill="#004396" stroke="#001939" stroke-width="0.6"/>
<rect x="111" y="161" width="18" height="4" fill="#004396"/>
<path d="M 111 161 L 111 165 M 129 161 L 129 165" fill="none" stroke="#001939" stroke-width="0.6"/>
<ellipse cx="120" cy="161" rx="9" ry="4.5" fill="#0070FC" stroke="#001939" stroke-width="0.6"/>
<ellipse cx="90" cy="180" rx="9" ry="4.5" fill="#004396" stroke="#001939" stroke-width="0.6"/>
<rect x="81" y="176" width="18" height="4" fill="#004396"/>
<path d="M 81 176 L 81 180 M 99 176 L 99 180" fill="none" stroke="#001939" stroke-width="0.6"/>
<ellipse cx="90" cy="176" rx="9" ry="4.5" fill="#0070FC" stroke="#001939" stroke-width="0.6"/>
<ellipse cx="60" cy="195" rx="9" ry="4.5" fill="#004396" stroke="#001939" stroke-width="0.6"/>
<rect x="51" y="191" width="18" height="4" fill="#004396"/>
<path d="M 51 191 L 51 195 M 69 191 L 69 195" fill="none" stroke="#001939" stroke-width="0.6"/>
<ellipse cx="60" cy="191" rx="9" ry="4.5" fill="#0070FC" stroke="#001939" stroke-width="0.6"/>
<ellipse cx="30" cy="210" rx="9" ry="4.5" fill="#004396" stroke="#001939" stroke-width="0.6"/>
<rect x="21" y="206" width="18" height="4" fill="#004396"/>
<path d="M 21 206 L 21 210 M 39 206 L 39 210" fill="none" stroke="#001939" stroke-width="0.6"/>
<ellipse cx="30" cy="206" rx="9" ry="4.5" fill="#0070FC" stroke="#001939" stroke-width="0.6"/>
<ellipse cx="0" cy="225" rx="9" ry="4.5" fill="#004396" stroke="#001939" stroke-width="0.6"/>
<rect x="-9" y="221" width="18" height="4" fill="#004396"/>
<path d="M -9 221 L -9 225 M 9 221 L 9 225" fill="none" stroke="#001939" stroke-width="0.6"/>
<ellipse cx="0" cy="221" rx="9" ry="4.5" fill="#0070FC" stroke="#001939" stroke-width="0.6"/>
<ellipse cx="-30" cy="240" rx="9" ry="4.5" fill="#004396" stroke="#001939" stroke-width="0.6"/>
<rect x="-39" y="236" width="18" height="4" fill="#004396"/>
<path d="M -39 236 L -39 240 M -21 236 L -21 240" fill="none" stroke="#001939" stroke-width="0.6"/>
<ellipse cx="-30" cy="236" rx="9" ry="4.5" fill="#0070FC" stroke="#001939" stroke-width="0.6"/>
<ellipse cx="-60" cy="255" rx="9" ry="4.5" fill="#004396" stroke="#001939" stroke-width="0.6"/>
<rect x="-69" y="251" width="18" height="4" fill="#004396"/>
<path d="M -69 251 L -69 255 M -51 251 L -51 255" fill="none" stroke="#001939" stroke-width="0.6"/>
<ellipse cx="-60" cy="251" rx="9" ry="4.5" fill="#0070FC" stroke="#001939" stroke-width="0.6"/>
<ellipse cx="-90" cy="270" rx="9" ry="4.5" fill="#004396" stroke="#001939" stroke-width="0.6"/>
<rect x="-99" y="266" width="18" height="4" fill="#004396"/>
<path d="M -99 266 L -99 270 M -81 266 L -81 270" fill="none" stroke="#001939" stroke-width="0.6"/>
<ellipse cx="-90" cy="266" rx="9" ry="4.5" fill="#0070FC" stroke="#001939" stroke-width="0.6"/>
<ellipse cx="-120" cy="285" rx="9" ry="4.5" fill="#004396" stroke="#001939" stroke-width="0.6"/>
<rect x="-129" y="281" width="18" height="4" fill="#004396"/>
<path d="M -129 281 L -129 285 M -111 281 L -111 285" fill="none" stroke="#001939" stroke-width="0.6"/>
<ellipse cx="-120" cy="281" rx="9" ry="4.5" fill="#0070FC" stroke="#001939" stroke-width="0.6"/>
<ellipse cx="-150" cy="300" rx="9" ry="4.5" fill="#004396" stroke="#001939" stroke-width="0.6"/>
<rect x="-159" y="296" width="18" height="4" fill="#004396"/>
<path d="M -159 296 L -159 300 M -141 296 L -141 300" fill="none" stroke="#001939" stroke-width="0.6"/>
<ellipse cx="-150" cy="296" rx="9" ry="4.5" fill="#0070FC" stroke="#001939" stroke-width="0.6"/>
<ellipse cx="-180" cy="315" rx="9" ry="4.5" fill="#004396" stroke="#001939" stroke-width="0.6"/>
<rect x="-189" y="311" width="18" height="4" fill="#004396"/>
<path d="M -189 311 L -189 315 M -171 311 L -171 315" fill="none" stroke="#001939" stroke-width="0.6"/>
<ellipse cx="-180" cy="311" rx="9" ry="4.5" fill="#0070FC" stroke="#001939" stroke-width="0.6"/>
<ellipse cx="-210" cy="330" rx="9" ry="4.5" fill="#004396" stroke="#001939" stroke-width="0.6"/>
<rect x="-219" y="326" width="18" height="4" fill="#004396"/>
<path d="M -219 326 L -219 330 M -201 326 L -201 330" fill="none" stroke="#001939" stroke-width="0.6"/>
<ellipse cx="-210" cy="326" rx="9" ry="4.5" fill="#0070FC" stroke="#001939" stroke-width="0.6"/>
<ellipse cx="-240" cy="345" rx="9" ry="4.5" fill="#004396" stroke="#001939" stroke-width="0.6"/>
<rect x="-249" y="341" width="18" height="4" fill="#004396"/>
<path d="M -249 341 L -249 345 M -231 341 L -231 345" fill="none" stroke="#001939" stroke-width="0.6"/>
<ellipse cx="-240" cy="341" rx="9" ry="4.5" fill="#0070FC" stroke="#001939" stroke-width="0.6"/>
</svg>
