<svg xmlns="http://www.w3.org/2000/svg" viewBox="-4 -4 488 488" role="img" aria-label="plate-16x16 black (top-down)">
<title>plate-16x16 black (top-down)</title>
<rect x="0" y="0" width="480" height="480" rx="2" fill="#141820" stroke="#000000" stroke-width="0.6"/>
<circle cx="15" cy="15" r="9" fill="#2B3240" stroke="#000000" stroke-width="0.6"/>
<circle cx="15" cy="45" r="9" fill="#2B3240" stroke="#000000" stroke-width="0.6"/>
<circle cx="15" cy="75" r="9" fill="#2B3240" stroke="#000000" stroke-width="0.6"/>
<circle cx="15" cy="105" r="9" fill="#2B3240" stroke="#000000" stroke-width="0.6"/>
<circle cx="15" cy="135" r="9" fill="#2B3240" stroke="#000000" stroke-width="0.6"/>
<circle cx="15" cy="165" r="9" fill="#2B3240" stroke="#000000" stroke-width="0.6"/>
<circle cx="15" cy="195" r="9" fill="#2B3240" stroke="#000000" stroke-width="0.6"/>
<circle cx="15" cy="225" r="9" fill="#2B3240" stroke="#000000" stroke-width="0.6"/>
<circle cx="15" cy="255" r="9" fill="#2B3240" stroke="#000000" stroke-width="0.6"/>
<circle cx="15" cy="285" r="9" fill="#2B3240" stroke="#000000" stroke-width="0.6"/>
<circle cx="15" cy="315" r="9" fill="#2B3240" stroke="#000000" stroke-width="0.6"/>
<circle cx="15" cy="345" r="9" fill="#2B3240" stroke="#000000" stroke-width="0.6"/>
<circle cx="15" cy="375" r="9" fill="#2B3240" stroke="#000000" stroke-width="0.6"/>
<circle cx="15" cy="405" r="9" fill="#2B3240" stroke="#000000" stroke-width="0.6"/>
<circle cx="15" cy="435" r="9" fill="#2B3240" stroke="#000000" stroke-width="0.6"/>
<circle cx="15" cy="465" r="9" fill="#2B3240" stroke="#000000" stroke-width="0.6"/>
<circle cx="45" cy="15" r="9" fill="#2B3240" stroke="#000000" stroke-width="0.6"/>
<circle cx="45" cy="45" r="9" fill="#2B3240" stroke="#000000" stroke-width="0.6"/>
<circle cx="45" cy="75" r="9" fill="#2B3240" stroke="#000000" stroke-width="0.6"/>
<circle cx="45" cy="105" r="9" fill="#2B3240" stroke="#000000" stroke-width="0.6"/>
<circle cx="45" cy="135" r="9" fill="#2B3240" stroke="#000000" stroke-width="0.6"/>
<circle cx="45" cy="165" r="9" fill="#2B3240" stroke="#000000" stroke-width="0.6"/>
<circle cx="45" cy="195" r="9" fill="#2B3240" stroke="#000000" stroke-width="0.6"/>
<circle cx="45" cy="225" r="9" fill="#2B3240" stroke="#000000" stroke-width="0.6"/>
<circle cx="45" cy="255" r="9" fill="#2B3240" stroke="#000000" stroke-width="0.6"/>
<circle cx="45" cy="285" r="9" fill="#2B3240" stroke="#000000" stroke-width="0.6"/>
<circle cx="45" cy="315" r="9" fill="#2B3240" stroke="#000000" stroke-width="0.6"/>
<circle cx="45" cy="345" r="9" fill="#2B3240" stroke="#000000" stroke-width="0.6"/>
<circle cx="45" cy="375" r="9" fill="#2B3240" stroke="#000000" stroke-width="0.6"/>
<circle cx="45" cy="405" r="9" fill="#2B3240" stroke="#000000" stroke-width="0.6"/>
<circle cx="45" cy="435" r="9" fill="#2B3240" stroke="#000000" stroke-width="0.6"/>
<circle cx="45" cy="465" r="9" fill="#2B3240" stroke="#000000" stroke-width="0.6"/>
<circle cx="75" cy="15" r="9" fill="#2B3240" stroke="#000000" stroke-width="0.6"/>
<circle cx="75" cy="45" r="9" fill="#2B3240" stroke="#000000" stroke-width="0.6"/>
<circle cx="75" cy="75" r="9" fill="#2B3240" stroke="#000000" stroke-width="0.6"/>
<circle cx="75" cy="105" r="9" fill="#2B3240" stroke="#000000" stroke-width="0.6"/>
<circle cx="75" cy="135" r="9" fill="#2B3240" stroke="#000000" stroke-width="0.6"/>
<circle cx="75" cy="165" r="9" fill="#2B3240" stroke="#000000" stroke-width="0.6"/>
<circle cx="75" cy="195" r="9" fill="#2B3240" stroke="#000000" stroke-width="0.6"/>
<circle cx="75" cy="225" r="9" fill="#2B3240" stroke="#000000" stroke-width="0.6"/>
<circle cx="75" cy="255" r="9" fill="#2B3240" stroke="#000000" stroke-width="0.6"/>
<circle cx="75" cy="285" r="9" fill="#2B3240" stroke="#000000" stroke-width="0.6"/>
<circle cx="75" cy="315" r="9" fill="#2B3240" stroke="#000000" stroke-width="0.6"/>
<circle cx="75" cy="345" r="9" fill="#2B3240" stroke="#000000" stroke-width="0.6"/>
<circle cx="75" cy="375" r="9" fill="#2B3240" stroke="#000000" stroke-width="0.6"/>
<circle cx="75" cy="405" r="9" fill="#2B3240" stroke="#000000" stroke-width="0.6"/>
<circle cx="75" cy="435" r="9" fill="#2B3240" stroke="#000000" stroke-width="0.6"/>
<circle cx="75" cy="465" r="9" fill="#2B3240" stroke="#000000" stroke-width="0.6"/>
<circle cx="105" cy="15" r="9" fill="#2B3240" stroke="#000000" stroke-width="0.6"/>
<circle cx="105" cy="45" r="9" fill="#2B3240" stroke="#000000" stroke-width="0.6"/>
<circle cx="105" cy="75" r="9" fill="#2B3240" stroke="#000000" stroke-width="0.6"/>
<circle cx="105" cy="105" r="9" fill="#2B3240" stroke="#000000" stroke-width="0.6"/>
<circle cx="105" cy="135" r="9" fill="#2B3240" stroke="#000000" stroke-width="0.6"/>
<circle cx="105" cy="165" r="9" fill="#2B3240" stroke="#000000" stroke-width="0.6"/>
<circle cx="105" cy="195" r="9" fill="#2B3240" stroke="#000000" stroke-width="0.6"/>
<circle cx="105" cy="225" r="9" fill="#2B3240" stroke="#000000" stroke-width="0.6"/>
<circle cx="105" cy="255" r="9" fill="#2B3240" stroke="#000000" stroke-width="0.6"/>
<circle cx="105" cy="285" r="9" fill="#2B3240" stroke="#000000" stroke-width="0.6"/>
<circle cx="105" cy="315" r="9" fill="#2B3240" stroke="#000000" stroke-width="0.6"/>
<circle cx="105" cy="345" r="9" fill="#2B3240" stroke="#000000" stroke-width="0.6"/>
<circle cx="105" cy="375" r="9" fill="#2B3240" stroke="#000000" stroke-width="0.6"/>
<circle cx="105" cy="405" r="9" fill="#2B3240" stroke="#000000" stroke-width="0.6"/>
<circle cx="105" cy="435" r="9" fill="#2B3240" stroke="#000000" stroke-width="0.6"/>
<circle cx="105" cy="465" r="9" fill="#2B3240" stroke="#000000" stroke-width="0.6"/>
<circle cx="135" cy="15" r="9" fill="#2B3240" stroke="#000000" stroke-width="0.6"/>
<circle cx="135" cy="45" r="9" fill="#2B3240" stroke="#000000" stroke-width="0.6"/>
<circle cx="135" cy="75" r="9" fill="#2B3240" stroke="#000000" stroke-width="0.6"/>
<circle cx="135" cy="105" r="9" fill="#2B3240" stroke="#000000" stroke-width="0.6"/>
<circle cx="135" cy="135" r="9" fill="#2B3240" stroke="#000000" stroke-width="0.6"/>
<circle cx="135" cy="165" r="9" fill="#2B3240" stroke="#000000" stroke-width="0.6"/>
<circle cx="135" cy="195" r="9" fill="#2B3240" stroke="#000000" stroke-width="0.6"/>
<circle cx="135" cy="225" r="9" fill="#2B3240" stroke="#000000" stroke-width="0.6"/>
<circle cx="135" cy="255" r="9" fill="#2B3240" stroke="#000000" stroke-width="0.6"/>
<circle cx="135" cy="285" r="9" fill="#2B3240" stroke="#000000" stroke-width="0.6"/>
<circle cx="135" cy="315" r="9" fill="#2B3240" stroke="#000000" stroke-width="0.6"/>
<circle cx="135" cy="345" r="9" fill="#2B3240" stroke="#000000" stroke-width="0.6"/>
<circle cx="135" cy="375" r="9" fill="#2B3240" stroke="#000000" stroke-width="0.6"/>
<circle cx="135" cy="405" r="9" fill="#2B3240" stroke="#000000" stroke-width="0.6"/>
<circle cx="135" cy="435" r="9" fill="#2B3240" stroke="#000000" stroke-width="0.6"/>
<circle cx="135" cy="465" r="9" fill="#2B3240" stroke="#000000" stroke-width="0.6"/>
<circle cx="165" cy="15" r="9" fill="#2B3240" stroke="#000000" stroke-width="0.6"/>
<circle cx="165" cy="45" r="9" fill="#2B3240" stroke="#000000" stroke-width="0.6"/>
<circle cx="165" cy="75" r="9" fill="#2B3240" stroke="#000000" stroke-width="0.6"/>
<circle cx="165" cy="105" r="9" fill="#2B3240" stroke="#000000" stroke-width="0.6"/>
<circle cx="165" cy="135" r="9" fill="#2B3240" stroke="#000000" stroke-width="0.6"/>
<circle cx="165" cy="165" r="9" fill="#2B3240" stroke="#000000" stroke-width="0.6"/>
<circle cx="165" cy="195" r="9" fill="#2B3240" stroke="#000000" stroke-width="0.6"/>
<circle cx="165" cy="225" r="9" fill="#2B3240" stroke="#000000" stroke-width="0.6"/>
<circle cx="165" cy="255" r="9" fill="#2B3240" stroke="#000000" stroke-width="0.6"/>
<circle cx="165" cy="285" r="9" fill="#2B3240" stroke="#000000" stroke-width="0.6"/>
<circle cx="165" cy="315" r="9" fill="#2B3240" stroke="#000000" stroke-width="0.6"/>
<circle cx="165" cy="345" r="9" fill="#2B3240" stroke="#000000" stroke-width="0.6"/>
<circle cx="165" cy="375" r="9" fill="#2B3240" stroke="#000000" stroke-width="0.6"/>
<circle cx="165" cy="405" r="9" fill="#2B3240" stroke="#000000" stroke-width="0.6"/>
<circle cx="165" cy="435" r="9" fill="#2B3240" stroke="#000000" stroke-width="0.6"/>
<circle cx="165" cy="465" r="9" fill="#2B3240" stroke="#000000" stroke-width="0.6"/>
<circle cx="195" cy="15" r="9" fill="#2B3240" stroke="#000000" stroke-width="0.6"/>
<circle cx="195" cy="45" r="9" fill="#2B3240" stroke="#000000" stroke-width="0.6"/>
<circle cx="195" cy="75" r="9" fill="#2B3240" stroke="#000000" stroke-width="0.6"/>
<circle cx="195" cy="105" r="9" fill="#2B3240" stroke="#000000" stroke-width="0.6"/>
<circle cx="195" cy="135" r="9" fill="#2B3240" stroke="#000000" stroke-width="0.6"/>
<circle cx="195" cy="165" r="9" fill="#2B3240" stroke="#000000" stroke-width="0.6"/>
<circle cx="195" cy="195" r="9" fill="#2B3240" stroke="#000000" stroke-width="0.6"/>
<circle cx="195" cy="225" r="9" fill="#2B3240" stroke="#000000" stroke-width="0.6"/>
<circle cx="195" cy="255" r="9" fill="#2B3240" stroke="#000000" stroke-width="0.6"/>
<circle cx="195" cy="285" r="9" fill="#2B3240" stroke="#000000" stroke-width="0.6"/>
<circle cx="195" cy="315" r="9" fill="#2B3240" stroke="#000000" stroke-width="0.6"/>
<circle cx="195" cy="345" r="9" fill="#2B3240" stroke="#000000" stroke-width="0.6"/>
<circle cx="195" cy="375" r="9" fill="#2B3240" stroke="#000000" stroke-width="0.6"/>
<circle cx="195" cy="405" r="9" fill="#2B3240" stroke="#000000" stroke-width="0.6"/>
<circle cx="195" cy="435" r="9" fill="#2B3240" stroke="#000000" stroke-width="0.6"/>
<circle cx="195" cy="465" r="9" fill="#2B3240" stroke="#000000" stroke-width="0.6"/>
<circle cx="225" cy="15" r="9" fill="#2B3240" stroke="#000000" stroke-width="0.6"/>
<circle cx="225" cy="45" r="9" fill="#2B3240" stroke="#000000" stroke-width="0.6"/>
<circle cx="225" cy="75" r="9" fill="#2B3240" stroke="#000000" stroke-width="0.6"/>
<circle cx="225" cy="105" r="9" fill="#2B3240" stroke="#000000" stroke-width="0.6"/>
<circle cx="225" cy="135" r="9" fill="#2B3240" stroke="#000000" stroke-width="0.6"/>
<circle cx="225" cy="165" r="9" fill="#2B3240" stroke="#000000" stroke-width="0.6"/>
<circle cx="225" cy="195" r="9" fill="#2B3240" stroke="#000000" stroke-width="0.6"/>
<circle cx="225" cy="225" r="9" fill="#2B3240" stroke="#000000" stroke-width="0.6"/>
<circle cx="225" cy="255" r="9" fill="#2B3240" stroke="#000000" stroke-width="0.6"/>
<circle cx="225" cy="285" r="9" fill="#2B3240" stroke="#000000" stroke-width="0.6"/>
<circle cx="225" cy="315" r="9" fill="#2B3240" stroke="#000000" stroke-width="0.6"/>
<circle cx="225" cy="345" r="9" fill="#2B3240" stroke="#000000" stroke-width="0.6"/>
<circle cx="225" cy="375" r="9" fill="#2B3240" stroke="#000000" stroke-width="0.6"/>
<circle cx="225" cy="405" r="9" fill="#2B3240" stroke="#000000" stroke-width="0.6"/>
<circle cx="225" cy="435" r="9" fill="#2B3240" stroke="#000000" stroke-width="0.6"/>
<circle cx="225" cy="465" r="9" fill="#2B3240" stroke="#000000" stroke-width="0.6"/>
<circle cx="255" cy="15" r="9" fill="#2B3240" stroke="#000000" stroke-width="0.6"/>
<circle cx="255" cy="45" r="9" fill="#2B3240" stroke="#000000" stroke-width="0.6"/>
<circle cx="255" cy="75" r="9" fill="#2B3240" stroke="#000000" stroke-width="0.6"/>
<circle cx="255" cy="105" r="9" fill="#2B3240" stroke="#000000" stroke-width="0.6"/>
<circle cx="255" cy="135" r="9" fill="#2B3240" stroke="#000000" stroke-width="0.6"/>
<circle cx="255" cy="165" r="9" fill="#2B3240" stroke="#000000" stroke-width="0.6"/>
<circle cx="255" cy="195" r="9" fill="#2B3240" stroke="#000000" stroke-width="0.6"/>
<circle cx="255" cy="225" r="9" fill="#2B3240" stroke="#000000" stroke-width="0.6"/>
<circle cx="255" cy="255" r="9" fill="#2B3240" stroke="#000000" stroke-width="0.6"/>
<circle cx="255" cy="285" r="9" fill="#2B3240" stroke="#000000" stroke-width="0.6"/>
<circle cx="255" cy="315" r="9" fill="#2B3240" stroke="#000000" stroke-width="0.6"/>
<circle cx="255" cy="345" r="9" fill="#2B3240" stroke="#000000" stroke-width="0.6"/>
<circle cx="255" cy="375" r="9" fill="#2B3240" stroke="#000000" stroke-width="0.6"/>
<circle cx="255" cy="405" r="9" fill="#2B3240" stroke="#000000" stroke-width="0.6"/>
<circle cx="255" cy="435" r="9" fill="#2B3240" stroke="#000000" stroke-width="0.6"/>
<circle cx="255" cy="465" r="9" fill="#2B3240" stroke="#000000" stroke-width="0.6"/>
<circle cx="285" cy="15" r="9" fill="#2B3240" stroke="#000000" stroke-width="0.6"/>
<circle cx="285" cy="45" r="9" fill="#2B3240" stroke="#000000" stroke-width="0.6"/>
<circle cx="285" cy="75" r="9" fill="#2B3240" stroke="#000000" stroke-width="0.6"/>
<circle cx="285" cy="105" r="9" fill="#2B3240" stroke="#000000" stroke-width="0.6"/>
<circle cx="285" cy="135" r="9" fill="#2B3240" stroke="#000000" stroke-width="0.6"/>
<circle cx="285" cy="165" r="9" fill="#2B3240" stroke="#000000" stroke-width="0.6"/>
<circle cx="285" cy="195" r="9" fill="#2B3240" stroke="#000000" stroke-width="0.6"/>
<circle cx="285" cy="225" r="9" fill="#2B3240" stroke="#000000" stroke-width="0.6"/>
<circle cx="285" cy="255" r="9" fill="#2B3240" stroke="#000000" stroke-width="0.6"/>
<circle cx="285" cy="285" r="9" fill="#2B3240" stroke="#000000" stroke-width="0.6"/>
<circle cx="285" cy="315" r="9" fill="#2B3240" stroke="#000000" stroke-width="0.6"/>
<circle cx="285" cy="345" r="9" fill="#2B3240" stroke="#000000" stroke-width="0.6"/>
<circle cx="285" cy="375" r="9" fill="#2B3240" stroke="#000000" stroke-width="0.6"/>
<circle cx="285" cy="405" r="9" fill="#2B3240" stroke="#000000" stroke-width="0.6"/>
<circle cx="285" cy="435" r="9" fill="#2B3240" stroke="#000000" stroke-width="0.6"/>
<circle cx="285" cy="465" r="9" fill="#2B3240" stroke="#000000" stroke-width="0.6"/>
<circle cx="315" cy="15" r="9" fill="#2B3240" stroke="#000000" stroke-width="0.6"/>
<circle cx="315" cy="45" r="9" fill="#2B3240" stroke="#000000" stroke-width="0.6"/>
<circle cx="315" cy="75" r="9" fill="#2B3240" stroke="#000000" stroke-width="0.6"/>
<circle cx="315" cy="105" r="9" fill="#2B3240" stroke="#000000" stroke-width="0.6"/>
<circle cx="315" cy="135" r="9" fill="#2B3240" stroke="#000000" stroke-width="0.6"/>
<circle cx="315" cy="165" r="9" fill="#2B3240" stroke="#000000" stroke-width="0.6"/>
<circle cx="315" cy="195" r="9" fill="#2B3240" stroke="#000000" stroke-width="0.6"/>
<circle cx="315" cy="225" r="9" fill="#2B3240" stroke="#000000" stroke-width="0.6"/>
<circle cx="315" cy="255" r="9" fill="#2B3240" stroke="#000000" stroke-width="0.6"/>
<circle cx="315" cy="285" r="9" fill="#2B3240" stroke="#000000" stroke-width="0.6"/>
<circle cx="315" cy="315" r="9" fill="#2B3240" stroke="#000000" stroke-width="0.6"/>
<circle cx="315" cy="345" r="9" fill="#2B3240" stroke="#000000" stroke-width="0.6"/>
<circle cx="315" cy="375" r="9" fill="#2B3240" stroke="#000000" stroke-width="0.6"/>
<circle cx="315" cy="405" r="9" fill="#2B3240" stroke="#000000" stroke-width="0.6"/>
<circle cx="315" cy="435" r="9" fill="#2B3240" stroke="#000000" stroke-width="0.6"/>
<circle cx="315" cy="465" r="9" fill="#2B3240" stroke="#000000" stroke-width="0.6"/>
<circle cx="345" cy="15" r="9" fill="#2B3240" stroke="#000000" stroke-width="0.6"/>
<circle cx="345" cy="45" r="9" fill="#2B3240" stroke="#000000" stroke-width="0.6"/>
<circle cx="345" cy="75" r="9" fill="#2B3240" stroke="#000000" stroke-width="0.6"/>
<circle cx="345" cy="105" r="9" fill="#2B3240" stroke="#000000" stroke-width="0.6"/>
<circle cx="345" cy="135" r="9" fill="#2B3240" stroke="#000000" stroke-width="0.6"/>
<circle cx="345" cy="165" r="9" fill="#2B3240" stroke="#000000" stroke-width="0.6"/>
<circle cx="345" cy="195" r="9" fill="#2B3240" stroke="#000000" stroke-width="0.6"/>
<circle cx="345" cy="225" r="9" fill="#2B3240" stroke="#000000" stroke-width="0.6"/>
<circle cx="345" cy="255" r="9" fill="#2B3240" stroke="#000000" stroke-width="0.6"/>
<circle cx="345" cy="285" r="9" fill="#2B3240" stroke="#000000" stroke-width="0.6"/>
<circle cx="345" cy="315" r="9" fill="#2B3240" stroke="#000000" stroke-width="0.6"/>
<circle cx="345" cy="345" r="9" fill="#2B3240" stroke="#000000" stroke-width="0.6"/>
<circle cx="345" cy="375" r="9" fill="#2B3240" stroke="#000000" stroke-width="0.6"/>
<circle cx="345" cy="405" r="9" fill="#2B3240" stroke="#000000" stroke-width="0.6"/>
<circle cx="345" cy="435" r="9" fill="#2B3240" stroke="#000000" stroke-width="0.6"/>
<circle cx="345" cy="465" r="9" fill="#2B3240" stroke="#000000" stroke-width="0.6"/>
<circle cx="375" cy="15" r="9" fill="#2B3240" stroke="#000000" stroke-width="0.6"/>
<circle cx="375" cy="45" r="9" fill="#2B3240" stroke="#000000" stroke-width="0.6"/>
<circle cx="375" cy="75" r="9" fill="#2B3240" stroke="#000000" stroke-width="0.6"/>
<circle cx="375" cy="105" r="9" fill="#2B3240" stroke="#000000" stroke-width="0.6"/>
<circle cx="375" cy="135" r="9" fill="#2B3240" stroke="#000000" stroke-width="0.6"/>
<circle cx="375" cy="165" r="9" fill="#2B3240" stroke="#000000" stroke-width="0.6"/>
<circle cx="375" cy="195" r="9" fill="#2B3240" stroke="#000000" stroke-width="0.6"/>
<circle cx="375" cy="225" r="9" fill="#2B3240" stroke="#000000" stroke-width="0.6"/>
<circle cx="375" cy="255" r="9" fill="#2B3240" stroke="#000000" stroke-width="0.6"/>
<circle cx="375" cy="285" r="9" fill="#2B3240" stroke="#000000" stroke-width="0.6"/>
<circle cx="375" cy="315" r="9" fill="#2B3240" stroke="#000000" stroke-width="0.6"/>
<circle cx="375" cy="345" r="9" fill="#2B3240" stroke="#000000" stroke-width="0.6"/>
<circle cx="375" cy="375" r="9" fill="#2B3240" stroke="#000000" stroke-width="0.6"/>
<circle cx="375" cy="405" r="9" fill="#2B3240" stroke="#000000" stroke-width="0.6"/>
<circle cx="375" cy="435" r="9" fill="#2B3240" stroke="#000000" stroke-width="0.6"/>
<circle cx="375" cy="465" r="9" fill="#2B3240" stroke="#000000" stroke-width="0.6"/>
<circle cx="405" cy="15" r="9" fill="#2B3240" stroke="#000000" stroke-width="0.6"/>
<circle cx="405" cy="45" r="9" fill="#2B3240" stroke="#000000" stroke-width="0.6"/>
<circle cx="405" cy="75" r="9" fill="#2B3240" stroke="#000000" stroke-width="0.6"/>
<circle cx="405" cy="105" r="9" fill="#2B3240" stroke="#000000" stroke-width="0.6"/>
<circle cx="405" cy="135" r="9" fill="#2B3240" stroke="#000000" stroke-width="0.6"/>
<circle cx="405" cy="165" r="9" fill="#2B3240" stroke="#000000" stroke-width="0.6"/>
<circle cx="405" cy="195" r="9" fill="#2B3240" stroke="#000000" stroke-width="0.6"/>
<circle cx="405" cy="225" r="9" fill="#2B3240" stroke="#000000" stroke-width="0.6"/>
<circle cx="405" cy="255" r="9" fill="#2B3240" stroke="#000000" stroke-width="0.6"/>
<circle cx="405" cy="285" r="9" fill="#2B3240" stroke="#000000" stroke-width="0.6"/>
<circle cx="405" cy="315" r="9" fill="#2B3240" stroke="#000000" stroke-width="0.6"/>
<circle cx="405" cy="345" r="9" fill="#2B3240" stroke="#000000" stroke-width="0.6"/>
<circle cx="405" cy="375" r="9" fill="#2B3240" stroke="#000000" stroke-width="0.6"/>
<circle cx="405" cy="405" r="9" fill="#2B3240" stroke="#000000" stroke-width="0.6"/>
<circle cx="405" cy="435" r="9" fill="#2B3240" stroke="#000000" stroke-width="0.6"/>
<circle cx="405" cy="465" r="9" fill="#2B3240" stroke="#000000" stroke-width="0.6"/>
<circle cx="435" cy="15" r="9" fill="#2B3240" stroke="#000000" stroke-width="0.6"/>
<circle cx="435" cy="45" r="9" fill="#2B3240" stroke="#000000" stroke-width="0.6"/>
<circle cx="435" cy="75" r="9" fill="#2B3240" stroke="#000000" stroke-width="0.6"/>
<circle cx="435" cy="105" r="9" fill="#2B3240" stroke="#000000" stroke-width="0.6"/>
<circle cx="435" cy="135" r="9" fill="#2B3240" stroke="#000000" stroke-width="0.6"/>
<circle cx="435" cy="165" r="9" fill="#2B3240" stroke="#000000" stroke-width="0.6"/>
<circle cx="435" cy="195" r="9" fill="#2B3240" stroke="#000000" stroke-width="0.6"/>
<circle cx="435" cy="225" r="9" fill="#2B3240" stroke="#000000" stroke-width="0.6"/>
<circle cx="435" cy="255" r="9" fill="#2B3240" stroke="#000000" stroke-width="0.6"/>
<circle cx="435" cy="285" r="9" fill="#2B3240" stroke="#000000" stroke-width="0.6"/>
<circle cx="435" cy="315" r="9" fill="#2B3240" stroke="#000000" stroke-width="0.6"/>
<circle cx="435" cy="345" r="9" fill="#2B3240" stroke="#000000" stroke-width="0.6"/>
<circle cx="435" cy="375" r="9" fill="#2B3240" stroke="#000000" stroke-width="0.6"/>
<circle cx="435" cy="405" r="9" fill="#2B3240" stroke="#000000" stroke-width="0.6"/>
<circle cx="435" cy="435" r="9" fill="#2B3240" stroke="#000000" stroke-width="0.6"/>
<circle cx="435" cy="465" r="9" fill="#2B3240" stroke="#000000" stroke-width="0.6"/>
<circle cx="465" cy="15" r="9" fill="#2B3240" stroke="#000000" stroke-width="0.6"/>
<circle cx="465" cy="45" r="9" fill="#2B3240" stroke="#000000" stroke-width="0.6"/>
<circle cx="465" cy="75" r="9" fill="#2B3240" stroke="#000000" stroke-width="0.6"/>
<circle cx="465" cy="105" r="9" fill="#2B3240" stroke="#000000" stroke-width="0.6"/>
<circle cx="465" cy="135" r="9" fill="#2B3240" stroke="#000000" stroke-width="0.6"/>
<circle cx="465" cy="165" r="9" fill="#2B3240" stroke="#000000" stroke-width="0.6"/>
<circle cx="465" cy="195" r="9" fill="#2B3240" stroke="#000000" stroke-width="0.6"/>
<circle cx="465" cy="225" r="9" fill="#2B3240" stroke="#000000" stroke-width="0.6"/>
<circle cx="465" cy="255" r="9" fill="#2B3240" stroke="#000000" stroke-width="0.6"/>
<circle cx="465" cy="285" r="9" fill="#2B3240" stroke="#000000" stroke-width="0.6"/>
<circle cx="465" cy="315" r="9" fill="#2B3240" stroke="#000000" stroke-width="0.6"/>
<circle cx="465" cy="345" r="9" fill="#2B3240" stroke="#000000" stroke-width="0.6"/>
<circle cx="465" cy="375" r="9" fill="#2B3240" stroke="#000000" stroke-width="0.6"/>
<circle cx="465" cy="405" r="9" fill="#2B3240" stroke="#000000" stroke-width="0.6"/>
<circle cx="465" cy="435" r="9" fill="#2B3240" stroke="#000000" stroke-width="0.6"/>
<circle cx="465" cy="465" r="9" fill="#2B3240" stroke="#000000" stroke-width="0.6"/>
</svg>
