<svg xmlns="http://www.w3.org/2000/svg" viewBox="-4 -4 488 968" role="img" aria-label="plate-16x32 grey (top-down)">
<title>plate-16x32 grey (top-down)</title>
<rect x="0" y="0" width="480" height="960" rx="2" fill="#64707C" stroke="#1A2028" stroke-width="0.6"/>
<circle cx="15" cy="15" r="9" fill="#8593A0" stroke="#1A2028" stroke-width="0.6"/>
<circle cx="15" cy="45" r="9" fill="#8593A0" stroke="#1A2028" stroke-width="0.6"/>
<circle cx="15" cy="75" r="9" fill="#8593A0" stroke="#1A2028" stroke-width="0.6"/>
<circle cx="15" cy="105" r="9" fill="#8593A0" stroke="#1A2028" stroke-width="0.6"/>
<circle cx="15" cy="135" r="9" fill="#8593A0" stroke="#1A2028" stroke-width="0.6"/>
<circle cx="15" cy="165" r="9" fill="#8593A0" stroke="#1A2028" stroke-width="0.6"/>
<circle cx="15" cy="195" r="9" fill="#8593A0" stroke="#1A2028" stroke-width="0.6"/>
<circle cx="15" cy="225" r="9" fill="#8593A0" stroke="#1A2028" stroke-width="0.6"/>
<circle cx="15" cy="255" r="9" fill="#8593A0" stroke="#1A2028" stroke-width="0.6"/>
<circle cx="15" cy="285" r="9" fill="#8593A0" stroke="#1A2028" stroke-width="0.6"/>
<circle cx="15" cy="315" r="9" fill="#8593A0" stroke="#1A2028" stroke-width="0.6"/>
<circle cx="15" cy="345" r="9" fill="#8593A0" stroke="#1A2028" stroke-width="0.6"/>
<circle cx="15" cy="375" r="9" fill="#8593A0" stroke="#1A2028" stroke-width="0.6"/>
<circle cx="15" cy="405" r="9" fill="#8593A0" stroke="#1A2028" stroke-width="0.6"/>
<circle cx="15" cy="435" r="9" fill="#8593A0" stroke="#1A2028" stroke-width="0.6"/>
<circle cx="15" cy="465" r="9" fill="#8593A0" stroke="#1A2028" stroke-width="0.6"/>
<circle cx="15" cy="495" r="9" fill="#8593A0" stroke="#1A2028" stroke-width="0.6"/>
<circle cx="15" cy="525" r="9" fill="#8593A0" stroke="#1A2028" stroke-width="0.6"/>
<circle cx="15" cy="555" r="9" fill="#8593A0" stroke="#1A2028" stroke-width="0.6"/>
<circle cx="15" cy="585" r="9" fill="#8593A0" stroke="#1A2028" stroke-width="0.6"/>
<circle cx="15" cy="615" r="9" fill="#8593A0" stroke="#1A2028" stroke-width="0.6"/>
<circle cx="15" cy="645" r="9" fill="#8593A0" stroke="#1A2028" stroke-width="0.6"/>
<circle cx="15" cy="675" r="9" fill="#8593A0" stroke="#1A2028" stroke-width="0.6"/>
<circle cx="15" cy="705" r="9" fill="#8593A0" stroke="#1A2028" stroke-width="0.6"/>
<circle cx="15" cy="735" r="9" fill="#8593A0" stroke="#1A2028" stroke-width="0.6"/>
<circle cx="15" cy="765" r="9" fill="#8593A0" stroke="#1A2028" stroke-width="0.6"/>
<circle cx="15" cy="795" r="9" fill="#8593A0" stroke="#1A2028" stroke-width="0.6"/>
<circle cx="15" cy="825" r="9" fill="#8593A0" stroke="#1A2028" stroke-width="0.6"/>
<circle cx="15" cy="855" r="9" fill="#8593A0" stroke="#1A2028" stroke-width="0.6"/>
<circle cx="15" cy="885" r="9" fill="#8593A0" stroke="#1A2028" stroke-width="0.6"/>
<circle cx="15" cy="915" r="9" fill="#8593A0" stroke="#1A2028" stroke-width="0.6"/>
<circle cx="15" cy="945" r="9" fill="#8593A0" stroke="#1A2028" stroke-width="0.6"/>
<circle cx="45" cy="15" r="9" fill="#8593A0" stroke="#1A2028" stroke-width="0.6"/>
<circle cx="45" cy="45" r="9" fill="#8593A0" stroke="#1A2028" stroke-width="0.6"/>
<circle cx="45" cy="75" r="9" fill="#8593A0" stroke="#1A2028" stroke-width="0.6"/>
<circle cx="45" cy="105" r="9" fill="#8593A0" stroke="#1A2028" stroke-width="0.6"/>
<circle cx="45" cy="135" r="9" fill="#8593A0" stroke="#1A2028" stroke-width="0.6"/>
<circle cx="45" cy="165" r="9" fill="#8593A0" stroke="#1A2028" stroke-width="0.6"/>
<circle cx="45" cy="195" r="9" fill="#8593A0" stroke="#1A2028" stroke-width="0.6"/>
<circle cx="45" cy="225" r="9" fill="#8593A0" stroke="#1A2028" stroke-width="0.6"/>
<circle cx="45" cy="255" r="9" fill="#8593A0" stroke="#1A2028" stroke-width="0.6"/>
<circle cx="45" cy="285" r="9" fill="#8593A0" stroke="#1A2028" stroke-width="0.6"/>
<circle cx="45" cy="315" r="9" fill="#8593A0" stroke="#1A2028" stroke-width="0.6"/>
<circle cx="45" cy="345" r="9" fill="#8593A0" stroke="#1A2028" stroke-width="0.6"/>
<circle cx="45" cy="375" r="9" fill="#8593A0" stroke="#1A2028" stroke-width="0.6"/>
<circle cx="45" cy="405" r="9" fill="#8593A0" stroke="#1A2028" stroke-width="0.6"/>
<circle cx="45" cy="435" r="9" fill="#8593A0" stroke="#1A2028" stroke-width="0.6"/>
<circle cx="45" cy="465" r="9" fill="#8593A0" stroke="#1A2028" stroke-width="0.6"/>
<circle cx="45" cy="495" r="9" fill="#8593A0" stroke="#1A2028" stroke-width="0.6"/>
<circle cx="45" cy="525" r="9" fill="#8593A0" stroke="#1A2028" stroke-width="0.6"/>
<circle cx="45" cy="555" r="9" fill="#8593A0" stroke="#1A2028" stroke-width="0.6"/>
<circle cx="45" cy="585" r="9" fill="#8593A0" stroke="#1A2028" stroke-width="0.6"/>
<circle cx="45" cy="615" r="9" fill="#8593A0" stroke="#1A2028" stroke-width="0.6"/>
<circle cx="45" cy="645" r="9" fill="#8593A0" stroke="#1A2028" stroke-width="0.6"/>
<circle cx="45" cy="675" r="9" fill="#8593A0" stroke="#1A2028" stroke-width="0.6"/>
<circle cx="45" cy="705" r="9" fill="#8593A0" stroke="#1A2028" stroke-width="0.6"/>
<circle cx="45" cy="735" r="9" fill="#8593A0" stroke="#1A2028" stroke-width="0.6"/>
<circle cx="45" cy="765" r="9" fill="#8593A0" stroke="#1A2028" stroke-width="0.6"/>
<circle cx="45" cy="795" r="9" fill="#8593A0" stroke="#1A2028" stroke-width="0.6"/>
<circle cx="45" cy="825" r="9" fill="#8593A0" stroke="#1A2028" stroke-width="0.6"/>
<circle cx="45" cy="855" r="9" fill="#8593A0" stroke="#1A2028" stroke-width="0.6"/>
<circle cx="45" cy="885" r="9" fill="#8593A0" stroke="#1A2028" stroke-width="0.6"/>
<circle cx="45" cy="915" r="9" fill="#8593A0" stroke="#1A2028" stroke-width="0.6"/>
<circle cx="45" cy="945" r="9" fill="#8593A0" stroke="#1A2028" stroke-width="0.6"/>
<circle cx="75" cy="15" r="9" fill="#8593A0" stroke="#1A2028" stroke-width="0.6"/>
<circle cx="75" cy="45" r="9" fill="#8593A0" stroke="#1A2028" stroke-width="0.6"/>
<circle cx="75" cy="75" r="9" fill="#8593A0" stroke="#1A2028" stroke-width="0.6"/>
<circle cx="75" cy="105" r="9" fill="#8593A0" stroke="#1A2028" stroke-width="0.6"/>
<circle cx="75" cy="135" r="9" fill="#8593A0" stroke="#1A2028" stroke-width="0.6"/>
<circle cx="75" cy="165" r="9" fill="#8593A0" stroke="#1A2028" stroke-width="0.6"/>
<circle cx="75" cy="195" r="9" fill="#8593A0" stroke="#1A2028" stroke-width="0.6"/>
<circle cx="75" cy="225" r="9" fill="#8593A0" stroke="#1A2028" stroke-width="0.6"/>
<circle cx="75" cy="255" r="9" fill="#8593A0" stroke="#1A2028" stroke-width="0.6"/>
<circle cx="75" cy="285" r="9" fill="#8593A0" stroke="#1A2028" stroke-width="0.6"/>
<circle cx="75" cy="315" r="9" fill="#8593A0" stroke="#1A2028" stroke-width="0.6"/>
<circle cx="75" cy="345" r="9" fill="#8593A0" stroke="#1A2028" stroke-width="0.6"/>
<circle cx="75" cy="375" r="9" fill="#8593A0" stroke="#1A2028" stroke-width="0.6"/>
<circle cx="75" cy="405" r="9" fill="#8593A0" stroke="#1A2028" stroke-width="0.6"/>
<circle cx="75" cy="435" r="9" fill="#8593A0" stroke="#1A2028" stroke-width="0.6"/>
<circle cx="75" cy="465" r="9" fill="#8593A0" stroke="#1A2028" stroke-width="0.6"/>
<circle cx="75" cy="495" r="9" fill="#8593A0" stroke="#1A2028" stroke-width="0.6"/>
<circle cx="75" cy="525" r="9" fill="#8593A0" stroke="#1A2028" stroke-width="0.6"/>
<circle cx="75" cy="555" r="9" fill="#8593A0" stroke="#1A2028" stroke-width="0.6"/>
<circle cx="75" cy="585" r="9" fill="#8593A0" stroke="#1A2028" stroke-width="0.6"/>
<circle cx="75" cy="615" r="9" fill="#8593A0" stroke="#1A2028" stroke-width="0.6"/>
<circle cx="75" cy="645" r="9" fill="#8593A0" stroke="#1A2028" stroke-width="0.6"/>
<circle cx="75" cy="675" r="9" fill="#8593A0" stroke="#1A2028" stroke-width="0.6"/>
<circle cx="75" cy="705" r="9" fill="#8593A0" stroke="#1A2028" stroke-width="0.6"/>
<circle cx="75" cy="735" r="9" fill="#8593A0" stroke="#1A2028" stroke-width="0.6"/>
<circle cx="75" cy="765" r="9" fill="#8593A0" stroke="#1A2028" stroke-width="0.6"/>
<circle cx="75" cy="795" r="9" fill="#8593A0" stroke="#1A2028" stroke-width="0.6"/>
<circle cx="75" cy="825" r="9" fill="#8593A0" stroke="#1A2028" stroke-width="0.6"/>
<circle cx="75" cy="855" r="9" fill="#8593A0" stroke="#1A2028" stroke-width="0.6"/>
<circle cx="75" cy="885" r="9" fill="#8593A0" stroke="#1A2028" stroke-width="0.6"/>
<circle cx="75" cy="915" r="9" fill="#8593A0" stroke="#1A2028" stroke-width="0.6"/>
<circle cx="75" cy="945" r="9" fill="#8593A0" stroke="#1A2028" stroke-width="0.6"/>
<circle cx="105" cy="15" r="9" fill="#8593A0" stroke="#1A2028" stroke-width="0.6"/>
<circle cx="105" cy="45" r="9" fill="#8593A0" stroke="#1A2028" stroke-width="0.6"/>
<circle cx="105" cy="75" r="9" fill="#8593A0" stroke="#1A2028" stroke-width="0.6"/>
<circle cx="105" cy="105" r="9" fill="#8593A0" stroke="#1A2028" stroke-width="0.6"/>
<circle cx="105" cy="135" r="9" fill="#8593A0" stroke="#1A2028" stroke-width="0.6"/>
<circle cx="105" cy="165" r="9" fill="#8593A0" stroke="#1A2028" stroke-width="0.6"/>
<circle cx="105" cy="195" r="9" fill="#8593A0" stroke="#1A2028" stroke-width="0.6"/>
<circle cx="105" cy="225" r="9" fill="#8593A0" stroke="#1A2028" stroke-width="0.6"/>
<circle cx="105" cy="255" r="9" fill="#8593A0" stroke="#1A2028" stroke-width="0.6"/>
<circle cx="105" cy="285" r="9" fill="#8593A0" stroke="#1A2028" stroke-width="0.6"/>
<circle cx="105" cy="315" r="9" fill="#8593A0" stroke="#1A2028" stroke-width="0.6"/>
<circle cx="105" cy="345" r="9" fill="#8593A0" stroke="#1A2028" stroke-width="0.6"/>
<circle cx="105" cy="375" r="9" fill="#8593A0" stroke="#1A2028" stroke-width="0.6"/>
<circle cx="105" cy="405" r="9" fill="#8593A0" stroke="#1A2028" stroke-width="0.6"/>
<circle cx="105" cy="435" r="9" fill="#8593A0" stroke="#1A2028" stroke-width="0.6"/>
<circle cx="105" cy="465" r="9" fill="#8593A0" stroke="#1A2028" stroke-width="0.6"/>
<circle cx="105" cy="495" r="9" fill="#8593A0" stroke="#1A2028" stroke-width="0.6"/>
<circle cx="105" cy="525" r="9" fill="#8593A0" stroke="#1A2028" stroke-width="0.6"/>
<circle cx="105" cy="555" r="9" fill="#8593A0" stroke="#1A2028" stroke-width="0.6"/>
<circle cx="105" cy="585" r="9" fill="#8593A0" stroke="#1A2028" stroke-width="0.6"/>
<circle cx="105" cy="615" r="9" fill="#8593A0" stroke="#1A2028" stroke-width="0.6"/>
<circle cx="105" cy="645" r="9" fill="#8593A0" stroke="#1A2028" stroke-width="0.6"/>
<circle cx="105" cy="675" r="9" fill="#8593A0" stroke="#1A2028" stroke-width="0.6"/>
<circle cx="105" cy="705" r="9" fill="#8593A0" stroke="#1A2028" stroke-width="0.6"/>
<circle cx="105" cy="735" r="9" fill="#8593A0" stroke="#1A2028" stroke-width="0.6"/>
<circle cx="105" cy="765" r="9" fill="#8593A0" stroke="#1A2028" stroke-width="0.6"/>
<circle cx="105" cy="795" r="9" fill="#8593A0" stroke="#1A2028" stroke-width="0.6"/>
<circle cx="105" cy="825" r="9" fill="#8593A0" stroke="#1A2028" stroke-width="0.6"/>
<circle cx="105" cy="855" r="9" fill="#8593A0" stroke="#1A2028" stroke-width="0.6"/>
<circle cx="105" cy="885" r="9" fill="#8593A0" stroke="#1A2028" stroke-width="0.6"/>
<circle cx="105" cy="915" r="9" fill="#8593A0" stroke="#1A2028" stroke-width="0.6"/>
<circle cx="105" cy="945" r="9" fill="#8593A0" stroke="#1A2028" stroke-width="0.6"/>
<circle cx="135" cy="15" r="9" fill="#8593A0" stroke="#1A2028" stroke-width="0.6"/>
<circle cx="135" cy="45" r="9" fill="#8593A0" stroke="#1A2028" stroke-width="0.6"/>
<circle cx="135" cy="75" r="9" fill="#8593A0" stroke="#1A2028" stroke-width="0.6"/>
<circle cx="135" cy="105" r="9" fill="#8593A0" stroke="#1A2028" stroke-width="0.6"/>
<circle cx="135" cy="135" r="9" fill="#8593A0" stroke="#1A2028" stroke-width="0.6"/>
<circle cx="135" cy="165" r="9" fill="#8593A0" stroke="#1A2028" stroke-width="0.6"/>
<circle cx="135" cy="195" r="9" fill="#8593A0" stroke="#1A2028" stroke-width="0.6"/>
<circle cx="135" cy="225" r="9" fill="#8593A0" stroke="#1A2028" stroke-width="0.6"/>
<circle cx="135" cy="255" r="9" fill="#8593A0" stroke="#1A2028" stroke-width="0.6"/>
<circle cx="135" cy="285" r="9" fill="#8593A0" stroke="#1A2028" stroke-width="0.6"/>
<circle cx="135" cy="315" r="9" fill="#8593A0" stroke="#1A2028" stroke-width="0.6"/>
<circle cx="135" cy="345" r="9" fill="#8593A0" stroke="#1A2028" stroke-width="0.6"/>
<circle cx="135" cy="375" r="9" fill="#8593A0" stroke="#1A2028" stroke-width="0.6"/>
<circle cx="135" cy="405" r="9" fill="#8593A0" stroke="#1A2028" stroke-width="0.6"/>
<circle cx="135" cy="435" r="9" fill="#8593A0" stroke="#1A2028" stroke-width="0.6"/>
<circle cx="135" cy="465" r="9" fill="#8593A0" stroke="#1A2028" stroke-width="0.6"/>
<circle cx="135" cy="495" r="9" fill="#8593A0" stroke="#1A2028" stroke-width="0.6"/>
<circle cx="135" cy="525" r="9" fill="#8593A0" stroke="#1A2028" stroke-width="0.6"/>
<circle cx="135" cy="555" r="9" fill="#8593A0" stroke="#1A2028" stroke-width="0.6"/>
<circle cx="135" cy="585" r="9" fill="#8593A0" stroke="#1A2028" stroke-width="0.6"/>
<circle cx="135" cy="615" r="9" fill="#8593A0" stroke="#1A2028" stroke-width="0.6"/>
<circle cx="135" cy="645" r="9" fill="#8593A0" stroke="#1A2028" stroke-width="0.6"/>
<circle cx="135" cy="675" r="9" fill="#8593A0" stroke="#1A2028" stroke-width="0.6"/>
<circle cx="135" cy="705" r="9" fill="#8593A0" stroke="#1A2028" stroke-width="0.6"/>
<circle cx="135" cy="735" r="9" fill="#8593A0" stroke="#1A2028" stroke-width="0.6"/>
<circle cx="135" cy="765" r="9" fill="#8593A0" stroke="#1A2028" stroke-width="0.6"/>
<circle cx="135" cy="795" r="9" fill="#8593A0" stroke="#1A2028" stroke-width="0.6"/>
<circle cx="135" cy="825" r="9" fill="#8593A0" stroke="#1A2028" stroke-width="0.6"/>
<circle cx="135" cy="855" r="9" fill="#8593A0" stroke="#1A2028" stroke-width="0.6"/>
<circle cx="135" cy="885" r="9" fill="#8593A0" stroke="#1A2028" stroke-width="0.6"/>
<circle cx="135" cy="915" r="9" fill="#8593A0" stroke="#1A2028" stroke-width="0.6"/>
<circle cx="135" cy="945" r="9" fill="#8593A0" stroke="#1A2028" stroke-width="0.6"/>
<circle cx="165" cy="15" r="9" fill="#8593A0" stroke="#1A2028" stroke-width="0.6"/>
<circle cx="165" cy="45" r="9" fill="#8593A0" stroke="#1A2028" stroke-width="0.6"/>
<circle cx="165" cy="75" r="9" fill="#8593A0" stroke="#1A2028" stroke-width="0.6"/>
<circle cx="165" cy="105" r="9" fill="#8593A0" stroke="#1A2028" stroke-width="0.6"/>
<circle cx="165" cy="135" r="9" fill="#8593A0" stroke="#1A2028" stroke-width="0.6"/>
<circle cx="165" cy="165" r="9" fill="#8593A0" stroke="#1A2028" stroke-width="0.6"/>
<circle cx="165" cy="195" r="9" fill="#8593A0" stroke="#1A2028" stroke-width="0.6"/>
<circle cx="165" cy="225" r="9" fill="#8593A0" stroke="#1A2028" stroke-width="0.6"/>
<circle cx="165" cy="255" r="9" fill="#8593A0" stroke="#1A2028" stroke-width="0.6"/>
<circle cx="165" cy="285" r="9" fill="#8593A0" stroke="#1A2028" stroke-width="0.6"/>
<circle cx="165" cy="315" r="9" fill="#8593A0" stroke="#1A2028" stroke-width="0.6"/>
<circle cx="165" cy="345" r="9" fill="#8593A0" stroke="#1A2028" stroke-width="0.6"/>
<circle cx="165" cy="375" r="9" fill="#8593A0" stroke="#1A2028" stroke-width="0.6"/>
<circle cx="165" cy="405" r="9" fill="#8593A0" stroke="#1A2028" stroke-width="0.6"/>
<circle cx="165" cy="435" r="9" fill="#8593A0" stroke="#1A2028" stroke-width="0.6"/>
<circle cx="165" cy="465" r="9" fill="#8593A0" stroke="#1A2028" stroke-width="0.6"/>
<circle cx="165" cy="495" r="9" fill="#8593A0" stroke="#1A2028" stroke-width="0.6"/>
<circle cx="165" cy="525" r="9" fill="#8593A0" stroke="#1A2028" stroke-width="0.6"/>
<circle cx="165" cy="555" r="9" fill="#8593A0" stroke="#1A2028" stroke-width="0.6"/>
<circle cx="165" cy="585" r="9" fill="#8593A0" stroke="#1A2028" stroke-width="0.6"/>
<circle cx="165" cy="615" r="9" fill="#8593A0" stroke="#1A2028" stroke-width="0.6"/>
<circle cx="165" cy="645" r="9" fill="#8593A0" stroke="#1A2028" stroke-width="0.6"/>
<circle cx="165" cy="675" r="9" fill="#8593A0" stroke="#1A2028" stroke-width="0.6"/>
<circle cx="165" cy="705" r="9" fill="#8593A0" stroke="#1A2028" stroke-width="0.6"/>
<circle cx="165" cy="735" r="9" fill="#8593A0" stroke="#1A2028" stroke-width="0.6"/>
<circle cx="165" cy="765" r="9" fill="#8593A0" stroke="#1A2028" stroke-width="0.6"/>
<circle cx="165" cy="795" r="9" fill="#8593A0" stroke="#1A2028" stroke-width="0.6"/>
<circle cx="165" cy="825" r="9" fill="#8593A0" stroke="#1A2028" stroke-width="0.6"/>
<circle cx="165" cy="855" r="9" fill="#8593A0" stroke="#1A2028" stroke-width="0.6"/>
<circle cx="165" cy="885" r="9" fill="#8593A0" stroke="#1A2028" stroke-width="0.6"/>
<circle cx="165" cy="915" r="9" fill="#8593A0" stroke="#1A2028" stroke-width="0.6"/>
<circle cx="165" cy="945" r="9" fill="#8593A0" stroke="#1A2028" stroke-width="0.6"/>
<circle cx="195" cy="15" r="9" fill="#8593A0" stroke="#1A2028" stroke-width="0.6"/>
<circle cx="195" cy="45" r="9" fill="#8593A0" stroke="#1A2028" stroke-width="0.6"/>
<circle cx="195" cy="75" r="9" fill="#8593A0" stroke="#1A2028" stroke-width="0.6"/>
<circle cx="195" cy="105" r="9" fill="#8593A0" stroke="#1A2028" stroke-width="0.6"/>
<circle cx="195" cy="135" r="9" fill="#8593A0" stroke="#1A2028" stroke-width="0.6"/>
<circle cx="195" cy="165" r="9" fill="#8593A0" stroke="#1A2028" stroke-width="0.6"/>
<circle cx="195" cy="195" r="9" fill="#8593A0" stroke="#1A2028" stroke-width="0.6"/>
<circle cx="195" cy="225" r="9" fill="#8593A0" stroke="#1A2028" stroke-width="0.6"/>
<circle cx="195" cy="255" r="9" fill="#8593A0" stroke="#1A2028" stroke-width="0.6"/>
<circle cx="195" cy="285" r="9" fill="#8593A0" stroke="#1A2028" stroke-width="0.6"/>
<circle cx="195" cy="315" r="9" fill="#8593A0" stroke="#1A2028" stroke-width="0.6"/>
<circle cx="195" cy="345" r="9" fill="#8593A0" stroke="#1A2028" stroke-width="0.6"/>
<circle cx="195" cy="375" r="9" fill="#8593A0" stroke="#1A2028" stroke-width="0.6"/>
<circle cx="195" cy="405" r="9" fill="#8593A0" stroke="#1A2028" stroke-width="0.6"/>
<circle cx="195" cy="435" r="9" fill="#8593A0" stroke="#1A2028" stroke-width="0.6"/>
<circle cx="195" cy="465" r="9" fill="#8593A0" stroke="#1A2028" stroke-width="0.6"/>
<circle cx="195" cy="495" r="9" fill="#8593A0" stroke="#1A2028" stroke-width="0.6"/>
<circle cx="195" cy="525" r="9" fill="#8593A0" stroke="#1A2028" stroke-width="0.6"/>
<circle cx="195" cy="555" r="9" fill="#8593A0" stroke="#1A2028" stroke-width="0.6"/>
<circle cx="195" cy="585" r="9" fill="#8593A0" stroke="#1A2028" stroke-width="0.6"/>
<circle cx="195" cy="615" r="9" fill="#8593A0" stroke="#1A2028" stroke-width="0.6"/>
<circle cx="195" cy="645" r="9" fill="#8593A0" stroke="#1A2028" stroke-width="0.6"/>
<circle cx="195" cy="675" r="9" fill="#8593A0" stroke="#1A2028" stroke-width="0.6"/>
<circle cx="195" cy="705" r="9" fill="#8593A0" stroke="#1A2028" stroke-width="0.6"/>
<circle cx="195" cy="735" r="9" fill="#8593A0" stroke="#1A2028" stroke-width="0.6"/>
<circle cx="195" cy="765" r="9" fill="#8593A0" stroke="#1A2028" stroke-width="0.6"/>
<circle cx="195" cy="795" r="9" fill="#8593A0" stroke="#1A2028" stroke-width="0.6"/>
<circle cx="195" cy="825" r="9" fill="#8593A0" stroke="#1A2028" stroke-width="0.6"/>
<circle cx="195" cy="855" r="9" fill="#8593A0" stroke="#1A2028" stroke-width="0.6"/>
<circle cx="195" cy="885" r="9" fill="#8593A0" stroke="#1A2028" stroke-width="0.6"/>
<circle cx="195" cy="915" r="9" fill="#8593A0" stroke="#1A2028" stroke-width="0.6"/>
<circle cx="195" cy="945" r="9" fill="#8593A0" stroke="#1A2028" stroke-width="0.6"/>
<circle cx="225" cy="15" r="9" fill="#8593A0" stroke="#1A2028" stroke-width="0.6"/>
<circle cx="225" cy="45" r="9" fill="#8593A0" stroke="#1A2028" stroke-width="0.6"/>
<circle cx="225" cy="75" r="9" fill="#8593A0" stroke="#1A2028" stroke-width="0.6"/>
<circle cx="225" cy="105" r="9" fill="#8593A0" stroke="#1A2028" stroke-width="0.6"/>
<circle cx="225" cy="135" r="9" fill="#8593A0" stroke="#1A2028" stroke-width="0.6"/>
<circle cx="225" cy="165" r="9" fill="#8593A0" stroke="#1A2028" stroke-width="0.6"/>
<circle cx="225" cy="195" r="9" fill="#8593A0" stroke="#1A2028" stroke-width="0.6"/>
<circle cx="225" cy="225" r="9" fill="#8593A0" stroke="#1A2028" stroke-width="0.6"/>
<circle cx="225" cy="255" r="9" fill="#8593A0" stroke="#1A2028" stroke-width="0.6"/>
<circle cx="225" cy="285" r="9" fill="#8593A0" stroke="#1A2028" stroke-width="0.6"/>
<circle cx="225" cy="315" r="9" fill="#8593A0" stroke="#1A2028" stroke-width="0.6"/>
<circle cx="225" cy="345" r="9" fill="#8593A0" stroke="#1A2028" stroke-width="0.6"/>
<circle cx="225" cy="375" r="9" fill="#8593A0" stroke="#1A2028" stroke-width="0.6"/>
<circle cx="225" cy="405" r="9" fill="#8593A0" stroke="#1A2028" stroke-width="0.6"/>
<circle cx="225" cy="435" r="9" fill="#8593A0" stroke="#1A2028" stroke-width="0.6"/>
<circle cx="225" cy="465" r="9" fill="#8593A0" stroke="#1A2028" stroke-width="0.6"/>
<circle cx="225" cy="495" r="9" fill="#8593A0" stroke="#1A2028" stroke-width="0.6"/>
<circle cx="225" cy="525" r="9" fill="#8593A0" stroke="#1A2028" stroke-width="0.6"/>
<circle cx="225" cy="555" r="9" fill="#8593A0" stroke="#1A2028" stroke-width="0.6"/>
<circle cx="225" cy="585" r="9" fill="#8593A0" stroke="#1A2028" stroke-width="0.6"/>
<circle cx="225" cy="615" r="9" fill="#8593A0" stroke="#1A2028" stroke-width="0.6"/>
<circle cx="225" cy="645" r="9" fill="#8593A0" stroke="#1A2028" stroke-width="0.6"/>
<circle cx="225" cy="675" r="9" fill="#8593A0" stroke="#1A2028" stroke-width="0.6"/>
<circle cx="225" cy="705" r="9" fill="#8593A0" stroke="#1A2028" stroke-width="0.6"/>
<circle cx="225" cy="735" r="9" fill="#8593A0" stroke="#1A2028" stroke-width="0.6"/>
<circle cx="225" cy="765" r="9" fill="#8593A0" stroke="#1A2028" stroke-width="0.6"/>
<circle cx="225" cy="795" r="9" fill="#8593A0" stroke="#1A2028" stroke-width="0.6"/>
<circle cx="225" cy="825" r="9" fill="#8593A0" stroke="#1A2028" stroke-width="0.6"/>
<circle cx="225" cy="855" r="9" fill="#8593A0" stroke="#1A2028" stroke-width="0.6"/>
<circle cx="225" cy="885" r="9" fill="#8593A0" stroke="#1A2028" stroke-width="0.6"/>
<circle cx="225" cy="915" r="9" fill="#8593A0" stroke="#1A2028" stroke-width="0.6"/>
<circle cx="225" cy="945" r="9" fill="#8593A0" stroke="#1A2028" stroke-width="0.6"/>
<circle cx="255" cy="15" r="9" fill="#8593A0" stroke="#1A2028" stroke-width="0.6"/>
<circle cx="255" cy="45" r="9" fill="#8593A0" stroke="#1A2028" stroke-width="0.6"/>
<circle cx="255" cy="75" r="9" fill="#8593A0" stroke="#1A2028" stroke-width="0.6"/>
<circle cx="255" cy="105" r="9" fill="#8593A0" stroke="#1A2028" stroke-width="0.6"/>
<circle cx="255" cy="135" r="9" fill="#8593A0" stroke="#1A2028" stroke-width="0.6"/>
<circle cx="255" cy="165" r="9" fill="#8593A0" stroke="#1A2028" stroke-width="0.6"/>
<circle cx="255" cy="195" r="9" fill="#8593A0" stroke="#1A2028" stroke-width="0.6"/>
<circle cx="255" cy="225" r="9" fill="#8593A0" stroke="#1A2028" stroke-width="0.6"/>
<circle cx="255" cy="255" r="9" fill="#8593A0" stroke="#1A2028" stroke-width="0.6"/>
<circle cx="255" cy="285" r="9" fill="#8593A0" stroke="#1A2028" stroke-width="0.6"/>
<circle cx="255" cy="315" r="9" fill="#8593A0" stroke="#1A2028" stroke-width="0.6"/>
<circle cx="255" cy="345" r="9" fill="#8593A0" stroke="#1A2028" stroke-width="0.6"/>
<circle cx="255" cy="375" r="9" fill="#8593A0" stroke="#1A2028" stroke-width="0.6"/>
<circle cx="255" cy="405" r="9" fill="#8593A0" stroke="#1A2028" stroke-width="0.6"/>
<circle cx="255" cy="435" r="9" fill="#8593A0" stroke="#1A2028" stroke-width="0.6"/>
<circle cx="255" cy="465" r="9" fill="#8593A0" stroke="#1A2028" stroke-width="0.6"/>
<circle cx="255" cy="495" r="9" fill="#8593A0" stroke="#1A2028" stroke-width="0.6"/>
<circle cx="255" cy="525" r="9" fill="#8593A0" stroke="#1A2028" stroke-width="0.6"/>
<circle cx="255" cy="555" r="9" fill="#8593A0" stroke="#1A2028" stroke-width="0.6"/>
<circle cx="255" cy="585" r="9" fill="#8593A0" stroke="#1A2028" stroke-width="0.6"/>
<circle cx="255" cy="615" r="9" fill="#8593A0" stroke="#1A2028" stroke-width="0.6"/>
<circle cx="255" cy="645" r="9" fill="#8593A0" stroke="#1A2028" stroke-width="0.6"/>
<circle cx="255" cy="675" r="9" fill="#8593A0" stroke="#1A2028" stroke-width="0.6"/>
<circle cx="255" cy="705" r="9" fill="#8593A0" stroke="#1A2028" stroke-width="0.6"/>
<circle cx="255" cy="735" r="9" fill="#8593A0" stroke="#1A2028" stroke-width="0.6"/>
<circle cx="255" cy="765" r="9" fill="#8593A0" stroke="#1A2028" stroke-width="0.6"/>
<circle cx="255" cy="795" r="9" fill="#8593A0" stroke="#1A2028" stroke-width="0.6"/>
<circle cx="255" cy="825" r="9" fill="#8593A0" stroke="#1A2028" stroke-width="0.6"/>
<circle cx="255" cy="855" r="9" fill="#8593A0" stroke="#1A2028" stroke-width="0.6"/>
<circle cx="255" cy="885" r="9" fill="#8593A0" stroke="#1A2028" stroke-width="0.6"/>
<circle cx="255" cy="915" r="9" fill="#8593A0" stroke="#1A2028" stroke-width="0.6"/>
<circle cx="255" cy="945" r="9" fill="#8593A0" stroke="#1A2028" stroke-width="0.6"/>
<circle cx="285" cy="15" r="9" fill="#8593A0" stroke="#1A2028" stroke-width="0.6"/>
<circle cx="285" cy="45" r="9" fill="#8593A0" stroke="#1A2028" stroke-width="0.6"/>
<circle cx="285" cy="75" r="9" fill="#8593A0" stroke="#1A2028" stroke-width="0.6"/>
<circle cx="285" cy="105" r="9" fill="#8593A0" stroke="#1A2028" stroke-width="0.6"/>
<circle cx="285" cy="135" r="9" fill="#8593A0" stroke="#1A2028" stroke-width="0.6"/>
<circle cx="285" cy="165" r="9" fill="#8593A0" stroke="#1A2028" stroke-width="0.6"/>
<circle cx="285" cy="195" r="9" fill="#8593A0" stroke="#1A2028" stroke-width="0.6"/>
<circle cx="285" cy="225" r="9" fill="#8593A0" stroke="#1A2028" stroke-width="0.6"/>
<circle cx="285" cy="255" r="9" fill="#8593A0" stroke="#1A2028" stroke-width="0.6"/>
<circle cx="285" cy="285" r="9" fill="#8593A0" stroke="#1A2028" stroke-width="0.6"/>
<circle cx="285" cy="315" r="9" fill="#8593A0" stroke="#1A2028" stroke-width="0.6"/>
<circle cx="285" cy="345" r="9" fill="#8593A0" stroke="#1A2028" stroke-width="0.6"/>
<circle cx="285" cy="375" r="9" fill="#8593A0" stroke="#1A2028" stroke-width="0.6"/>
<circle cx="285" cy="405" r="9" fill="#8593A0" stroke="#1A2028" stroke-width="0.6"/>
<circle cx="285" cy="435" r="9" fill="#8593A0" stroke="#1A2028" stroke-width="0.6"/>
<circle cx="285" cy="465" r="9" fill="#8593A0" stroke="#1A2028" stroke-width="0.6"/>
<circle cx="285" cy="495" r="9" fill="#8593A0" stroke="#1A2028" stroke-width="0.6"/>
<circle cx="285" cy="525" r="9" fill="#8593A0" stroke="#1A2028" stroke-width="0.6"/>
<circle cx="285" cy="555" r="9" fill="#8593A0" stroke="#1A2028" stroke-width="0.6"/>
<circle cx="285" cy="585" r="9" fill="#8593A0" stroke="#1A2028" stroke-width="0.6"/>
<circle cx="285" cy="615" r="9" fill="#8593A0" stroke="#1A2028" stroke-width="0.6"/>
<circle cx="285" cy="645" r="9" fill="#8593A0" stroke="#1A2028" stroke-width="0.6"/>
<circle cx="285" cy="675" r="9" fill="#8593A0" stroke="#1A2028" stroke-width="0.6"/>
<circle cx="285" cy="705" r="9" fill="#8593A0" stroke="#1A2028" stroke-width="0.6"/>
<circle cx="285" cy="735" r="9" fill="#8593A0" stroke="#1A2028" stroke-width="0.6"/>
<circle cx="285" cy="765" r="9" fill="#8593A0" stroke="#1A2028" stroke-width="0.6"/>
<circle cx="285" cy="795" r="9" fill="#8593A0" stroke="#1A2028" stroke-width="0.6"/>
<circle cx="285" cy="825" r="9" fill="#8593A0" stroke="#1A2028" stroke-width="0.6"/>
<circle cx="285" cy="855" r="9" fill="#8593A0" stroke="#1A2028" stroke-width="0.6"/>
<circle cx="285" cy="885" r="9" fill="#8593A0" stroke="#1A2028" stroke-width="0.6"/>
<circle cx="285" cy="915" r="9" fill="#8593A0" stroke="#1A2028" stroke-width="0.6"/>
<circle cx="285" cy="945" r="9" fill="#8593A0" stroke="#1A2028" stroke-width="0.6"/>
<circle cx="315" cy="15" r="9" fill="#8593A0" stroke="#1A2028" stroke-width="0.6"/>
<circle cx="315" cy="45" r="9" fill="#8593A0" stroke="#1A2028" stroke-width="0.6"/>
<circle cx="315" cy="75" r="9" fill="#8593A0" stroke="#1A2028" stroke-width="0.6"/>
<circle cx="315" cy="105" r="9" fill="#8593A0" stroke="#1A2028" stroke-width="0.6"/>
<circle cx="315" cy="135" r="9" fill="#8593A0" stroke="#1A2028" stroke-width="0.6"/>
<circle cx="315" cy="165" r="9" fill="#8593A0" stroke="#1A2028" stroke-width="0.6"/>
<circle cx="315" cy="195" r="9" fill="#8593A0" stroke="#1A2028" stroke-width="0.6"/>
<circle cx="315" cy="225" r="9" fill="#8593A0" stroke="#1A2028" stroke-width="0.6"/>
<circle cx="315" cy="255" r="9" fill="#8593A0" stroke="#1A2028" stroke-width="0.6"/>
<circle cx="315" cy="285" r="9" fill="#8593A0" stroke="#1A2028" stroke-width="0.6"/>
<circle cx="315" cy="315" r="9" fill="#8593A0" stroke="#1A2028" stroke-width="0.6"/>
<circle cx="315" cy="345" r="9" fill="#8593A0" stroke="#1A2028" stroke-width="0.6"/>
<circle cx="315" cy="375" r="9" fill="#8593A0" stroke="#1A2028" stroke-width="0.6"/>
<circle cx="315" cy="405" r="9" fill="#8593A0" stroke="#1A2028" stroke-width="0.6"/>
<circle cx="315" cy="435" r="9" fill="#8593A0" stroke="#1A2028" stroke-width="0.6"/>
<circle cx="315" cy="465" r="9" fill="#8593A0" stroke="#1A2028" stroke-width="0.6"/>
<circle cx="315" cy="495" r="9" fill="#8593A0" stroke="#1A2028" stroke-width="0.6"/>
<circle cx="315" cy="525" r="9" fill="#8593A0" stroke="#1A2028" stroke-width="0.6"/>
<circle cx="315" cy="555" r="9" fill="#8593A0" stroke="#1A2028" stroke-width="0.6"/>
<circle cx="315" cy="585" r="9" fill="#8593A0" stroke="#1A2028" stroke-width="0.6"/>
<circle cx="315" cy="615" r="9" fill="#8593A0" stroke="#1A2028" stroke-width="0.6"/>
<circle cx="315" cy="645" r="9" fill="#8593A0" stroke="#1A2028" stroke-width="0.6"/>
<circle cx="315" cy="675" r="9" fill="#8593A0" stroke="#1A2028" stroke-width="0.6"/>
<circle cx="315" cy="705" r="9" fill="#8593A0" stroke="#1A2028" stroke-width="0.6"/>
<circle cx="315" cy="735" r="9" fill="#8593A0" stroke="#1A2028" stroke-width="0.6"/>
<circle cx="315" cy="765" r="9" fill="#8593A0" stroke="#1A2028" stroke-width="0.6"/>
<circle cx="315" cy="795" r="9" fill="#8593A0" stroke="#1A2028" stroke-width="0.6"/>
<circle cx="315" cy="825" r="9" fill="#8593A0" stroke="#1A2028" stroke-width="0.6"/>
<circle cx="315" cy="855" r="9" fill="#8593A0" stroke="#1A2028" stroke-width="0.6"/>
<circle cx="315" cy="885" r="9" fill="#8593A0" stroke="#1A2028" stroke-width="0.6"/>
<circle cx="315" cy="915" r="9" fill="#8593A0" stroke="#1A2028" stroke-width="0.6"/>
<circle cx="315" cy="945" r="9" fill="#8593A0" stroke="#1A2028" stroke-width="0.6"/>
<circle cx="345" cy="15" r="9" fill="#8593A0" stroke="#1A2028" stroke-width="0.6"/>
<circle cx="345" cy="45" r="9" fill="#8593A0" stroke="#1A2028" stroke-width="0.6"/>
<circle cx="345" cy="75" r="9" fill="#8593A0" stroke="#1A2028" stroke-width="0.6"/>
<circle cx="345" cy="105" r="9" fill="#8593A0" stroke="#1A2028" stroke-width="0.6"/>
<circle cx="345" cy="135" r="9" fill="#8593A0" stroke="#1A2028" stroke-width="0.6"/>
<circle cx="345" cy="165" r="9" fill="#8593A0" stroke="#1A2028" stroke-width="0.6"/>
<circle cx="345" cy="195" r="9" fill="#8593A0" stroke="#1A2028" stroke-width="0.6"/>
<circle cx="345" cy="225" r="9" fill="#8593A0" stroke="#1A2028" stroke-width="0.6"/>
<circle cx="345" cy="255" r="9" fill="#8593A0" stroke="#1A2028" stroke-width="0.6"/>
<circle cx="345" cy="285" r="9" fill="#8593A0" stroke="#1A2028" stroke-width="0.6"/>
<circle cx="345" cy="315" r="9" fill="#8593A0" stroke="#1A2028" stroke-width="0.6"/>
<circle cx="345" cy="345" r="9" fill="#8593A0" stroke="#1A2028" stroke-width="0.6"/>
<circle cx="345" cy="375" r="9" fill="#8593A0" stroke="#1A2028" stroke-width="0.6"/>
<circle cx="345" cy="405" r="9" fill="#8593A0" stroke="#1A2028" stroke-width="0.6"/>
<circle cx="345" cy="435" r="9" fill="#8593A0" stroke="#1A2028" stroke-width="0.6"/>
<circle cx="345" cy="465" r="9" fill="#8593A0" stroke="#1A2028" stroke-width="0.6"/>
<circle cx="345" cy="495" r="9" fill="#8593A0" stroke="#1A2028" stroke-width="0.6"/>
<circle cx="345" cy="525" r="9" fill="#8593A0" stroke="#1A2028" stroke-width="0.6"/>
<circle cx="345" cy="555" r="9" fill="#8593A0" stroke="#1A2028" stroke-width="0.6"/>
<circle cx="345" cy="585" r="9" fill="#8593A0" stroke="#1A2028" stroke-width="0.6"/>
<circle cx="345" cy="615" r="9" fill="#8593A0" stroke="#1A2028" stroke-width="0.6"/>
<circle cx="345" cy="645" r="9" fill="#8593A0" stroke="#1A2028" stroke-width="0.6"/>
<circle cx="345" cy="675" r="9" fill="#8593A0" stroke="#1A2028" stroke-width="0.6"/>
<circle cx="345" cy="705" r="9" fill="#8593A0" stroke="#1A2028" stroke-width="0.6"/>
<circle cx="345" cy="735" r="9" fill="#8593A0" stroke="#1A2028" stroke-width="0.6"/>
<circle cx="345" cy="765" r="9" fill="#8593A0" stroke="#1A2028" stroke-width="0.6"/>
<circle cx="345" cy="795" r="9" fill="#8593A0" stroke="#1A2028" stroke-width="0.6"/>
<circle cx="345" cy="825" r="9" fill="#8593A0" stroke="#1A2028" stroke-width="0.6"/>
<circle cx="345" cy="855" r="9" fill="#8593A0" stroke="#1A2028" stroke-width="0.6"/>
<circle cx="345" cy="885" r="9" fill="#8593A0" stroke="#1A2028" stroke-width="0.6"/>
<circle cx="345" cy="915" r="9" fill="#8593A0" stroke="#1A2028" stroke-width="0.6"/>
<circle cx="345" cy="945" r="9" fill="#8593A0" stroke="#1A2028" stroke-width="0.6"/>
<circle cx="375" cy="15" r="9" fill="#8593A0" stroke="#1A2028" stroke-width="0.6"/>
<circle cx="375" cy="45" r="9" fill="#8593A0" stroke="#1A2028" stroke-width="0.6"/>
<circle cx="375" cy="75" r="9" fill="#8593A0" stroke="#1A2028" stroke-width="0.6"/>
<circle cx="375" cy="105" r="9" fill="#8593A0" stroke="#1A2028" stroke-width="0.6"/>
<circle cx="375" cy="135" r="9" fill="#8593A0" stroke="#1A2028" stroke-width="0.6"/>
<circle cx="375" cy="165" r="9" fill="#8593A0" stroke="#1A2028" stroke-width="0.6"/>
<circle cx="375" cy="195" r="9" fill="#8593A0" stroke="#1A2028" stroke-width="0.6"/>
<circle cx="375" cy="225" r="9" fill="#8593A0" stroke="#1A2028" stroke-width="0.6"/>
<circle cx="375" cy="255" r="9" fill="#8593A0" stroke="#1A2028" stroke-width="0.6"/>
<circle cx="375" cy="285" r="9" fill="#8593A0" stroke="#1A2028" stroke-width="0.6"/>
<circle cx="375" cy="315" r="9" fill="#8593A0" stroke="#1A2028" stroke-width="0.6"/>
<circle cx="375" cy="345" r="9" fill="#8593A0" stroke="#1A2028" stroke-width="0.6"/>
<circle cx="375" cy="375" r="9" fill="#8593A0" stroke="#1A2028" stroke-width="0.6"/>
<circle cx="375" cy="405" r="9" fill="#8593A0" stroke="#1A2028" stroke-width="0.6"/>
<circle cx="375" cy="435" r="9" fill="#8593A0" stroke="#1A2028" stroke-width="0.6"/>
<circle cx="375" cy="465" r="9" fill="#8593A0" stroke="#1A2028" stroke-width="0.6"/>
<circle cx="375" cy="495" r="9" fill="#8593A0" stroke="#1A2028" stroke-width="0.6"/>
<circle cx="375" cy="525" r="9" fill="#8593A0" stroke="#1A2028" stroke-width="0.6"/>
<circle cx="375" cy="555" r="9" fill="#8593A0" stroke="#1A2028" stroke-width="0.6"/>
<circle cx="375" cy="585" r="9" fill="#8593A0" stroke="#1A2028" stroke-width="0.6"/>
<circle cx="375" cy="615" r="9" fill="#8593A0" stroke="#1A2028" stroke-width="0.6"/>
<circle cx="375" cy="645" r="9" fill="#8593A0" stroke="#1A2028" stroke-width="0.6"/>
<circle cx="375" cy="675" r="9" fill="#8593A0" stroke="#1A2028" stroke-width="0.6"/>
<circle cx="375" cy="705" r="9" fill="#8593A0" stroke="#1A2028" stroke-width="0.6"/>
<circle cx="375" cy="735" r="9" fill="#8593A0" stroke="#1A2028" stroke-width="0.6"/>
<circle cx="375" cy="765" r="9" fill="#8593A0" stroke="#1A2028" stroke-width="0.6"/>
<circle cx="375" cy="795" r="9" fill="#8593A0" stroke="#1A2028" stroke-width="0.6"/>
<circle cx="375" cy="825" r="9" fill="#8593A0" stroke="#1A2028" stroke-width="0.6"/>
<circle cx="375" cy="855" r="9" fill="#8593A0" stroke="#1A2028" stroke-width="0.6"/>
<circle cx="375" cy="885" r="9" fill="#8593A0" stroke="#1A2028" stroke-width="0.6"/>
<circle cx="375" cy="915" r="9" fill="#8593A0" stroke="#1A2028" stroke-width="0.6"/>
<circle cx="375" cy="945" r="9" fill="#8593A0" stroke="#1A2028" stroke-width="0.6"/>
<circle cx="405" cy="15" r="9" fill="#8593A0" stroke="#1A2028" stroke-width="0.6"/>
<circle cx="405" cy="45" r="9" fill="#8593A0" stroke="#1A2028" stroke-width="0.6"/>
<circle cx="405" cy="75" r="9" fill="#8593A0" stroke="#1A2028" stroke-width="0.6"/>
<circle cx="405" cy="105" r="9" fill="#8593A0" stroke="#1A2028" stroke-width="0.6"/>
<circle cx="405" cy="135" r="9" fill="#8593A0" stroke="#1A2028" stroke-width="0.6"/>
<circle cx="405" cy="165" r="9" fill="#8593A0" stroke="#1A2028" stroke-width="0.6"/>
<circle cx="405" cy="195" r="9" fill="#8593A0" stroke="#1A2028" stroke-width="0.6"/>
<circle cx="405" cy="225" r="9" fill="#8593A0" stroke="#1A2028" stroke-width="0.6"/>
<circle cx="405" cy="255" r="9" fill="#8593A0" stroke="#1A2028" stroke-width="0.6"/>
<circle cx="405" cy="285" r="9" fill="#8593A0" stroke="#1A2028" stroke-width="0.6"/>
<circle cx="405" cy="315" r="9" fill="#8593A0" stroke="#1A2028" stroke-width="0.6"/>
<circle cx="405" cy="345" r="9" fill="#8593A0" stroke="#1A2028" stroke-width="0.6"/>
<circle cx="405" cy="375" r="9" fill="#8593A0" stroke="#1A2028" stroke-width="0.6"/>
<circle cx="405" cy="405" r="9" fill="#8593A0" stroke="#1A2028" stroke-width="0.6"/>
<circle cx="405" cy="435" r="9" fill="#8593A0" stroke="#1A2028" stroke-width="0.6"/>
<circle cx="405" cy="465" r="9" fill="#8593A0" stroke="#1A2028" stroke-width="0.6"/>
<circle cx="405" cy="495" r="9" fill="#8593A0" stroke="#1A2028" stroke-width="0.6"/>
<circle cx="405" cy="525" r="9" fill="#8593A0" stroke="#1A2028" stroke-width="0.6"/>
<circle cx="405" cy="555" r="9" fill="#8593A0" stroke="#1A2028" stroke-width="0.6"/>
<circle cx="405" cy="585" r="9" fill="#8593A0" stroke="#1A2028" stroke-width="0.6"/>
<circle cx="405" cy="615" r="9" fill="#8593A0" stroke="#1A2028" stroke-width="0.6"/>
<circle cx="405" cy="645" r="9" fill="#8593A0" stroke="#1A2028" stroke-width="0.6"/>
<circle cx="405" cy="675" r="9" fill="#8593A0" stroke="#1A2028" stroke-width="0.6"/>
<circle cx="405" cy="705" r="9" fill="#8593A0" stroke="#1A2028" stroke-width="0.6"/>
<circle cx="405" cy="735" r="9" fill="#8593A0" stroke="#1A2028" stroke-width="0.6"/>
<circle cx="405" cy="765" r="9" fill="#8593A0" stroke="#1A2028" stroke-width="0.6"/>
<circle cx="405" cy="795" r="9" fill="#8593A0" stroke="#1A2028" stroke-width="0.6"/>
<circle cx="405" cy="825" r="9" fill="#8593A0" stroke="#1A2028" stroke-width="0.6"/>
<circle cx="405" cy="855" r="9" fill="#8593A0" stroke="#1A2028" stroke-width="0.6"/>
<circle cx="405" cy="885" r="9" fill="#8593A0" stroke="#1A2028" stroke-width="0.6"/>
<circle cx="405" cy="915" r="9" fill="#8593A0" stroke="#1A2028" stroke-width="0.6"/>
<circle cx="405" cy="945" r="9" fill="#8593A0" stroke="#1A2028" stroke-width="0.6"/>
<circle cx="435" cy="15" r="9" fill="#8593A0" stroke="#1A2028" stroke-width="0.6"/>
<circle cx="435" cy="45" r="9" fill="#8593A0" stroke="#1A2028" stroke-width="0.6"/>
<circle cx="435" cy="75" r="9" fill="#8593A0" stroke="#1A2028" stroke-width="0.6"/>
<circle cx="435" cy="105" r="9" fill="#8593A0" stroke="#1A2028" stroke-width="0.6"/>
<circle cx="435" cy="135" r="9" fill="#8593A0" stroke="#1A2028" stroke-width="0.6"/>
<circle cx="435" cy="165" r="9" fill="#8593A0" stroke="#1A2028" stroke-width="0.6"/>
<circle cx="435" cy="195" r="9" fill="#8593A0" stroke="#1A2028" stroke-width="0.6"/>
<circle cx="435" cy="225" r="9" fill="#8593A0" stroke="#1A2028" stroke-width="0.6"/>
<circle cx="435" cy="255" r="9" fill="#8593A0" stroke="#1A2028" stroke-width="0.6"/>
<circle cx="435" cy="285" r="9" fill="#8593A0" stroke="#1A2028" stroke-width="0.6"/>
<circle cx="435" cy="315" r="9" fill="#8593A0" stroke="#1A2028" stroke-width="0.6"/>
<circle cx="435" cy="345" r="9" fill="#8593A0" stroke="#1A2028" stroke-width="0.6"/>
<circle cx="435" cy="375" r="9" fill="#8593A0" stroke="#1A2028" stroke-width="0.6"/>
<circle cx="435" cy="405" r="9" fill="#8593A0" stroke="#1A2028" stroke-width="0.6"/>
<circle cx="435" cy="435" r="9" fill="#8593A0" stroke="#1A2028" stroke-width="0.6"/>
<circle cx="435" cy="465" r="9" fill="#8593A0" stroke="#1A2028" stroke-width="0.6"/>
<circle cx="435" cy="495" r="9" fill="#8593A0" stroke="#1A2028" stroke-width="0.6"/>
<circle cx="435" cy="525" r="9" fill="#8593A0" stroke="#1A2028" stroke-width="0.6"/>
<circle cx="435" cy="555" r="9" fill="#8593A0" stroke="#1A2028" stroke-width="0.6"/>
<circle cx="435" cy="585" r="9" fill="#8593A0" stroke="#1A2028" stroke-width="0.6"/>
<circle cx="435" cy="615" r="9" fill="#8593A0" stroke="#1A2028" stroke-width="0.6"/>
<circle cx="435" cy="645" r="9" fill="#8593A0" stroke="#1A2028" stroke-width="0.6"/>
<circle cx="435" cy="675" r="9" fill="#8593A0" stroke="#1A2028" stroke-width="0.6"/>
<circle cx="435" cy="705" r="9" fill="#8593A0" stroke="#1A2028" stroke-width="0.6"/>
<circle cx="435" cy="735" r="9" fill="#8593A0" stroke="#1A2028" stroke-width="0.6"/>
<circle cx="435" cy="765" r="9" fill="#8593A0" stroke="#1A2028" stroke-width="0.6"/>
<circle cx="435" cy="795" r="9" fill="#8593A0" stroke="#1A2028" stroke-width="0.6"/>
<circle cx="435" cy="825" r="9" fill="#8593A0" stroke="#1A2028" stroke-width="0.6"/>
<circle cx="435" cy="855" r="9" fill="#8593A0" stroke="#1A2028" stroke-width="0.6"/>
<circle cx="435" cy="885" r="9" fill="#8593A0" stroke="#1A2028" stroke-width="0.6"/>
<circle cx="435" cy="915" r="9" fill="#8593A0" stroke="#1A2028" stroke-width="0.6"/>
<circle cx="435" cy="945" r="9" fill="#8593A0" stroke="#1A2028" stroke-width="0.6"/>
<circle cx="465" cy="15" r="9" fill="#8593A0" stroke="#1A2028" stroke-width="0.6"/>
<circle cx="465" cy="45" r="9" fill="#8593A0" stroke="#1A2028" stroke-width="0.6"/>
<circle cx="465" cy="75" r="9" fill="#8593A0" stroke="#1A2028" stroke-width="0.6"/>
<circle cx="465" cy="105" r="9" fill="#8593A0" stroke="#1A2028" stroke-width="0.6"/>
<circle cx="465" cy="135" r="9" fill="#8593A0" stroke="#1A2028" stroke-width="0.6"/>
<circle cx="465" cy="165" r="9" fill="#8593A0" stroke="#1A2028" stroke-width="0.6"/>
<circle cx="465" cy="195" r="9" fill="#8593A0" stroke="#1A2028" stroke-width="0.6"/>
<circle cx="465" cy="225" r="9" fill="#8593A0" stroke="#1A2028" stroke-width="0.6"/>
<circle cx="465" cy="255" r="9" fill="#8593A0" stroke="#1A2028" stroke-width="0.6"/>
<circle cx="465" cy="285" r="9" fill="#8593A0" stroke="#1A2028" stroke-width="0.6"/>
<circle cx="465" cy="315" r="9" fill="#8593A0" stroke="#1A2028" stroke-width="0.6"/>
<circle cx="465" cy="345" r="9" fill="#8593A0" stroke="#1A2028" stroke-width="0.6"/>
<circle cx="465" cy="375" r="9" fill="#8593A0" stroke="#1A2028" stroke-width="0.6"/>
<circle cx="465" cy="405" r="9" fill="#8593A0" stroke="#1A2028" stroke-width="0.6"/>
<circle cx="465" cy="435" r="9" fill="#8593A0" stroke="#1A2028" stroke-width="0.6"/>
<circle cx="465" cy="465" r="9" fill="#8593A0" stroke="#1A2028" stroke-width="0.6"/>
<circle cx="465" cy="495" r="9" fill="#8593A0" stroke="#1A2028" stroke-width="0.6"/>
<circle cx="465" cy="525" r="9" fill="#8593A0" stroke="#1A2028" stroke-width="0.6"/>
<circle cx="465" cy="555" r="9" fill="#8593A0" stroke="#1A2028" stroke-width="0.6"/>
<circle cx="465" cy="585" r="9" fill="#8593A0" stroke="#1A2028" stroke-width="0.6"/>
<circle cx="465" cy="615" r="9" fill="#8593A0" stroke="#1A2028" stroke-width="0.6"/>
<circle cx="465" cy="645" r="9" fill="#8593A0" stroke="#1A2028" stroke-width="0.6"/>
<circle cx="465" cy="675" r="9" fill="#8593A0" stroke="#1A2028" stroke-width="0.6"/>
<circle cx="465" cy="705" r="9" fill="#8593A0" stroke="#1A2028" stroke-width="0.6"/>
<circle cx="465" cy="735" r="9" fill="#8593A0" stroke="#1A2028" stroke-width="0.6"/>
<circle cx="465" cy="765" r="9" fill="#8593A0" stroke="#1A2028" stroke-width="0.6"/>
<circle cx="465" cy="795" r="9" fill="#8593A0" stroke="#1A2028" stroke-width="0.6"/>
<circle cx="465" cy="825" r="9" fill="#8593A0" stroke="#1A2028" stroke-width="0.6"/>
<circle cx="465" cy="855" r="9" fill="#8593A0" stroke="#1A2028" stroke-width="0.6"/>
<circle cx="465" cy="885" r="9" fill="#8593A0" stroke="#1A2028" stroke-width="0.6"/>
<circle cx="465" cy="915" r="9" fill="#8593A0" stroke="#1A2028" stroke-width="0.6"/>
<circle cx="465" cy="945" r="9" fill="#8593A0" stroke="#1A2028" stroke-width="0.6"/>
</svg>
