<svg xmlns="http://www.w3.org/2000/svg" viewBox="-4 -4 248 248" role="img" aria-label="plate-8x8 ocean (top-down)">
<title>plate-8x8 ocean (top-down)</title>
<rect x="0" y="0" width="240" height="240" rx="2" fill="#1E5E82" stroke="#042031" stroke-width="0.6"/>
<circle cx="15" cy="15" r="9" fill="#3D89AF" stroke="#042031" stroke-width="0.6"/>
<circle cx="15" cy="45" r="9" fill="#3D89AF" stroke="#042031" stroke-width="0.6"/>
<circle cx="15" cy="75" r="9" fill="#3D89AF" stroke="#042031" stroke-width="0.6"/>
<circle cx="15" cy="105" r="9" fill="#3D89AF" stroke="#042031" stroke-width="0.6"/>
<circle cx="15" cy="135" r="9" fill="#3D89AF" stroke="#042031" stroke-width="0.6"/>
<circle cx="15" cy="165" r="9" fill="#3D89AF" stroke="#042031" stroke-width="0.6"/>
<circle cx="15" cy="195" r="9" fill="#3D89AF" stroke="#042031" stroke-width="0.6"/>
<circle cx="15" cy="225" r="9" fill="#3D89AF" stroke="#042031" stroke-width="0.6"/>
<circle cx="45" cy="15" r="9" fill="#3D89AF" stroke="#042031" stroke-width="0.6"/>
<circle cx="45" cy="45" r="9" fill="#3D89AF" stroke="#042031" stroke-width="0.6"/>
<circle cx="45" cy="75" r="9" fill="#3D89AF" stroke="#042031" stroke-width="0.6"/>
<circle cx="45" cy="105" r="9" fill="#3D89AF" stroke="#042031" stroke-width="0.6"/>
<circle cx="45" cy="135" r="9" fill="#3D89AF" stroke="#042031" stroke-width="0.6"/>
<circle cx="45" cy="165" r="9" fill="#3D89AF" stroke="#042031" stroke-width="0.6"/>
<circle cx="45" cy="195" r="9" fill="#3D89AF" stroke="#042031" stroke-width="0.6"/>
<circle cx="45" cy="225" r="9" fill="#3D89AF" stroke="#042031" stroke-width="0.6"/>
<circle cx="75" cy="15" r="9" fill="#3D89AF" stroke="#042031" stroke-width="0.6"/>
<circle cx="75" cy="45" r="9" fill="#3D89AF" stroke="#042031" stroke-width="0.6"/>
<circle cx="75" cy="75" r="9" fill="#3D89AF" stroke="#042031" stroke-width="0.6"/>
<circle cx="75" cy="105" r="9" fill="#3D89AF" stroke="#042031" stroke-width="0.6"/>
<circle cx="75" cy="135" r="9" fill="#3D89AF" stroke="#042031" stroke-width="0.6"/>
<circle cx="75" cy="165" r="9" fill="#3D89AF" stroke="#042031" stroke-width="0.6"/>
<circle cx="75" cy="195" r="9" fill="#3D89AF" stroke="#042031" stroke-width="0.6"/>
<circle cx="75" cy="225" r="9" fill="#3D89AF" stroke="#042031" stroke-width="0.6"/>
<circle cx="105" cy="15" r="9" fill="#3D89AF" stroke="#042031" stroke-width="0.6"/>
<circle cx="105" cy="45" r="9" fill="#3D89AF" stroke="#042031" stroke-width="0.6"/>
<circle cx="105" cy="75" r="9" fill="#3D89AF" stroke="#042031" stroke-width="0.6"/>
<circle cx="105" cy="105" r="9" fill="#3D89AF" stroke="#042031" stroke-width="0.6"/>
<circle cx="105" cy="135" r="9" fill="#3D89AF" stroke="#042031" stroke-width="0.6"/>
<circle cx="105" cy="165" r="9" fill="#3D89AF" stroke="#042031" stroke-width="0.6"/>
<circle cx="105" cy="195" r="9" fill="#3D89AF" stroke="#042031" stroke-width="0.6"/>
<circle cx="105" cy="225" r="9" fill="#3D89AF" stroke="#042031" stroke-width="0.6"/>
<circle cx="135" cy="15" r="9" fill="#3D89AF" stroke="#042031" stroke-width="0.6"/>
<circle cx="135" cy="45" r="9" fill="#3D89AF" stroke="#042031" stroke-width="0.6"/>
<circle cx="135" cy="75" r="9" fill="#3D89AF" stroke="#042031" stroke-width="0.6"/>
<circle cx="135" cy="105" r="9" fill="#3D89AF" stroke="#042031" stroke-width="0.6"/>
<circle cx="135" cy="135" r="9" fill="#3D89AF" stroke="#042031" stroke-width="0.6"/>
<circle cx="135" cy="165" r="9" fill="#3D89AF" stroke="#042031" stroke-width="0.6"/>
<circle cx="135" cy="195" r="9" fill="#3D89AF" stroke="#042031" stroke-width="0.6"/>
<circle cx="135" cy="225" r="9" fill="#3D89AF" stroke="#042031" stroke-width="0.6"/>
<circle cx="165" cy="15" r="9" fill="#3D89AF" stroke="#042031" stroke-width="0.6"/>
<circle cx="165" cy="45" r="9" fill="#3D89AF" stroke="#042031" stroke-width="0.6"/>
<circle cx="165" cy="75" r="9" fill="#3D89AF" stroke="#042031" stroke-width="0.6"/>
<circle cx="165" cy="105" r="9" fill="#3D89AF" stroke="#042031" stroke-width="0.6"/>
<circle cx="165" cy="135" r="9" fill="#3D89AF" stroke="#042031" stroke-width="0.6"/>
<circle cx="165" cy="165" r="9" fill="#3D89AF" stroke="#042031" stroke-width="0.6"/>
<circle cx="165" cy="195" r="9" fill="#3D89AF" stroke="#042031" stroke-width="0.6"/>
<circle cx="165" cy="225" r="9" fill="#3D89AF" stroke="#042031" stroke-width="0.6"/>
<circle cx="195" cy="15" r="9" fill="#3D89AF" stroke="#042031" stroke-width="0.6"/>
<circle cx="195" cy="45" r="9" fill="#3D89AF" stroke="#042031" stroke-width="0.6"/>
<circle cx="195" cy="75" r="9" fill="#3D89AF" stroke="#042031" stroke-width="0.6"/>
<circle cx="195" cy="105" r="9" fill="#3D89AF" stroke="#042031" stroke-width="0.6"/>
<circle cx="195" cy="135" r="9" fill="#3D89AF" stroke="#042031" stroke-width="0.6"/>
<circle cx="195" cy="165" r="9" fill="#3D89AF" stroke="#042031" stroke-width="0.6"/>
<circle cx="195" cy="195" r="9" fill="#3D89AF" stroke="#042031" stroke-width="0.6"/>
<circle cx="195" cy="225" r="9" fill="#3D89AF" stroke="#042031" stroke-width="0.6"/>
<circle cx="225" cy="15" r="9" fill="#3D89AF" stroke="#042031" stroke-width="0.6"/>
<circle cx="225" cy="45" r="9" fill="#3D89AF" stroke="#042031" stroke-width="0.6"/>
<circle cx="225" cy="75" r="9" fill="#3D89AF" stroke="#042031" stroke-width="0.6"/>
<circle cx="225" cy="105" r="9" fill="#3D89AF" stroke="#042031" stroke-width="0.6"/>
<circle cx="225" cy="135" r="9" fill="#3D89AF" stroke="#042031" stroke-width="0.6"/>
<circle cx="225" cy="165" r="9" fill="#3D89AF" stroke="#042031" stroke-width="0.6"/>
<circle cx="225" cy="195" r="9" fill="#3D89AF" stroke="#042031" stroke-width="0.6"/>
<circle cx="225" cy="225" r="9" fill="#3D89AF" stroke="#042031" stroke-width="0.6"/>
</svg>
