<svg xmlns="http://www.w3.org/2000/svg" viewBox="-64 -12.5 128 112.5" role="img" aria-label="brick-2x2 cloud (isometric)">
<title>brick-2x2 cloud (isometric)</title>
<polygon points="0,60 -60,30 -60,66 0,96" fill="#D9F1F9" stroke="#1E5E82" stroke-width="0.6" stroke-linejoin="round"/>
<polygon points="0,60 60,30 60,66 0,96" fill="#B8E5F5" stroke="#1E5E82" stroke-width="0.6" stroke-linejoin="round"/>
<polygon points="0,0 60,30 0,60 -60,30" fill="#EEF9FD" stroke="#1E5E82" stroke-width="0.6" stroke-linejoin="round"/>
<ellipse cx="0" cy="15" rx="9" ry="4.5" fill="#D9F1F9" stroke="#1E5E82" stroke-width="0.6"/>
<rect x="-9" y="11" width="18" height="4" fill="#D9F1F9"/>
<path d="M -9 11 L -9 15 M 9 11 L 9 15" fill="none" stroke="#1E5E82" stroke-width="0.6"/>
<ellipse cx="0" cy="11" rx="9" ry="4.5" fill="#FFFFFF" stroke="#1E5E82" stroke-width="0.6"/>
<ellipse cx="-30" cy="30" rx="9" ry="4.5" fill="#D9F1F9" stroke="#1E5E82" stroke-width="0.6"/>
<rect x="-39" y="26" width="18" height="4" fill="#D9F1F9"/>
<path d="M -39 26 L -39 30 M -21 26 L -21 30" fill="none" stroke="#1E5E82" stroke-width="0.6"/>
<ellipse cx="-30" cy="26" rx="9" ry="4.5" fill="#FFFFFF" stroke="#1E5E82" stroke-width="0.6"/>
<ellipse cx="30" cy="30" rx="9" ry="4.5" fill="#D9F1F9" stroke="#1E5E82" stroke-width="0.6"/>
<rect x="21" y="26" width="18" height="4" fill="#D9F1F9"/>
<path d="M 21 26 L 21 30 M 39 26 L 39 30" fill="none" stroke="#1E5E82" stroke-width="0.6"/>
<ellipse cx="30" cy="26" rx="9" ry="4.5" fill="#FFFFFF" stroke="#1E5E82" stroke-width="0.6"/>
<ellipse cx="0" cy="45" rx="9" ry="4.5" fill="#D9F1F9" stroke="#1E5E82" stroke-width="0.6"/>
<rect x="-9" y="41" width="18" height="4" fill="#D9F1F9"/>
<path d="M -9 41 L -9 45 M 9 41 L 9 45" fill="none" stroke="#1E5E82" stroke-width="0.6"/>
<ellipse cx="0" cy="41" rx="9" ry="4.5" fill="#FFFFFF" stroke="#1E5E82" stroke-width="0.6"/>
</svg>
