<svg xmlns="http://www.w3.org/2000/svg" viewBox="-124 -12.5 308 202.5" role="img" aria-label="brick-4x6 flamingo (isometric mirror)">
<title>brick-4x6 flamingo (isometric mirror)</title>
<polygon points="60,150 180,90 180,126 60,186" fill="#9E3456" stroke="#550E28" stroke-width="0.6" stroke-linejoin="round"/>
<polygon points="60,150 -120,60 -120,96 60,186" fill="#C25079" stroke="#550E28" stroke-width="0.6" stroke-linejoin="round"/>
<polygon points="0,0 -120,60 60,150 180,90" fill="#D86E89" stroke="#550E28" stroke-width="0.6" stroke-linejoin="round"/>
<ellipse cx="0" cy="15" rx="9" ry="4.5" fill="#C25079" stroke="#550E28" stroke-width="0.6"/>
<rect x="-9" y="11" width="18" height="4" fill="#C25079"/>
<path d="M -9 11 L -9 15 M 9 11 L 9 15" fill="none" stroke="#550E28" stroke-width="0.6"/>
<ellipse cx="0" cy="11" rx="9" ry="4.5" fill="#E690A2" stroke="#550E28" stroke-width="0.6"/>
<ellipse cx="30" cy="30" rx="9" ry="4.5" fill="#C25079" stroke="#550E28" stroke-width="0.6"/>
<rect x="21" y="26" width="18" height="4" fill="#C25079"/>
<path d="M 21 26 L 21 30 M 39 26 L 39 30" fill="none" stroke="#550E28" stroke-width="0.6"/>
<ellipse cx="30" cy="26" rx="9" ry="4.5" fill="#E690A2" stroke="#550E28" stroke-width="0.6"/>
<ellipse cx="60" cy="45" rx="9" ry="4.5" fill="#C25079" stroke="#550E28" stroke-width="0.6"/>
<rect x="51" y="41" width="18" height="4" fill="#C25079"/>
<path d="M 51 41 L 51 45 M 69 41 L 69 45" fill="none" stroke="#550E28" stroke-width="0.6"/>
<ellipse cx="60" cy="41" rx="9" ry="4.5" fill="#E690A2" stroke="#550E28" stroke-width="0.6"/>
<ellipse cx="90" cy="60" rx="9" ry="4.5" fill="#C25079" stroke="#550E28" stroke-width="0.6"/>
<rect x="81" y="56" width="18" height="4" fill="#C25079"/>
<path d="M 81 56 L 81 60 M 99 56 L 99 60" fill="none" stroke="#550E28" stroke-width="0.6"/>
<ellipse cx="90" cy="56" rx="9" ry="4.5" fill="#E690A2" stroke="#550E28" stroke-width="0.6"/>
<ellipse cx="120" cy="75" rx="9" ry="4.5" fill="#C25079" stroke="#550E28" stroke-width="0.6"/>
<rect x="111" y="71" width="18" height="4" fill="#C25079"/>
<path d="M 111 71 L 111 75 M 129 71 L 129 75" fill="none" stroke="#550E28" stroke-width="0.6"/>
<ellipse cx="120" cy="71" rx="9" ry="4.5" fill="#E690A2" stroke="#550E28" stroke-width="0.6"/>
<ellipse cx="150" cy="90" rx="9" ry="4.5" fill="#C25079" stroke="#550E28" stroke-width="0.6"/>
<rect x="141" y="86" width="18" height="4" fill="#C25079"/>
<path d="M 141 86 L 141 90 M 159 86 L 159 90" fill="none" stroke="#550E28" stroke-width="0.6"/>
<ellipse cx="150" cy="86" rx="9" ry="4.5" fill="#E690A2" stroke="#550E28" stroke-width="0.6"/>
<ellipse cx="-30" cy="30" rx="9" ry="4.5" fill="#C25079" stroke="#550E28" stroke-width="0.6"/>
<rect x="-39" y="26" width="18" height="4" fill="#C25079"/>
<path d="M -39 26 L -39 30 M -21 26 L -21 30" fill="none" stroke="#550E28" stroke-width="0.6"/>
<ellipse cx="-30" cy="26" rx="9" ry="4.5" fill="#E690A2" stroke="#550E28" stroke-width="0.6"/>
<ellipse cx="0" cy="45" rx="9" ry="4.5" fill="#C25079" stroke="#550E28" stroke-width="0.6"/>
<rect x="-9" y="41" width="18" height="4" fill="#C25079"/>
<path d="M -9 41 L -9 45 M 9 41 L 9 45" fill="none" stroke="#550E28" stroke-width="0.6"/>
<ellipse cx="0" cy="41" rx="9" ry="4.5" fill="#E690A2" stroke="#550E28" stroke-width="0.6"/>
<ellipse cx="30" cy="60" rx="9" ry="4.5" fill="#C25079" stroke="#550E28" stroke-width="0.6"/>
<rect x="21" y="56" width="18" height="4" fill="#C25079"/>
<path d="M 21 56 L 21 60 M 39 56 L 39 60" fill="none" stroke="#550E28" stroke-width="0.6"/>
<ellipse cx="30" cy="56" rx="9" ry="4.5" fill="#E690A2" stroke="#550E28" stroke-width="0.6"/>
<ellipse cx="60" cy="75" rx="9" ry="4.5" fill="#C25079" stroke="#550E28" stroke-width="0.6"/>
<rect x="51" y="71" width="18" height="4" fill="#C25079"/>
<path d="M 51 71 L 51 75 M 69 71 L 69 75" fill="none" stroke="#550E28" stroke-width="0.6"/>
<ellipse cx="60" cy="71" rx="9" ry="4.5" fill="#E690A2" stroke="#550E28" stroke-width="0.6"/>
<ellipse cx="90" cy="90" rx="9" ry="4.5" fill="#C25079" stroke="#550E28" stroke-width="0.6"/>
<rect x="81" y="86" width="18" height="4" fill="#C25079"/>
<path d="M 81 86 L 81 90 M 99 86 L 99 90" fill="none" stroke="#550E28" stroke-width="0.6"/>
<ellipse cx="90" cy="86" rx="9" ry="4.5" fill="#E690A2" stroke="#550E28" stroke-width="0.6"/>
<ellipse cx="120" cy="105" rx="9" ry="4.5" fill="#C25079" stroke="#550E28" stroke-width="0.6"/>
<rect x="111" y="101" width="18" height="4" fill="#C25079"/>
<path d="M 111 101 L 111 105 M 129 101 L 129 105" fill="none" stroke="#550E28" stroke-width="0.6"/>
<ellipse cx="120" cy="101" rx="9" ry="4.5" fill="#E690A2" stroke="#550E28" stroke-width="0.6"/>
<ellipse cx="-60" cy="45" rx="9" ry="4.5" fill="#C25079" stroke="#550E28" stroke-width="0.6"/>
<rect x="-69" y="41" width="18" height="4" fill="#C25079"/>
<path d="M -69 41 L -69 45 M -51 41 L -51 45" fill="none" stroke="#550E28" stroke-width="0.6"/>
<ellipse cx="-60" cy="41" rx="9" ry="4.5" fill="#E690A2" stroke="#550E28" stroke-width="0.6"/>
<ellipse cx="-30" cy="60" rx="9" ry="4.5" fill="#C25079" stroke="#550E28" stroke-width="0.6"/>
<rect x="-39" y="56" width="18" height="4" fill="#C25079"/>
<path d="M -39 56 L -39 60 M -21 56 L -21 60" fill="none" stroke="#550E28" stroke-width="0.6"/>
<ellipse cx="-30" cy="56" rx="9" ry="4.5" fill="#E690A2" stroke="#550E28" stroke-width="0.6"/>
<ellipse cx="0" cy="75" rx="9" ry="4.5" fill="#C25079" stroke="#550E28" stroke-width="0.6"/>
<rect x="-9" y="71" width="18" height="4" fill="#C25079"/>
<path d="M -9 71 L -9 75 M 9 71 L 9 75" fill="none" stroke="#550E28" stroke-width="0.6"/>
<ellipse cx="0" cy="71" rx="9" ry="4.5" fill="#E690A2" stroke="#550E28" stroke-width="0.6"/>
<ellipse cx="30" cy="90" rx="9" ry="4.5" fill="#C25079" stroke="#550E28" stroke-width="0.6"/>
<rect x="21" y="86" width="18" height="4" fill="#C25079"/>
<path d="M 21 86 L 21 90 M 39 86 L 39 90" fill="none" stroke="#550E28" stroke-width="0.6"/>
<ellipse cx="30" cy="86" rx="9" ry="4.5" fill="#E690A2" stroke="#550E28" stroke-width="0.6"/>
<ellipse cx="60" cy="105" rx="9" ry="4.5" fill="#C25079" stroke="#550E28" stroke-width="0.6"/>
<rect x="51" y="101" width="18" height="4" fill="#C25079"/>
<path d="M 51 101 L 51 105 M 69 101 L 69 105" fill="none" stroke="#550E28" stroke-width="0.6"/>
<ellipse cx="60" cy="101" rx="9" ry="4.5" fill="#E690A2" stroke="#550E28" stroke-width="0.6"/>
<ellipse cx="90" cy="120" rx="9" ry="4.5" fill="#C25079" stroke="#550E28" stroke-width="0.6"/>
<rect x="81" y="116" width="18" height="4" fill="#C25079"/>
<path d="M 81 116 L 81 120 M 99 116 L 99 120" fill="none" stroke="#550E28" stroke-width="0.6"/>
<ellipse cx="90" cy="116" rx="9" ry="4.5" fill="#E690A2" stroke="#550E28" stroke-width="0.6"/>
<ellipse cx="-90" cy="60" rx="9" ry="4.5" fill="#C25079" stroke="#550E28" stroke-width="0.6"/>
<rect x="-99" y="56" width="18" height="4" fill="#C25079"/>
<path d="M -99 56 L -99 60 M -81 56 L -81 60" fill="none" stroke="#550E28" stroke-width="0.6"/>
<ellipse cx="-90" cy="56" rx="9" ry="4.5" fill="#E690A2" stroke="#550E28" stroke-width="0.6"/>
<ellipse cx="-60" cy="75" rx="9" ry="4.5" fill="#C25079" stroke="#550E28" stroke-width="0.6"/>
<rect x="-69" y="71" width="18" height="4" fill="#C25079"/>
<path d="M -69 71 L -69 75 M -51 71 L -51 75" fill="none" stroke="#550E28" stroke-width="0.6"/>
<ellipse cx="-60" cy="71" rx="9" ry="4.5" fill="#E690A2" stroke="#550E28" stroke-width="0.6"/>
<ellipse cx="-30" cy="90" rx="9" ry="4.5" fill="#C25079" stroke="#550E28" stroke-width="0.6"/>
<rect x="-39" y="86" width="18" height="4" fill="#C25079"/>
<path d="M -39 86 L -39 90 M -21 86 L -21 90" fill="none" stroke="#550E28" stroke-width="0.6"/>
<ellipse cx="-30" cy="86" rx="9" ry="4.5" fill="#E690A2" stroke="#550E28" stroke-width="0.6"/>
<ellipse cx="0" cy="105" rx="9" ry="4.5" fill="#C25079" stroke="#550E28" stroke-width="0.6"/>
<rect x="-9" y="101" width="18" height="4" fill="#C25079"/>
<path d="M -9 101 L -9 105 M 9 101 L 9 105" fill="none" stroke="#550E28" stroke-width="0.6"/>
<ellipse cx="0" cy="101" rx="9" ry="4.5" fill="#E690A2" stroke="#550E28" stroke-width="0.6"/>
<ellipse cx="30" cy="120" rx="9" ry="4.5" fill="#C25079" stroke="#550E28" stroke-width="0.6"/>
<rect x="21" y="116" width="18" height="4" fill="#C25079"/>
<path d="M 21 116 L 21 120 M 39 116 L 39 120" fill="none" stroke="#550E28" stroke-width="0.6"/>
<ellipse cx="30" cy="116" rx="9" ry="4.5" fill="#E690A2" stroke="#550E28" stroke-width="0.6"/>
<ellipse cx="60" cy="135" rx="9" ry="4.5" fill="#C25079" stroke="#550E28" stroke-width="0.6"/>
<rect x="51" y="131" width="18" height="4" fill="#C25079"/>
<path d="M 51 131 L 51 135 M 69 131 L 69 135" fill="none" stroke="#550E28" stroke-width="0.6"/>
<ellipse cx="60" cy="131" rx="9" ry="4.5" fill="#E690A2" stroke="#550E28" stroke-width="0.6"/>
</svg>
