<svg xmlns="http://www.w3.org/2000/svg" viewBox="-244 -12.5 488 268.5" role="img" aria-label="plate-8x8 ocean (isometric)">
<title>plate-8x8 ocean (isometric)</title>
<polygon points="0,240 -240,120 -240,132 0,252" fill="#174E6E" stroke="#042031" stroke-width="0.6" stroke-linejoin="round"/>
<polygon points="0,240 240,120 240,132 0,252" fill="#103D57" stroke="#042031" stroke-width="0.6" stroke-linejoin="round"/>
<polygon points="0,0 240,120 0,240 -240,120" fill="#1E5E82" stroke="#042031" stroke-width="0.6" stroke-linejoin="round"/>
<ellipse cx="0" cy="15" rx="9" ry="4.5" fill="#174E6E" stroke="#042031" stroke-width="0.6"/>
<rect x="-9" y="11" width="18" height="4" fill="#174E6E"/>
<path d="M -9 11 L -9 15 M 9 11 L 9 15" fill="none" stroke="#042031" stroke-width="0.6"/>
<ellipse cx="0" cy="11" rx="9" ry="4.5" fill="#3D89AF" stroke="#042031" stroke-width="0.6"/>
<ellipse cx="-30" cy="30" rx="9" ry="4.5" fill="#174E6E" stroke="#042031" stroke-width="0.6"/>
<rect x="-39" y="26" width="18" height="4" fill="#174E6E"/>
<path d="M -39 26 L -39 30 M -21 26 L -21 30" fill="none" stroke="#042031" stroke-width="0.6"/>
<ellipse cx="-30" cy="26" rx="9" ry="4.5" fill="#3D89AF" stroke="#042031" stroke-width="0.6"/>
<ellipse cx="-60" cy="45" rx="9" ry="4.5" fill="#174E6E" stroke="#042031" stroke-width="0.6"/>
<rect x="-69" y="41" width="18" height="4" fill="#174E6E"/>
<path d="M -69 41 L -69 45 M -51 41 L -51 45" fill="none" stroke="#042031" stroke-width="0.6"/>
<ellipse cx="-60" cy="41" rx="9" ry="4.5" fill="#3D89AF" stroke="#042031" stroke-width="0.6"/>
<ellipse cx="-90" cy="60" rx="9" ry="4.5" fill="#174E6E" stroke="#042031" stroke-width="0.6"/>
<rect x="-99" y="56" width="18" height="4" fill="#174E6E"/>
<path d="M -99 56 L -99 60 M -81 56 L -81 60" fill="none" stroke="#042031" stroke-width="0.6"/>
<ellipse cx="-90" cy="56" rx="9" ry="4.5" fill="#3D89AF" stroke="#042031" stroke-width="0.6"/>
<ellipse cx="-120" cy="75" rx="9" ry="4.5" fill="#174E6E" stroke="#042031" stroke-width="0.6"/>
<rect x="-129" y="71" width="18" height="4" fill="#174E6E"/>
<path d="M -129 71 L -129 75 M -111 71 L -111 75" fill="none" stroke="#042031" stroke-width="0.6"/>
<ellipse cx="-120" cy="71" rx="9" ry="4.5" fill="#3D89AF" stroke="#042031" stroke-width="0.6"/>
<ellipse cx="-150" cy="90" rx="9" ry="4.5" fill="#174E6E" stroke="#042031" stroke-width="0.6"/>
<rect x="-159" y="86" width="18" height="4" fill="#174E6E"/>
<path d="M -159 86 L -159 90 M -141 86 L -141 90" fill="none" stroke="#042031" stroke-width="0.6"/>
<ellipse cx="-150" cy="86" rx="9" ry="4.5" fill="#3D89AF" stroke="#042031" stroke-width="0.6"/>
<ellipse cx="-180" cy="105" rx="9" ry="4.5" fill="#174E6E" stroke="#042031" stroke-width="0.6"/>
<rect x="-189" y="101" width="18" height="4" fill="#174E6E"/>
<path d="M -189 101 L -189 105 M -171 101 L -171 105" fill="none" stroke="#042031" stroke-width="0.6"/>
<ellipse cx="-180" cy="101" rx="9" ry="4.5" fill="#3D89AF" stroke="#042031" stroke-width="0.6"/>
<ellipse cx="-210" cy="120" rx="9" ry="4.5" fill="#174E6E" stroke="#042031" stroke-width="0.6"/>
<rect x="-219" y="116" width="18" height="4" fill="#174E6E"/>
<path d="M -219 116 L -219 120 M -201 116 L -201 120" fill="none" stroke="#042031" stroke-width="0.6"/>
<ellipse cx="-210" cy="116" rx="9" ry="4.5" fill="#3D89AF" stroke="#042031" stroke-width="0.6"/>
<ellipse cx="30" cy="30" rx="9" ry="4.5" fill="#174E6E" stroke="#042031" stroke-width="0.6"/>
<rect x="21" y="26" width="18" height="4" fill="#174E6E"/>
<path d="M 21 26 L 21 30 M 39 26 L 39 30" fill="none" stroke="#042031" stroke-width="0.6"/>
<ellipse cx="30" cy="26" rx="9" ry="4.5" fill="#3D89AF" stroke="#042031" stroke-width="0.6"/>
<ellipse cx="0" cy="45" rx="9" ry="4.5" fill="#174E6E" stroke="#042031" stroke-width="0.6"/>
<rect x="-9" y="41" width="18" height="4" fill="#174E6E"/>
<path d="M -9 41 L -9 45 M 9 41 L 9 45" fill="none" stroke="#042031" stroke-width="0.6"/>
<ellipse cx="0" cy="41" rx="9" ry="4.5" fill="#3D89AF" stroke="#042031" stroke-width="0.6"/>
<ellipse cx="-30" cy="60" rx="9" ry="4.5" fill="#174E6E" stroke="#042031" stroke-width="0.6"/>
<rect x="-39" y="56" width="18" height="4" fill="#174E6E"/>
<path d="M -39 56 L -39 60 M -21 56 L -21 60" fill="none" stroke="#042031" stroke-width="0.6"/>
<ellipse cx="-30" cy="56" rx="9" ry="4.5" fill="#3D89AF" stroke="#042031" stroke-width="0.6"/>
<ellipse cx="-60" cy="75" rx="9" ry="4.5" fill="#174E6E" stroke="#042031" stroke-width="0.6"/>
<rect x="-69" y="71" width="18" height="4" fill="#174E6E"/>
<path d="M -69 71 L -69 75 M -51 71 L -51 75" fill="none" stroke="#042031" stroke-width="0.6"/>
<ellipse cx="-60" cy="71" rx="9" ry="4.5" fill="#3D89AF" stroke="#042031" stroke-width="0.6"/>
<ellipse cx="-90" cy="90" rx="9" ry="4.5" fill="#174E6E" stroke="#042031" stroke-width="0.6"/>
<rect x="-99" y="86" width="18" height="4" fill="#174E6E"/>
<path d="M -99 86 L -99 90 M -81 86 L -81 90" fill="none" stroke="#042031" stroke-width="0.6"/>
<ellipse cx="-90" cy="86" rx="9" ry="4.5" fill="#3D89AF" stroke="#042031" stroke-width="0.6"/>
<ellipse cx="-120" cy="105" rx="9" ry="4.5" fill="#174E6E" stroke="#042031" stroke-width="0.6"/>
<rect x="-129" y="101" width="18" height="4" fill="#174E6E"/>
<path d="M -129 101 L -129 105 M -111 101 L -111 105" fill="none" stroke="#042031" stroke-width="0.6"/>
<ellipse cx="-120" cy="101" rx="9" ry="4.5" fill="#3D89AF" stroke="#042031" stroke-width="0.6"/>
<ellipse cx="-150" cy="120" rx="9" ry="4.5" fill="#174E6E" stroke="#042031" stroke-width="0.6"/>
<rect x="-159" y="116" width="18" height="4" fill="#174E6E"/>
<path d="M -159 116 L -159 120 M -141 116 L -141 120" fill="none" stroke="#042031" stroke-width="0.6"/>
<ellipse cx="-150" cy="116" rx="9" ry="4.5" fill="#3D89AF" stroke="#042031" stroke-width="0.6"/>
<ellipse cx="-180" cy="135" rx="9" ry="4.5" fill="#174E6E" stroke="#042031" stroke-width="0.6"/>
<rect x="-189" y="131" width="18" height="4" fill="#174E6E"/>
<path d="M -189 131 L -189 135 M -171 131 L -171 135" fill="none" stroke="#042031" stroke-width="0.6"/>
<ellipse cx="-180" cy="131" rx="9" ry="4.5" fill="#3D89AF" stroke="#042031" stroke-width="0.6"/>
<ellipse cx="60" cy="45" rx="9" ry="4.5" fill="#174E6E" stroke="#042031" stroke-width="0.6"/>
<rect x="51" y="41" width="18" height="4" fill="#174E6E"/>
<path d="M 51 41 L 51 45 M 69 41 L 69 45" fill="none" stroke="#042031" stroke-width="0.6"/>
<ellipse cx="60" cy="41" rx="9" ry="4.5" fill="#3D89AF" stroke="#042031" stroke-width="0.6"/>
<ellipse cx="30" cy="60" rx="9" ry="4.5" fill="#174E6E" stroke="#042031" stroke-width="0.6"/>
<rect x="21" y="56" width="18" height="4" fill="#174E6E"/>
<path d="M 21 56 L 21 60 M 39 56 L 39 60" fill="none" stroke="#042031" stroke-width="0.6"/>
<ellipse cx="30" cy="56" rx="9" ry="4.5" fill="#3D89AF" stroke="#042031" stroke-width="0.6"/>
<ellipse cx="0" cy="75" rx="9" ry="4.5" fill="#174E6E" stroke="#042031" stroke-width="0.6"/>
<rect x="-9" y="71" width="18" height="4" fill="#174E6E"/>
<path d="M -9 71 L -9 75 M 9 71 L 9 75" fill="none" stroke="#042031" stroke-width="0.6"/>
<ellipse cx="0" cy="71" rx="9" ry="4.5" fill="#3D89AF" stroke="#042031" stroke-width="0.6"/>
<ellipse cx="-30" cy="90" rx="9" ry="4.5" fill="#174E6E" stroke="#042031" stroke-width="0.6"/>
<rect x="-39" y="86" width="18" height="4" fill="#174E6E"/>
<path d="M -39 86 L -39 90 M -21 86 L -21 90" fill="none" stroke="#042031" stroke-width="0.6"/>
<ellipse cx="-30" cy="86" rx="9" ry="4.5" fill="#3D89AF" stroke="#042031" stroke-width="0.6"/>
<ellipse cx="-60" cy="105" rx="9" ry="4.5" fill="#174E6E" stroke="#042031" stroke-width="0.6"/>
<rect x="-69" y="101" width="18" height="4" fill="#174E6E"/>
<path d="M -69 101 L -69 105 M -51 101 L -51 105" fill="none" stroke="#042031" stroke-width="0.6"/>
<ellipse cx="-60" cy="101" rx="9" ry="4.5" fill="#3D89AF" stroke="#042031" stroke-width="0.6"/>
<ellipse cx="-90" cy="120" rx="9" ry="4.5" fill="#174E6E" stroke="#042031" stroke-width="0.6"/>
<rect x="-99" y="116" width="18" height="4" fill="#174E6E"/>
<path d="M -99 116 L -99 120 M -81 116 L -81 120" fill="none" stroke="#042031" stroke-width="0.6"/>
<ellipse cx="-90" cy="116" rx="9" ry="4.5" fill="#3D89AF" stroke="#042031" stroke-width="0.6"/>
<ellipse cx="-120" cy="135" rx="9" ry="4.5" fill="#174E6E" stroke="#042031" stroke-width="0.6"/>
<rect x="-129" y="131" width="18" height="4" fill="#174E6E"/>
<path d="M -129 131 L -129 135 M -111 131 L -111 135" fill="none" stroke="#042031" stroke-width="0.6"/>
<ellipse cx="-120" cy="131" rx="9" ry="4.5" fill="#3D89AF" stroke="#042031" stroke-width="0.6"/>
<ellipse cx="-150" cy="150" rx="9" ry="4.5" fill="#174E6E" stroke="#042031" stroke-width="0.6"/>
<rect x="-159" y="146" width="18" height="4" fill="#174E6E"/>
<path d="M -159 146 L -159 150 M -141 146 L -141 150" fill="none" stroke="#042031" stroke-width="0.6"/>
<ellipse cx="-150" cy="146" rx="9" ry="4.5" fill="#3D89AF" stroke="#042031" stroke-width="0.6"/>
<ellipse cx="90" cy="60" rx="9" ry="4.5" fill="#174E6E" stroke="#042031" stroke-width="0.6"/>
<rect x="81" y="56" width="18" height="4" fill="#174E6E"/>
<path d="M 81 56 L 81 60 M 99 56 L 99 60" fill="none" stroke="#042031" stroke-width="0.6"/>
<ellipse cx="90" cy="56" rx="9" ry="4.5" fill="#3D89AF" stroke="#042031" stroke-width="0.6"/>
<ellipse cx="60" cy="75" rx="9" ry="4.5" fill="#174E6E" stroke="#042031" stroke-width="0.6"/>
<rect x="51" y="71" width="18" height="4" fill="#174E6E"/>
<path d="M 51 71 L 51 75 M 69 71 L 69 75" fill="none" stroke="#042031" stroke-width="0.6"/>
<ellipse cx="60" cy="71" rx="9" ry="4.5" fill="#3D89AF" stroke="#042031" stroke-width="0.6"/>
<ellipse cx="30" cy="90" rx="9" ry="4.5" fill="#174E6E" stroke="#042031" stroke-width="0.6"/>
<rect x="21" y="86" width="18" height="4" fill="#174E6E"/>
<path d="M 21 86 L 21 90 M 39 86 L 39 90" fill="none" stroke="#042031" stroke-width="0.6"/>
<ellipse cx="30" cy="86" rx="9" ry="4.5" fill="#3D89AF" stroke="#042031" stroke-width="0.6"/>
<ellipse cx="0" cy="105" rx="9" ry="4.5" fill="#174E6E" stroke="#042031" stroke-width="0.6"/>
<rect x="-9" y="101" width="18" height="4" fill="#174E6E"/>
<path d="M -9 101 L -9 105 M 9 101 L 9 105" fill="none" stroke="#042031" stroke-width="0.6"/>
<ellipse cx="0" cy="101" rx="9" ry="4.5" fill="#3D89AF" stroke="#042031" stroke-width="0.6"/>
<ellipse cx="-30" cy="120" rx="9" ry="4.5" fill="#174E6E" stroke="#042031" stroke-width="0.6"/>
<rect x="-39" y="116" width="18" height="4" fill="#174E6E"/>
<path d="M -39 116 L -39 120 M -21 116 L -21 120" fill="none" stroke="#042031" stroke-width="0.6"/>
<ellipse cx="-30" cy="116" rx="9" ry="4.5" fill="#3D89AF" stroke="#042031" stroke-width="0.6"/>
<ellipse cx="-60" cy="135" rx="9" ry="4.5" fill="#174E6E" stroke="#042031" stroke-width="0.6"/>
<rect x="-69" y="131" width="18" height="4" fill="#174E6E"/>
<path d="M -69 131 L -69 135 M -51 131 L -51 135" fill="none" stroke="#042031" stroke-width="0.6"/>
<ellipse cx="-60" cy="131" rx="9" ry="4.5" fill="#3D89AF" stroke="#042031" stroke-width="0.6"/>
<ellipse cx="-90" cy="150" rx="9" ry="4.5" fill="#174E6E" stroke="#042031" stroke-width="0.6"/>
<rect x="-99" y="146" width="18" height="4" fill="#174E6E"/>
<path d="M -99 146 L -99 150 M -81 146 L -81 150" fill="none" stroke="#042031" stroke-width="0.6"/>
<ellipse cx="-90" cy="146" rx="9" ry="4.5" fill="#3D89AF" stroke="#042031" stroke-width="0.6"/>
<ellipse cx="-120" cy="165" rx="9" ry="4.5" fill="#174E6E" stroke="#042031" stroke-width="0.6"/>
<rect x="-129" y="161" width="18" height="4" fill="#174E6E"/>
<path d="M -129 161 L -129 165 M -111 161 L -111 165" fill="none" stroke="#042031" stroke-width="0.6"/>
<ellipse cx="-120" cy="161" rx="9" ry="4.5" fill="#3D89AF" stroke="#042031" stroke-width="0.6"/>
<ellipse cx="120" cy="75" rx="9" ry="4.5" fill="#174E6E" stroke="#042031" stroke-width="0.6"/>
<rect x="111" y="71" width="18" height="4" fill="#174E6E"/>
<path d="M 111 71 L 111 75 M 129 71 L 129 75" fill="none" stroke="#042031" stroke-width="0.6"/>
<ellipse cx="120" cy="71" rx="9" ry="4.5" fill="#3D89AF" stroke="#042031" stroke-width="0.6"/>
<ellipse cx="90" cy="90" rx="9" ry="4.5" fill="#174E6E" stroke="#042031" stroke-width="0.6"/>
<rect x="81" y="86" width="18" height="4" fill="#174E6E"/>
<path d="M 81 86 L 81 90 M 99 86 L 99 90" fill="none" stroke="#042031" stroke-width="0.6"/>
<ellipse cx="90" cy="86" rx="9" ry="4.5" fill="#3D89AF" stroke="#042031" stroke-width="0.6"/>
<ellipse cx="60" cy="105" rx="9" ry="4.5" fill="#174E6E" stroke="#042031" stroke-width="0.6"/>
<rect x="51" y="101" width="18" height="4" fill="#174E6E"/>
<path d="M 51 101 L 51 105 M 69 101 L 69 105" fill="none" stroke="#042031" stroke-width="0.6"/>
<ellipse cx="60" cy="101" rx="9" ry="4.5" fill="#3D89AF" stroke="#042031" stroke-width="0.6"/>
<ellipse cx="30" cy="120" rx="9" ry="4.5" fill="#174E6E" stroke="#042031" stroke-width="0.6"/>
<rect x="21" y="116" width="18" height="4" fill="#174E6E"/>
<path d="M 21 116 L 21 120 M 39 116 L 39 120" fill="none" stroke="#042031" stroke-width="0.6"/>
<ellipse cx="30" cy="116" rx="9" ry="4.5" fill="#3D89AF" stroke="#042031" stroke-width="0.6"/>
<ellipse cx="0" cy="135" rx="9" ry="4.5" fill="#174E6E" stroke="#042031" stroke-width="0.6"/>
<rect x="-9" y="131" width="18" height="4" fill="#174E6E"/>
<path d="M -9 131 L -9 135 M 9 131 L 9 135" fill="none" stroke="#042031" stroke-width="0.6"/>
<ellipse cx="0" cy="131" rx="9" ry="4.5" fill="#3D89AF" stroke="#042031" stroke-width="0.6"/>
<ellipse cx="-30" cy="150" rx="9" ry="4.5" fill="#174E6E" stroke="#042031" stroke-width="0.6"/>
<rect x="-39" y="146" width="18" height="4" fill="#174E6E"/>
<path d="M -39 146 L -39 150 M -21 146 L -21 150" fill="none" stroke="#042031" stroke-width="0.6"/>
<ellipse cx="-30" cy="146" rx="9" ry="4.5" fill="#3D89AF" stroke="#042031" stroke-width="0.6"/>
<ellipse cx="-60" cy="165" rx="9" ry="4.5" fill="#174E6E" stroke="#042031" stroke-width="0.6"/>
<rect x="-69" y="161" width="18" height="4" fill="#174E6E"/>
<path d="M -69 161 L -69 165 M -51 161 L -51 165" fill="none" stroke="#042031" stroke-width="0.6"/>
<ellipse cx="-60" cy="161" rx="9" ry="4.5" fill="#3D89AF" stroke="#042031" stroke-width="0.6"/>
<ellipse cx="-90" cy="180" rx="9" ry="4.5" fill="#174E6E" stroke="#042031" stroke-width="0.6"/>
<rect x="-99" y="176" width="18" height="4" fill="#174E6E"/>
<path d="M -99 176 L -99 180 M -81 176 L -81 180" fill="none" stroke="#042031" stroke-width="0.6"/>
<ellipse cx="-90" cy="176" rx="9" ry="4.5" fill="#3D89AF" stroke="#042031" stroke-width="0.6"/>
<ellipse cx="150" cy="90" rx="9" ry="4.5" fill="#174E6E" stroke="#042031" stroke-width="0.6"/>
<rect x="141" y="86" width="18" height="4" fill="#174E6E"/>
<path d="M 141 86 L 141 90 M 159 86 L 159 90" fill="none" stroke="#042031" stroke-width="0.6"/>
<ellipse cx="150" cy="86" rx="9" ry="4.5" fill="#3D89AF" stroke="#042031" stroke-width="0.6"/>
<ellipse cx="120" cy="105" rx="9" ry="4.5" fill="#174E6E" stroke="#042031" stroke-width="0.6"/>
<rect x="111" y="101" width="18" height="4" fill="#174E6E"/>
<path d="M 111 101 L 111 105 M 129 101 L 129 105" fill="none" stroke="#042031" stroke-width="0.6"/>
<ellipse cx="120" cy="101" rx="9" ry="4.5" fill="#3D89AF" stroke="#042031" stroke-width="0.6"/>
<ellipse cx="90" cy="120" rx="9" ry="4.5" fill="#174E6E" stroke="#042031" stroke-width="0.6"/>
<rect x="81" y="116" width="18" height="4" fill="#174E6E"/>
<path d="M 81 116 L 81 120 M 99 116 L 99 120" fill="none" stroke="#042031" stroke-width="0.6"/>
<ellipse cx="90" cy="116" rx="9" ry="4.5" fill="#3D89AF" stroke="#042031" stroke-width="0.6"/>
<ellipse cx="60" cy="135" rx="9" ry="4.5" fill="#174E6E" stroke="#042031" stroke-width="0.6"/>
<rect x="51" y="131" width="18" height="4" fill="#174E6E"/>
<path d="M 51 131 L 51 135 M 69 131 L 69 135" fill="none" stroke="#042031" stroke-width="0.6"/>
<ellipse cx="60" cy="131" rx="9" ry="4.5" fill="#3D89AF" stroke="#042031" stroke-width="0.6"/>
<ellipse cx="30" cy="150" rx="9" ry="4.5" fill="#174E6E" stroke="#042031" stroke-width="0.6"/>
<rect x="21" y="146" width="18" height="4" fill="#174E6E"/>
<path d="M 21 146 L 21 150 M 39 146 L 39 150" fill="none" stroke="#042031" stroke-width="0.6"/>
<ellipse cx="30" cy="146" rx="9" ry="4.5" fill="#3D89AF" stroke="#042031" stroke-width="0.6"/>
<ellipse cx="0" cy="165" rx="9" ry="4.5" fill="#174E6E" stroke="#042031" stroke-width="0.6"/>
<rect x="-9" y="161" width="18" height="4" fill="#174E6E"/>
<path d="M -9 161 L -9 165 M 9 161 L 9 165" fill="none" stroke="#042031" stroke-width="0.6"/>
<ellipse cx="0" cy="161" rx="9" ry="4.5" fill="#3D89AF" stroke="#042031" stroke-width="0.6"/>
<ellipse cx="-30" cy="180" rx="9" ry="4.5" fill="#174E6E" stroke="#042031" stroke-width="0.6"/>
<rect x="-39" y="176" width="18" height="4" fill="#174E6E"/>
<path d="M -39 176 L -39 180 M -21 176 L -21 180" fill="none" stroke="#042031" stroke-width="0.6"/>
<ellipse cx="-30" cy="176" rx="9" ry="4.5" fill="#3D89AF" stroke="#042031" stroke-width="0.6"/>
<ellipse cx="-60" cy="195" rx="9" ry="4.5" fill="#174E6E" stroke="#042031" stroke-width="0.6"/>
<rect x="-69" y="191" width="18" height="4" fill="#174E6E"/>
<path d="M -69 191 L -69 195 M -51 191 L -51 195" fill="none" stroke="#042031" stroke-width="0.6"/>
<ellipse cx="-60" cy="191" rx="9" ry="4.5" fill="#3D89AF" stroke="#042031" stroke-width="0.6"/>
<ellipse cx="180" cy="105" rx="9" ry="4.5" fill="#174E6E" stroke="#042031" stroke-width="0.6"/>
<rect x="171" y="101" width="18" height="4" fill="#174E6E"/>
<path d="M 171 101 L 171 105 M 189 101 L 189 105" fill="none" stroke="#042031" stroke-width="0.6"/>
<ellipse cx="180" cy="101" rx="9" ry="4.5" fill="#3D89AF" stroke="#042031" stroke-width="0.6"/>
<ellipse cx="150" cy="120" rx="9" ry="4.5" fill="#174E6E" stroke="#042031" stroke-width="0.6"/>
<rect x="141" y="116" width="18" height="4" fill="#174E6E"/>
<path d="M 141 116 L 141 120 M 159 116 L 159 120" fill="none" stroke="#042031" stroke-width="0.6"/>
<ellipse cx="150" cy="116" rx="9" ry="4.5" fill="#3D89AF" stroke="#042031" stroke-width="0.6"/>
<ellipse cx="120" cy="135" rx="9" ry="4.5" fill="#174E6E" stroke="#042031" stroke-width="0.6"/>
<rect x="111" y="131" width="18" height="4" fill="#174E6E"/>
<path d="M 111 131 L 111 135 M 129 131 L 129 135" fill="none" stroke="#042031" stroke-width="0.6"/>
<ellipse cx="120" cy="131" rx="9" ry="4.5" fill="#3D89AF" stroke="#042031" stroke-width="0.6"/>
<ellipse cx="90" cy="150" rx="9" ry="4.5" fill="#174E6E" stroke="#042031" stroke-width="0.6"/>
<rect x="81" y="146" width="18" height="4" fill="#174E6E"/>
<path d="M 81 146 L 81 150 M 99 146 L 99 150" fill="none" stroke="#042031" stroke-width="0.6"/>
<ellipse cx="90" cy="146" rx="9" ry="4.5" fill="#3D89AF" stroke="#042031" stroke-width="0.6"/>
<ellipse cx="60" cy="165" rx="9" ry="4.5" fill="#174E6E" stroke="#042031" stroke-width="0.6"/>
<rect x="51" y="161" width="18" height="4" fill="#174E6E"/>
<path d="M 51 161 L 51 165 M 69 161 L 69 165" fill="none" stroke="#042031" stroke-width="0.6"/>
<ellipse cx="60" cy="161" rx="9" ry="4.5" fill="#3D89AF" stroke="#042031" stroke-width="0.6"/>
<ellipse cx="30" cy="180" rx="9" ry="4.5" fill="#174E6E" stroke="#042031" stroke-width="0.6"/>
<rect x="21" y="176" width="18" height="4" fill="#174E6E"/>
<path d="M 21 176 L 21 180 M 39 176 L 39 180" fill="none" stroke="#042031" stroke-width="0.6"/>
<ellipse cx="30" cy="176" rx="9" ry="4.5" fill="#3D89AF" stroke="#042031" stroke-width="0.6"/>
<ellipse cx="0" cy="195" rx="9" ry="4.5" fill="#174E6E" stroke="#042031" stroke-width="0.6"/>
<rect x="-9" y="191" width="18" height="4" fill="#174E6E"/>
<path d="M -9 191 L -9 195 M 9 191 L 9 195" fill="none" stroke="#042031" stroke-width="0.6"/>
<ellipse cx="0" cy="191" rx="9" ry="4.5" fill="#3D89AF" stroke="#042031" stroke-width="0.6"/>
<ellipse cx="-30" cy="210" rx="9" ry="4.5" fill="#174E6E" stroke="#042031" stroke-width="0.6"/>
<rect x="-39" y="206" width="18" height="4" fill="#174E6E"/>
<path d="M -39 206 L -39 210 M -21 206 L -21 210" fill="none" stroke="#042031" stroke-width="0.6"/>
<ellipse cx="-30" cy="206" rx="9" ry="4.5" fill="#3D89AF" stroke="#042031" stroke-width="0.6"/>
<ellipse cx="210" cy="120" rx="9" ry="4.5" fill="#174E6E" stroke="#042031" stroke-width="0.6"/>
<rect x="201" y="116" width="18" height="4" fill="#174E6E"/>
<path d="M 201 116 L 201 120 M 219 116 L 219 120" fill="none" stroke="#042031" stroke-width="0.6"/>
<ellipse cx="210" cy="116" rx="9" ry="4.5" fill="#3D89AF" stroke="#042031" stroke-width="0.6"/>
<ellipse cx="180" cy="135" rx="9" ry="4.5" fill="#174E6E" stroke="#042031" stroke-width="0.6"/>
<rect x="171" y="131" width="18" height="4" fill="#174E6E"/>
<path d="M 171 131 L 171 135 M 189 131 L 189 135" fill="none" stroke="#042031" stroke-width="0.6"/>
<ellipse cx="180" cy="131" rx="9" ry="4.5" fill="#3D89AF" stroke="#042031" stroke-width="0.6"/>
<ellipse cx="150" cy="150" rx="9" ry="4.5" fill="#174E6E" stroke="#042031" stroke-width="0.6"/>
<rect x="141" y="146" width="18" height="4" fill="#174E6E"/>
<path d="M 141 146 L 141 150 M 159 146 L 159 150" fill="none" stroke="#042031" stroke-width="0.6"/>
<ellipse cx="150" cy="146" rx="9" ry="4.5" fill="#3D89AF" stroke="#042031" stroke-width="0.6"/>
<ellipse cx="120" cy="165" rx="9" ry="4.5" fill="#174E6E" stroke="#042031" stroke-width="0.6"/>
<rect x="111" y="161" width="18" height="4" fill="#174E6E"/>
<path d="M 111 161 L 111 165 M 129 161 L 129 165" fill="none" stroke="#042031" stroke-width="0.6"/>
<ellipse cx="120" cy="161" rx="9" ry="4.5" fill="#3D89AF" stroke="#042031" stroke-width="0.6"/>
<ellipse cx="90" cy="180" rx="9" ry="4.5" fill="#174E6E" stroke="#042031" stroke-width="0.6"/>
<rect x="81" y="176" width="18" height="4" fill="#174E6E"/>
<path d="M 81 176 L 81 180 M 99 176 L 99 180" fill="none" stroke="#042031" stroke-width="0.6"/>
<ellipse cx="90" cy="176" rx="9" ry="4.5" fill="#3D89AF" stroke="#042031" stroke-width="0.6"/>
<ellipse cx="60" cy="195" rx="9" ry="4.5" fill="#174E6E" stroke="#042031" stroke-width="0.6"/>
<rect x="51" y="191" width="18" height="4" fill="#174E6E"/>
<path d="M 51 191 L 51 195 M 69 191 L 69 195" fill="none" stroke="#042031" stroke-width="0.6"/>
<ellipse cx="60" cy="191" rx="9" ry="4.5" fill="#3D89AF" stroke="#042031" stroke-width="0.6"/>
<ellipse cx="30" cy="210" rx="9" ry="4.5" fill="#174E6E" stroke="#042031" stroke-width="0.6"/>
<rect x="21" y="206" width="18" height="4" fill="#174E6E"/>
<path d="M 21 206 L 21 210 M 39 206 L 39 210" fill="none" stroke="#042031" stroke-width="0.6"/>
<ellipse cx="30" cy="206" rx="9" ry="4.5" fill="#3D89AF" stroke="#042031" stroke-width="0.6"/>
<ellipse cx="0" cy="225" rx="9" ry="4.5" fill="#174E6E" stroke="#042031" stroke-width="0.6"/>
<rect x="-9" y="221" width="18" height="4" fill="#174E6E"/>
<path d="M -9 221 L -9 225 M 9 221 L 9 225" fill="none" stroke="#042031" stroke-width="0.6"/>
<ellipse cx="0" cy="221" rx="9" ry="4.5" fill="#3D89AF" stroke="#042031" stroke-width="0.6"/>
</svg>
