<svg xmlns="http://www.w3.org/2000/svg" viewBox="-124 -12.5 248 148.5" role="img" aria-label="plate-4x4 flamingo (isometric)">
<title>plate-4x4 flamingo (isometric)</title>
<polygon points="0,120 -120,60 -120,72 0,132" fill="#C25079" stroke="#550E28" stroke-width="0.6" stroke-linejoin="round"/>
<polygon points="0,120 120,60 120,72 0,132" fill="#9E3456" stroke="#550E28" stroke-width="0.6" stroke-linejoin="round"/>
<polygon points="0,0 120,60 0,120 -120,60" fill="#D86E89" stroke="#550E28" stroke-width="0.6" stroke-linejoin="round"/>
<ellipse cx="0" cy="15" rx="9" ry="4.5" fill="#C25079" stroke="#550E28" stroke-width="0.6"/>
<rect x="-9" y="11" width="18" height="4" fill="#C25079"/>
<path d="M -9 11 L -9 15 M 9 11 L 9 15" fill="none" stroke="#550E28" stroke-width="0.6"/>
<ellipse cx="0" cy="11" rx="9" ry="4.5" fill="#E690A2" stroke="#550E28" stroke-width="0.6"/>
<ellipse cx="-30" cy="30" rx="9" ry="4.5" fill="#C25079" stroke="#550E28" stroke-width="0.6"/>
<rect x="-39" y="26" width="18" height="4" fill="#C25079"/>
<path d="M -39 26 L -39 30 M -21 26 L -21 30" fill="none" stroke="#550E28" stroke-width="0.6"/>
<ellipse cx="-30" cy="26" rx="9" ry="4.5" fill="#E690A2" stroke="#550E28" stroke-width="0.6"/>
<ellipse cx="-60" cy="45" rx="9" ry="4.5" fill="#C25079" stroke="#550E28" stroke-width="0.6"/>
<rect x="-69" y="41" width="18" height="4" fill="#C25079"/>
<path d="M -69 41 L -69 45 M -51 41 L -51 45" fill="none" stroke="#550E28" stroke-width="0.6"/>
<ellipse cx="-60" cy="41" rx="9" ry="4.5" fill="#E690A2" stroke="#550E28" stroke-width="0.6"/>
<ellipse cx="-90" cy="60" rx="9" ry="4.5" fill="#C25079" stroke="#550E28" stroke-width="0.6"/>
<rect x="-99" y="56" width="18" height="4" fill="#C25079"/>
<path d="M -99 56 L -99 60 M -81 56 L -81 60" fill="none" stroke="#550E28" stroke-width="0.6"/>
<ellipse cx="-90" cy="56" rx="9" ry="4.5" fill="#E690A2" stroke="#550E28" stroke-width="0.6"/>
<ellipse cx="30" cy="30" rx="9" ry="4.5" fill="#C25079" stroke="#550E28" stroke-width="0.6"/>
<rect x="21" y="26" width="18" height="4" fill="#C25079"/>
<path d="M 21 26 L 21 30 M 39 26 L 39 30" fill="none" stroke="#550E28" stroke-width="0.6"/>
<ellipse cx="30" cy="26" rx="9" ry="4.5" fill="#E690A2" stroke="#550E28" stroke-width="0.6"/>
<ellipse cx="0" cy="45" rx="9" ry="4.5" fill="#C25079" stroke="#550E28" stroke-width="0.6"/>
<rect x="-9" y="41" width="18" height="4" fill="#C25079"/>
<path d="M -9 41 L -9 45 M 9 41 L 9 45" fill="none" stroke="#550E28" stroke-width="0.6"/>
<ellipse cx="0" cy="41" rx="9" ry="4.5" fill="#E690A2" stroke="#550E28" stroke-width="0.6"/>
<ellipse cx="-30" cy="60" rx="9" ry="4.5" fill="#C25079" stroke="#550E28" stroke-width="0.6"/>
<rect x="-39" y="56" width="18" height="4" fill="#C25079"/>
<path d="M -39 56 L -39 60 M -21 56 L -21 60" fill="none" stroke="#550E28" stroke-width="0.6"/>
<ellipse cx="-30" cy="56" rx="9" ry="4.5" fill="#E690A2" stroke="#550E28" stroke-width="0.6"/>
<ellipse cx="-60" cy="75" rx="9" ry="4.5" fill="#C25079" stroke="#550E28" stroke-width="0.6"/>
<rect x="-69" y="71" width="18" height="4" fill="#C25079"/>
<path d="M -69 71 L -69 75 M -51 71 L -51 75" fill="none" stroke="#550E28" stroke-width="0.6"/>
<ellipse cx="-60" cy="71" rx="9" ry="4.5" fill="#E690A2" stroke="#550E28" stroke-width="0.6"/>
<ellipse cx="60" cy="45" rx="9" ry="4.5" fill="#C25079" stroke="#550E28" stroke-width="0.6"/>
<rect x="51" y="41" width="18" height="4" fill="#C25079"/>
<path d="M 51 41 L 51 45 M 69 41 L 69 45" fill="none" stroke="#550E28" stroke-width="0.6"/>
<ellipse cx="60" cy="41" rx="9" ry="4.5" fill="#E690A2" stroke="#550E28" stroke-width="0.6"/>
<ellipse cx="30" cy="60" rx="9" ry="4.5" fill="#C25079" stroke="#550E28" stroke-width="0.6"/>
<rect x="21" y="56" width="18" height="4" fill="#C25079"/>
<path d="M 21 56 L 21 60 M 39 56 L 39 60" fill="none" stroke="#550E28" stroke-width="0.6"/>
<ellipse cx="30" cy="56" rx="9" ry="4.5" fill="#E690A2" stroke="#550E28" stroke-width="0.6"/>
<ellipse cx="0" cy="75" rx="9" ry="4.5" fill="#C25079" stroke="#550E28" stroke-width="0.6"/>
<rect x="-9" y="71" width="18" height="4" fill="#C25079"/>
<path d="M -9 71 L -9 75 M 9 71 L 9 75" fill="none" stroke="#550E28" stroke-width="0.6"/>
<ellipse cx="0" cy="71" rx="9" ry="4.5" fill="#E690A2" stroke="#550E28" stroke-width="0.6"/>
<ellipse cx="-30" cy="90" rx="9" ry="4.5" fill="#C25079" stroke="#550E28" stroke-width="0.6"/>
<rect x="-39" y="86" width="18" height="4" fill="#C25079"/>
<path d="M -39 86 L -39 90 M -21 86 L -21 90" fill="none" stroke="#550E28" stroke-width="0.6"/>
<ellipse cx="-30" cy="86" rx="9" ry="4.5" fill="#E690A2" stroke="#550E28" stroke-width="0.6"/>
<ellipse cx="90" cy="60" rx="9" ry="4.5" fill="#C25079" stroke="#550E28" stroke-width="0.6"/>
<rect x="81" y="56" width="18" height="4" fill="#C25079"/>
<path d="M 81 56 L 81 60 M 99 56 L 99 60" fill="none" stroke="#550E28" stroke-width="0.6"/>
<ellipse cx="90" cy="56" rx="9" ry="4.5" fill="#E690A2" stroke="#550E28" stroke-width="0.6"/>
<ellipse cx="60" cy="75" rx="9" ry="4.5" fill="#C25079" stroke="#550E28" stroke-width="0.6"/>
<rect x="51" y="71" width="18" height="4" fill="#C25079"/>
<path d="M 51 71 L 51 75 M 69 71 L 69 75" fill="none" stroke="#550E28" stroke-width="0.6"/>
<ellipse cx="60" cy="71" rx="9" ry="4.5" fill="#E690A2" stroke="#550E28" stroke-width="0.6"/>
<ellipse cx="30" cy="90" rx="9" ry="4.5" fill="#C25079" stroke="#550E28" stroke-width="0.6"/>
<rect x="21" y="86" width="18" height="4" fill="#C25079"/>
<path d="M 21 86 L 21 90 M 39 86 L 39 90" fill="none" stroke="#550E28" stroke-width="0.6"/>
<ellipse cx="30" cy="86" rx="9" ry="4.5" fill="#E690A2" stroke="#550E28" stroke-width="0.6"/>
<ellipse cx="0" cy="105" rx="9" ry="4.5" fill="#C25079" stroke="#550E28" stroke-width="0.6"/>
<rect x="-9" y="101" width="18" height="4" fill="#C25079"/>
<path d="M -9 101 L -9 105 M 9 101 L 9 105" fill="none" stroke="#550E28" stroke-width="0.6"/>
<ellipse cx="0" cy="101" rx="9" ry="4.5" fill="#E690A2" stroke="#550E28" stroke-width="0.6"/>
</svg>
