<svg xmlns="http://www.w3.org/2000/svg" viewBox="-64 0.5 1028 82" role="img" aria-label="strip-32x4 black (strip)">
<title>strip-32x4 black (strip)</title>
<polygon points="-60,66.5 960,66.5 960,78.5 -60,78.5" fill="#0B0F16" stroke="#000000" stroke-width="0.6" stroke-linejoin="round"/>
<polygon points="-60,4.5 960,4.5 960,66.5 -60,66.5" fill="#141820" stroke="#000000" stroke-width="0.6" stroke-linejoin="round"/>
<ellipse cx="0" cy="15" rx="9" ry="4.5" fill="#0B0F16" stroke="#000000" stroke-width="0.6"/>
<rect x="-9" y="11" width="18" height="4" fill="#0B0F16"/>
<path d="M -9 11 L -9 15 M 9 11 L 9 15" fill="none" stroke="#000000" stroke-width="0.6"/>
<ellipse cx="0" cy="11" rx="9" ry="4.5" fill="#2B3240" stroke="#000000" stroke-width="0.6"/>
<ellipse cx="60" cy="15" rx="9" ry="4.5" fill="#0B0F16" stroke="#000000" stroke-width="0.6"/>
<rect x="51" y="11" width="18" height="4" fill="#0B0F16"/>
<path d="M 51 11 L 51 15 M 69 11 L 69 15" fill="none" stroke="#000000" stroke-width="0.6"/>
<ellipse cx="60" cy="11" rx="9" ry="4.5" fill="#2B3240" stroke="#000000" stroke-width="0.6"/>
<ellipse cx="120" cy="15" rx="9" ry="4.5" fill="#0B0F16" stroke="#000000" stroke-width="0.6"/>
<rect x="111" y="11" width="18" height="4" fill="#0B0F16"/>
<path d="M 111 11 L 111 15 M 129 11 L 129 15" fill="none" stroke="#000000" stroke-width="0.6"/>
<ellipse cx="120" cy="11" rx="9" ry="4.5" fill="#2B3240" stroke="#000000" stroke-width="0.6"/>
<ellipse cx="180" cy="15" rx="9" ry="4.5" fill="#0B0F16" stroke="#000000" stroke-width="0.6"/>
<rect x="171" y="11" width="18" height="4" fill="#0B0F16"/>
<path d="M 171 11 L 171 15 M 189 11 L 189 15" fill="none" stroke="#000000" stroke-width="0.6"/>
<ellipse cx="180" cy="11" rx="9" ry="4.5" fill="#2B3240" stroke="#000000" stroke-width="0.6"/>
<ellipse cx="240" cy="15" rx="9" ry="4.5" fill="#0B0F16" stroke="#000000" stroke-width="0.6"/>
<rect x="231" y="11" width="18" height="4" fill="#0B0F16"/>
<path d="M 231 11 L 231 15 M 249 11 L 249 15" fill="none" stroke="#000000" stroke-width="0.6"/>
<ellipse cx="240" cy="11" rx="9" ry="4.5" fill="#2B3240" stroke="#000000" stroke-width="0.6"/>
<ellipse cx="300" cy="15" rx="9" ry="4.5" fill="#0B0F16" stroke="#000000" stroke-width="0.6"/>
<rect x="291" y="11" width="18" height="4" fill="#0B0F16"/>
<path d="M 291 11 L 291 15 M 309 11 L 309 15" fill="none" stroke="#000000" stroke-width="0.6"/>
<ellipse cx="300" cy="11" rx="9" ry="4.5" fill="#2B3240" stroke="#000000" stroke-width="0.6"/>
<ellipse cx="360" cy="15" rx="9" ry="4.5" fill="#0B0F16" stroke="#000000" stroke-width="0.6"/>
<rect x="351" y="11" width="18" height="4" fill="#0B0F16"/>
<path d="M 351 11 L 351 15 M 369 11 L 369 15" fill="none" stroke="#000000" stroke-width="0.6"/>
<ellipse cx="360" cy="11" rx="9" ry="4.5" fill="#2B3240" stroke="#000000" stroke-width="0.6"/>
<ellipse cx="420" cy="15" rx="9" ry="4.5" fill="#0B0F16" stroke="#000000" stroke-width="0.6"/>
<rect x="411" y="11" width="18" height="4" fill="#0B0F16"/>
<path d="M 411 11 L 411 15 M 429 11 L 429 15" fill="none" stroke="#000000" stroke-width="0.6"/>
<ellipse cx="420" cy="11" rx="9" ry="4.5" fill="#2B3240" stroke="#000000" stroke-width="0.6"/>
<ellipse cx="480" cy="15" rx="9" ry="4.5" fill="#0B0F16" stroke="#000000" stroke-width="0.6"/>
<rect x="471" y="11" width="18" height="4" fill="#0B0F16"/>
<path d="M 471 11 L 471 15 M 489 11 L 489 15" fill="none" stroke="#000000" stroke-width="0.6"/>
<ellipse cx="480" cy="11" rx="9" ry="4.5" fill="#2B3240" stroke="#000000" stroke-width="0.6"/>
<ellipse cx="540" cy="15" rx="9" ry="4.5" fill="#0B0F16" stroke="#000000" stroke-width="0.6"/>
<rect x="531" y="11" width="18" height="4" fill="#0B0F16"/>
<path d="M 531 11 L 531 15 M 549 11 L 549 15" fill="none" stroke="#000000" stroke-width="0.6"/>
<ellipse cx="540" cy="11" rx="9" ry="4.5" fill="#2B3240" stroke="#000000" stroke-width="0.6"/>
<ellipse cx="600" cy="15" rx="9" ry="4.5" fill="#0B0F16" stroke="#000000" stroke-width="0.6"/>
<rect x="591" y="11" width="18" height="4" fill="#0B0F16"/>
<path d="M 591 11 L 591 15 M 609 11 L 609 15" fill="none" stroke="#000000" stroke-width="0.6"/>
<ellipse cx="600" cy="11" rx="9" ry="4.5" fill="#2B3240" stroke="#000000" stroke-width="0.6"/>
<ellipse cx="660" cy="15" rx="9" ry="4.5" fill="#0B0F16" stroke="#000000" stroke-width="0.6"/>
<rect x="651" y="11" width="18" height="4" fill="#0B0F16"/>
<path d="M 651 11 L 651 15 M 669 11 L 669 15" fill="none" stroke="#000000" stroke-width="0.6"/>
<ellipse cx="660" cy="11" rx="9" ry="4.5" fill="#2B3240" stroke="#000000" stroke-width="0.6"/>
<ellipse cx="720" cy="15" rx="9" ry="4.5" fill="#0B0F16" stroke="#000000" stroke-width="0.6"/>
<rect x="711" y="11" width="18" height="4" fill="#0B0F16"/>
<path d="M 711 11 L 711 15 M 729 11 L 729 15" fill="none" stroke="#000000" stroke-width="0.6"/>
<ellipse cx="720" cy="11" rx="9" ry="4.5" fill="#2B3240" stroke="#000000" stroke-width="0.6"/>
<ellipse cx="780" cy="15" rx="9" ry="4.5" fill="#0B0F16" stroke="#000000" stroke-width="0.6"/>
<rect x="771" y="11" width="18" height="4" fill="#0B0F16"/>
<path d="M 771 11 L 771 15 M 789 11 L 789 15" fill="none" stroke="#000000" stroke-width="0.6"/>
<ellipse cx="780" cy="11" rx="9" ry="4.5" fill="#2B3240" stroke="#000000" stroke-width="0.6"/>
<ellipse cx="840" cy="15" rx="9" ry="4.5" fill="#0B0F16" stroke="#000000" stroke-width="0.6"/>
<rect x="831" y="11" width="18" height="4" fill="#0B0F16"/>
<path d="M 831 11 L 831 15 M 849 11 L 849 15" fill="none" stroke="#000000" stroke-width="0.6"/>
<ellipse cx="840" cy="11" rx="9" ry="4.5" fill="#2B3240" stroke="#000000" stroke-width="0.6"/>
<ellipse cx="900" cy="15" rx="9" ry="4.5" fill="#0B0F16" stroke="#000000" stroke-width="0.6"/>
<rect x="891" y="11" width="18" height="4" fill="#0B0F16"/>
<path d="M 891 11 L 891 15 M 909 11 L 909 15" fill="none" stroke="#000000" stroke-width="0.6"/>
<ellipse cx="900" cy="11" rx="9" ry="4.5" fill="#2B3240" stroke="#000000" stroke-width="0.6"/>
<ellipse cx="-30" cy="30" rx="9" ry="4.5" fill="#0B0F16" stroke="#000000" stroke-width="0.6"/>
<rect x="-39" y="26" width="18" height="4" fill="#0B0F16"/>
<path d="M -39 26 L -39 30 M -21 26 L -21 30" fill="none" stroke="#000000" stroke-width="0.6"/>
<ellipse cx="-30" cy="26" rx="9" ry="4.5" fill="#2B3240" stroke="#000000" stroke-width="0.6"/>
<ellipse cx="30" cy="30" rx="9" ry="4.5" fill="#0B0F16" stroke="#000000" stroke-width="0.6"/>
<rect x="21" y="26" width="18" height="4" fill="#0B0F16"/>
<path d="M 21 26 L 21 30 M 39 26 L 39 30" fill="none" stroke="#000000" stroke-width="0.6"/>
<ellipse cx="30" cy="26" rx="9" ry="4.5" fill="#2B3240" stroke="#000000" stroke-width="0.6"/>
<ellipse cx="90" cy="30" rx="9" ry="4.5" fill="#0B0F16" stroke="#000000" stroke-width="0.6"/>
<rect x="81" y="26" width="18" height="4" fill="#0B0F16"/>
<path d="M 81 26 L 81 30 M 99 26 L 99 30" fill="none" stroke="#000000" stroke-width="0.6"/>
<ellipse cx="90" cy="26" rx="9" ry="4.5" fill="#2B3240" stroke="#000000" stroke-width="0.6"/>
<ellipse cx="150" cy="30" rx="9" ry="4.5" fill="#0B0F16" stroke="#000000" stroke-width="0.6"/>
<rect x="141" y="26" width="18" height="4" fill="#0B0F16"/>
<path d="M 141 26 L 141 30 M 159 26 L 159 30" fill="none" stroke="#000000" stroke-width="0.6"/>
<ellipse cx="150" cy="26" rx="9" ry="4.5" fill="#2B3240" stroke="#000000" stroke-width="0.6"/>
<ellipse cx="210" cy="30" rx="9" ry="4.5" fill="#0B0F16" stroke="#000000" stroke-width="0.6"/>
<rect x="201" y="26" width="18" height="4" fill="#0B0F16"/>
<path d="M 201 26 L 201 30 M 219 26 L 219 30" fill="none" stroke="#000000" stroke-width="0.6"/>
<ellipse cx="210" cy="26" rx="9" ry="4.5" fill="#2B3240" stroke="#000000" stroke-width="0.6"/>
<ellipse cx="270" cy="30" rx="9" ry="4.5" fill="#0B0F16" stroke="#000000" stroke-width="0.6"/>
<rect x="261" y="26" width="18" height="4" fill="#0B0F16"/>
<path d="M 261 26 L 261 30 M 279 26 L 279 30" fill="none" stroke="#000000" stroke-width="0.6"/>
<ellipse cx="270" cy="26" rx="9" ry="4.5" fill="#2B3240" stroke="#000000" stroke-width="0.6"/>
<ellipse cx="330" cy="30" rx="9" ry="4.5" fill="#0B0F16" stroke="#000000" stroke-width="0.6"/>
<rect x="321" y="26" width="18" height="4" fill="#0B0F16"/>
<path d="M 321 26 L 321 30 M 339 26 L 339 30" fill="none" stroke="#000000" stroke-width="0.6"/>
<ellipse cx="330" cy="26" rx="9" ry="4.5" fill="#2B3240" stroke="#000000" stroke-width="0.6"/>
<ellipse cx="390" cy="30" rx="9" ry="4.5" fill="#0B0F16" stroke="#000000" stroke-width="0.6"/>
<rect x="381" y="26" width="18" height="4" fill="#0B0F16"/>
<path d="M 381 26 L 381 30 M 399 26 L 399 30" fill="none" stroke="#000000" stroke-width="0.6"/>
<ellipse cx="390" cy="26" rx="9" ry="4.5" fill="#2B3240" stroke="#000000" stroke-width="0.6"/>
<ellipse cx="450" cy="30" rx="9" ry="4.5" fill="#0B0F16" stroke="#000000" stroke-width="0.6"/>
<rect x="441" y="26" width="18" height="4" fill="#0B0F16"/>
<path d="M 441 26 L 441 30 M 459 26 L 459 30" fill="none" stroke="#000000" stroke-width="0.6"/>
<ellipse cx="450" cy="26" rx="9" ry="4.5" fill="#2B3240" stroke="#000000" stroke-width="0.6"/>
<ellipse cx="510" cy="30" rx="9" ry="4.5" fill="#0B0F16" stroke="#000000" stroke-width="0.6"/>
<rect x="501" y="26" width="18" height="4" fill="#0B0F16"/>
<path d="M 501 26 L 501 30 M 519 26 L 519 30" fill="none" stroke="#000000" stroke-width="0.6"/>
<ellipse cx="510" cy="26" rx="9" ry="4.5" fill="#2B3240" stroke="#000000" stroke-width="0.6"/>
<ellipse cx="570" cy="30" rx="9" ry="4.5" fill="#0B0F16" stroke="#000000" stroke-width="0.6"/>
<rect x="561" y="26" width="18" height="4" fill="#0B0F16"/>
<path d="M 561 26 L 561 30 M 579 26 L 579 30" fill="none" stroke="#000000" stroke-width="0.6"/>
<ellipse cx="570" cy="26" rx="9" ry="4.5" fill="#2B3240" stroke="#000000" stroke-width="0.6"/>
<ellipse cx="630" cy="30" rx="9" ry="4.5" fill="#0B0F16" stroke="#000000" stroke-width="0.6"/>
<rect x="621" y="26" width="18" height="4" fill="#0B0F16"/>
<path d="M 621 26 L 621 30 M 639 26 L 639 30" fill="none" stroke="#000000" stroke-width="0.6"/>
<ellipse cx="630" cy="26" rx="9" ry="4.5" fill="#2B3240" stroke="#000000" stroke-width="0.6"/>
<ellipse cx="690" cy="30" rx="9" ry="4.5" fill="#0B0F16" stroke="#000000" stroke-width="0.6"/>
<rect x="681" y="26" width="18" height="4" fill="#0B0F16"/>
<path d="M 681 26 L 681 30 M 699 26 L 699 30" fill="none" stroke="#000000" stroke-width="0.6"/>
<ellipse cx="690" cy="26" rx="9" ry="4.5" fill="#2B3240" stroke="#000000" stroke-width="0.6"/>
<ellipse cx="750" cy="30" rx="9" ry="4.5" fill="#0B0F16" stroke="#000000" stroke-width="0.6"/>
<rect x="741" y="26" width="18" height="4" fill="#0B0F16"/>
<path d="M 741 26 L 741 30 M 759 26 L 759 30" fill="none" stroke="#000000" stroke-width="0.6"/>
<ellipse cx="750" cy="26" rx="9" ry="4.5" fill="#2B3240" stroke="#000000" stroke-width="0.6"/>
<ellipse cx="810" cy="30" rx="9" ry="4.5" fill="#0B0F16" stroke="#000000" stroke-width="0.6"/>
<rect x="801" y="26" width="18" height="4" fill="#0B0F16"/>
<path d="M 801 26 L 801 30 M 819 26 L 819 30" fill="none" stroke="#000000" stroke-width="0.6"/>
<ellipse cx="810" cy="26" rx="9" ry="4.5" fill="#2B3240" stroke="#000000" stroke-width="0.6"/>
<ellipse cx="870" cy="30" rx="9" ry="4.5" fill="#0B0F16" stroke="#000000" stroke-width="0.6"/>
<rect x="861" y="26" width="18" height="4" fill="#0B0F16"/>
<path d="M 861 26 L 861 30 M 879 26 L 879 30" fill="none" stroke="#000000" stroke-width="0.6"/>
<ellipse cx="870" cy="26" rx="9" ry="4.5" fill="#2B3240" stroke="#000000" stroke-width="0.6"/>
<ellipse cx="930" cy="30" rx="9" ry="4.5" fill="#0B0F16" stroke="#000000" stroke-width="0.6"/>
<rect x="921" y="26" width="18" height="4" fill="#0B0F16"/>
<path d="M 921 26 L 921 30 M 939 26 L 939 30" fill="none" stroke="#000000" stroke-width="0.6"/>
<ellipse cx="930" cy="26" rx="9" ry="4.5" fill="#2B3240" stroke="#000000" stroke-width="0.6"/>
<ellipse cx="0" cy="45" rx="9" ry="4.5" fill="#0B0F16" stroke="#000000" stroke-width="0.6"/>
<rect x="-9" y="41" width="18" height="4" fill="#0B0F16"/>
<path d="M -9 41 L -9 45 M 9 41 L 9 45" fill="none" stroke="#000000" stroke-width="0.6"/>
<ellipse cx="0" cy="41" rx="9" ry="4.5" fill="#2B3240" stroke="#000000" stroke-width="0.6"/>
<ellipse cx="60" cy="45" rx="9" ry="4.5" fill="#0B0F16" stroke="#000000" stroke-width="0.6"/>
<rect x="51" y="41" width="18" height="4" fill="#0B0F16"/>
<path d="M 51 41 L 51 45 M 69 41 L 69 45" fill="none" stroke="#000000" stroke-width="0.6"/>
<ellipse cx="60" cy="41" rx="9" ry="4.5" fill="#2B3240" stroke="#000000" stroke-width="0.6"/>
<ellipse cx="120" cy="45" rx="9" ry="4.5" fill="#0B0F16" stroke="#000000" stroke-width="0.6"/>
<rect x="111" y="41" width="18" height="4" fill="#0B0F16"/>
<path d="M 111 41 L 111 45 M 129 41 L 129 45" fill="none" stroke="#000000" stroke-width="0.6"/>
<ellipse cx="120" cy="41" rx="9" ry="4.5" fill="#2B3240" stroke="#000000" stroke-width="0.6"/>
<ellipse cx="180" cy="45" rx="9" ry="4.5" fill="#0B0F16" stroke="#000000" stroke-width="0.6"/>
<rect x="171" y="41" width="18" height="4" fill="#0B0F16"/>
<path d="M 171 41 L 171 45 M 189 41 L 189 45" fill="none" stroke="#000000" stroke-width="0.6"/>
<ellipse cx="180" cy="41" rx="9" ry="4.5" fill="#2B3240" stroke="#000000" stroke-width="0.6"/>
<ellipse cx="240" cy="45" rx="9" ry="4.5" fill="#0B0F16" stroke="#000000" stroke-width="0.6"/>
<rect x="231" y="41" width="18" height="4" fill="#0B0F16"/>
<path d="M 231 41 L 231 45 M 249 41 L 249 45" fill="none" stroke="#000000" stroke-width="0.6"/>
<ellipse cx="240" cy="41" rx="9" ry="4.5" fill="#2B3240" stroke="#000000" stroke-width="0.6"/>
<ellipse cx="300" cy="45" rx="9" ry="4.5" fill="#0B0F16" stroke="#000000" stroke-width="0.6"/>
<rect x="291" y="41" width="18" height="4" fill="#0B0F16"/>
<path d="M 291 41 L 291 45 M 309 41 L 309 45" fill="none" stroke="#000000" stroke-width="0.6"/>
<ellipse cx="300" cy="41" rx="9" ry="4.5" fill="#2B3240" stroke="#000000" stroke-width="0.6"/>
<ellipse cx="360" cy="45" rx="9" ry="4.5" fill="#0B0F16" stroke="#000000" stroke-width="0.6"/>
<rect x="351" y="41" width="18" height="4" fill="#0B0F16"/>
<path d="M 351 41 L 351 45 M 369 41 L 369 45" fill="none" stroke="#000000" stroke-width="0.6"/>
<ellipse cx="360" cy="41" rx="9" ry="4.5" fill="#2B3240" stroke="#000000" stroke-width="0.6"/>
<ellipse cx="420" cy="45" rx="9" ry="4.5" fill="#0B0F16" stroke="#000000" stroke-width="0.6"/>
<rect x="411" y="41" width="18" height="4" fill="#0B0F16"/>
<path d="M 411 41 L 411 45 M 429 41 L 429 45" fill="none" stroke="#000000" stroke-width="0.6"/>
<ellipse cx="420" cy="41" rx="9" ry="4.5" fill="#2B3240" stroke="#000000" stroke-width="0.6"/>
<ellipse cx="480" cy="45" rx="9" ry="4.5" fill="#0B0F16" stroke="#000000" stroke-width="0.6"/>
<rect x="471" y="41" width="18" height="4" fill="#0B0F16"/>
<path d="M 471 41 L 471 45 M 489 41 L 489 45" fill="none" stroke="#000000" stroke-width="0.6"/>
<ellipse cx="480" cy="41" rx="9" ry="4.5" fill="#2B3240" stroke="#000000" stroke-width="0.6"/>
<ellipse cx="540" cy="45" rx="9" ry="4.5" fill="#0B0F16" stroke="#000000" stroke-width="0.6"/>
<rect x="531" y="41" width="18" height="4" fill="#0B0F16"/>
<path d="M 531 41 L 531 45 M 549 41 L 549 45" fill="none" stroke="#000000" stroke-width="0.6"/>
<ellipse cx="540" cy="41" rx="9" ry="4.5" fill="#2B3240" stroke="#000000" stroke-width="0.6"/>
<ellipse cx="600" cy="45" rx="9" ry="4.5" fill="#0B0F16" stroke="#000000" stroke-width="0.6"/>
<rect x="591" y="41" width="18" height="4" fill="#0B0F16"/>
<path d="M 591 41 L 591 45 M 609 41 L 609 45" fill="none" stroke="#000000" stroke-width="0.6"/>
<ellipse cx="600" cy="41" rx="9" ry="4.5" fill="#2B3240" stroke="#000000" stroke-width="0.6"/>
<ellipse cx="660" cy="45" rx="9" ry="4.5" fill="#0B0F16" stroke="#000000" stroke-width="0.6"/>
<rect x="651" y="41" width="18" height="4" fill="#0B0F16"/>
<path d="M 651 41 L 651 45 M 669 41 L 669 45" fill="none" stroke="#000000" stroke-width="0.6"/>
<ellipse cx="660" cy="41" rx="9" ry="4.5" fill="#2B3240" stroke="#000000" stroke-width="0.6"/>
<ellipse cx="720" cy="45" rx="9" ry="4.5" fill="#0B0F16" stroke="#000000" stroke-width="0.6"/>
<rect x="711" y="41" width="18" height="4" fill="#0B0F16"/>
<path d="M 711 41 L 711 45 M 729 41 L 729 45" fill="none" stroke="#000000" stroke-width="0.6"/>
<ellipse cx="720" cy="41" rx="9" ry="4.5" fill="#2B3240" stroke="#000000" stroke-width="0.6"/>
<ellipse cx="780" cy="45" rx="9" ry="4.5" fill="#0B0F16" stroke="#000000" stroke-width="0.6"/>
<rect x="771" y="41" width="18" height="4" fill="#0B0F16"/>
<path d="M 771 41 L 771 45 M 789 41 L 789 45" fill="none" stroke="#000000" stroke-width="0.6"/>
<ellipse cx="780" cy="41" rx="9" ry="4.5" fill="#2B3240" stroke="#000000" stroke-width="0.6"/>
<ellipse cx="840" cy="45" rx="9" ry="4.5" fill="#0B0F16" stroke="#000000" stroke-width="0.6"/>
<rect x="831" y="41" width="18" height="4" fill="#0B0F16"/>
<path d="M 831 41 L 831 45 M 849 41 L 849 45" fill="none" stroke="#000000" stroke-width="0.6"/>
<ellipse cx="840" cy="41" rx="9" ry="4.5" fill="#2B3240" stroke="#000000" stroke-width="0.6"/>
<ellipse cx="900" cy="45" rx="9" ry="4.5" fill="#0B0F16" stroke="#000000" stroke-width="0.6"/>
<rect x="891" y="41" width="18" height="4" fill="#0B0F16"/>
<path d="M 891 41 L 891 45 M 909 41 L 909 45" fill="none" stroke="#000000" stroke-width="0.6"/>
<ellipse cx="900" cy="41" rx="9" ry="4.5" fill="#2B3240" stroke="#000000" stroke-width="0.6"/>
<ellipse cx="-30" cy="60" rx="9" ry="4.5" fill="#0B0F16" stroke="#000000" stroke-width="0.6"/>
<rect x="-39" y="56" width="18" height="4" fill="#0B0F16"/>
<path d="M -39 56 L -39 60 M -21 56 L -21 60" fill="none" stroke="#000000" stroke-width="0.6"/>
<ellipse cx="-30" cy="56" rx="9" ry="4.5" fill="#2B3240" stroke="#000000" stroke-width="0.6"/>
<ellipse cx="30" cy="60" rx="9" ry="4.5" fill="#0B0F16" stroke="#000000" stroke-width="0.6"/>
<rect x="21" y="56" width="18" height="4" fill="#0B0F16"/>
<path d="M 21 56 L 21 60 M 39 56 L 39 60" fill="none" stroke="#000000" stroke-width="0.6"/>
<ellipse cx="30" cy="56" rx="9" ry="4.5" fill="#2B3240" stroke="#000000" stroke-width="0.6"/>
<ellipse cx="90" cy="60" rx="9" ry="4.5" fill="#0B0F16" stroke="#000000" stroke-width="0.6"/>
<rect x="81" y="56" width="18" height="4" fill="#0B0F16"/>
<path d="M 81 56 L 81 60 M 99 56 L 99 60" fill="none" stroke="#000000" stroke-width="0.6"/>
<ellipse cx="90" cy="56" rx="9" ry="4.5" fill="#2B3240" stroke="#000000" stroke-width="0.6"/>
<ellipse cx="150" cy="60" rx="9" ry="4.5" fill="#0B0F16" stroke="#000000" stroke-width="0.6"/>
<rect x="141" y="56" width="18" height="4" fill="#0B0F16"/>
<path d="M 141 56 L 141 60 M 159 56 L 159 60" fill="none" stroke="#000000" stroke-width="0.6"/>
<ellipse cx="150" cy="56" rx="9" ry="4.5" fill="#2B3240" stroke="#000000" stroke-width="0.6"/>
<ellipse cx="210" cy="60" rx="9" ry="4.5" fill="#0B0F16" stroke="#000000" stroke-width="0.6"/>
<rect x="201" y="56" width="18" height="4" fill="#0B0F16"/>
<path d="M 201 56 L 201 60 M 219 56 L 219 60" fill="none" stroke="#000000" stroke-width="0.6"/>
<ellipse cx="210" cy="56" rx="9" ry="4.5" fill="#2B3240" stroke="#000000" stroke-width="0.6"/>
<ellipse cx="270" cy="60" rx="9" ry="4.5" fill="#0B0F16" stroke="#000000" stroke-width="0.6"/>
<rect x="261" y="56" width="18" height="4" fill="#0B0F16"/>
<path d="M 261 56 L 261 60 M 279 56 L 279 60" fill="none" stroke="#000000" stroke-width="0.6"/>
<ellipse cx="270" cy="56" rx="9" ry="4.5" fill="#2B3240" stroke="#000000" stroke-width="0.6"/>
<ellipse cx="330" cy="60" rx="9" ry="4.5" fill="#0B0F16" stroke="#000000" stroke-width="0.6"/>
<rect x="321" y="56" width="18" height="4" fill="#0B0F16"/>
<path d="M 321 56 L 321 60 M 339 56 L 339 60" fill="none" stroke="#000000" stroke-width="0.6"/>
<ellipse cx="330" cy="56" rx="9" ry="4.5" fill="#2B3240" stroke="#000000" stroke-width="0.6"/>
<ellipse cx="390" cy="60" rx="9" ry="4.5" fill="#0B0F16" stroke="#000000" stroke-width="0.6"/>
<rect x="381" y="56" width="18" height="4" fill="#0B0F16"/>
<path d="M 381 56 L 381 60 M 399 56 L 399 60" fill="none" stroke="#000000" stroke-width="0.6"/>
<ellipse cx="390" cy="56" rx="9" ry="4.5" fill="#2B3240" stroke="#000000" stroke-width="0.6"/>
<ellipse cx="450" cy="60" rx="9" ry="4.5" fill="#0B0F16" stroke="#000000" stroke-width="0.6"/>
<rect x="441" y="56" width="18" height="4" fill="#0B0F16"/>
<path d="M 441 56 L 441 60 M 459 56 L 459 60" fill="none" stroke="#000000" stroke-width="0.6"/>
<ellipse cx="450" cy="56" rx="9" ry="4.5" fill="#2B3240" stroke="#000000" stroke-width="0.6"/>
<ellipse cx="510" cy="60" rx="9" ry="4.5" fill="#0B0F16" stroke="#000000" stroke-width="0.6"/>
<rect x="501" y="56" width="18" height="4" fill="#0B0F16"/>
<path d="M 501 56 L 501 60 M 519 56 L 519 60" fill="none" stroke="#000000" stroke-width="0.6"/>
<ellipse cx="510" cy="56" rx="9" ry="4.5" fill="#2B3240" stroke="#000000" stroke-width="0.6"/>
<ellipse cx="570" cy="60" rx="9" ry="4.5" fill="#0B0F16" stroke="#000000" stroke-width="0.6"/>
<rect x="561" y="56" width="18" height="4" fill="#0B0F16"/>
<path d="M 561 56 L 561 60 M 579 56 L 579 60" fill="none" stroke="#000000" stroke-width="0.6"/>
<ellipse cx="570" cy="56" rx="9" ry="4.5" fill="#2B3240" stroke="#000000" stroke-width="0.6"/>
<ellipse cx="630" cy="60" rx="9" ry="4.5" fill="#0B0F16" stroke="#000000" stroke-width="0.6"/>
<rect x="621" y="56" width="18" height="4" fill="#0B0F16"/>
<path d="M 621 56 L 621 60 M 639 56 L 639 60" fill="none" stroke="#000000" stroke-width="0.6"/>
<ellipse cx="630" cy="56" rx="9" ry="4.5" fill="#2B3240" stroke="#000000" stroke-width="0.6"/>
<ellipse cx="690" cy="60" rx="9" ry="4.5" fill="#0B0F16" stroke="#000000" stroke-width="0.6"/>
<rect x="681" y="56" width="18" height="4" fill="#0B0F16"/>
<path d="M 681 56 L 681 60 M 699 56 L 699 60" fill="none" stroke="#000000" stroke-width="0.6"/>
<ellipse cx="690" cy="56" rx="9" ry="4.5" fill="#2B3240" stroke="#000000" stroke-width="0.6"/>
<ellipse cx="750" cy="60" rx="9" ry="4.5" fill="#0B0F16" stroke="#000000" stroke-width="0.6"/>
<rect x="741" y="56" width="18" height="4" fill="#0B0F16"/>
<path d="M 741 56 L 741 60 M 759 56 L 759 60" fill="none" stroke="#000000" stroke-width="0.6"/>
<ellipse cx="750" cy="56" rx="9" ry="4.5" fill="#2B3240" stroke="#000000" stroke-width="0.6"/>
<ellipse cx="810" cy="60" rx="9" ry="4.5" fill="#0B0F16" stroke="#000000" stroke-width="0.6"/>
<rect x="801" y="56" width="18" height="4" fill="#0B0F16"/>
<path d="M 801 56 L 801 60 M 819 56 L 819 60" fill="none" stroke="#000000" stroke-width="0.6"/>
<ellipse cx="810" cy="56" rx="9" ry="4.5" fill="#2B3240" stroke="#000000" stroke-width="0.6"/>
<ellipse cx="870" cy="60" rx="9" ry="4.5" fill="#0B0F16" stroke="#000000" stroke-width="0.6"/>
<rect x="861" y="56" width="18" height="4" fill="#0B0F16"/>
<path d="M 861 56 L 861 60 M 879 56 L 879 60" fill="none" stroke="#000000" stroke-width="0.6"/>
<ellipse cx="870" cy="56" rx="9" ry="4.5" fill="#2B3240" stroke="#000000" stroke-width="0.6"/>
<ellipse cx="930" cy="60" rx="9" ry="4.5" fill="#0B0F16" stroke="#000000" stroke-width="0.6"/>
<rect x="921" y="56" width="18" height="4" fill="#0B0F16"/>
<path d="M 921 56 L 921 60 M 939 56 L 939 60" fill="none" stroke="#000000" stroke-width="0.6"/>
<ellipse cx="930" cy="56" rx="9" ry="4.5" fill="#2B3240" stroke="#000000" stroke-width="0.6"/>
</svg>
