<svg xmlns="http://www.w3.org/2000/svg" viewBox="-64 -12.5 98 133.5" role="img" aria-label="tall-1x2 ocean (isometric)">
<title>tall-1x2 ocean (isometric)</title>
<polygon points="-30,45 -60,30 -60,102 -30,117" fill="#174E6E" stroke="#042031" stroke-width="0.6" stroke-linejoin="round"/>
<polygon points="-30,45 30,15 30,87 -30,117" fill="#103D57" stroke="#042031" stroke-width="0.6" stroke-linejoin="round"/>
<polygon points="0,0 30,15 -30,45 -60,30" fill="#1E5E82" stroke="#042031" stroke-width="0.6" stroke-linejoin="round"/>
<ellipse cx="0" cy="15" rx="9" ry="4.5" fill="#174E6E" stroke="#042031" stroke-width="0.6"/>
<rect x="-9" y="11" width="18" height="4" fill="#174E6E"/>
<path d="M -9 11 L -9 15 M 9 11 L 9 15" fill="none" stroke="#042031" stroke-width="0.6"/>
<ellipse cx="0" cy="11" rx="9" ry="4.5" fill="#3D89AF" stroke="#042031" stroke-width="0.6"/>
<ellipse cx="-30" cy="30" rx="9" ry="4.5" fill="#174E6E" stroke="#042031" stroke-width="0.6"/>
<rect x="-39" y="26" width="18" height="4" fill="#174E6E"/>
<path d="M -39 26 L -39 30 M -21 26 L -21 30" fill="none" stroke="#042031" stroke-width="0.6"/>
<ellipse cx="-30" cy="26" rx="9" ry="4.5" fill="#3D89AF" stroke="#042031" stroke-width="0.6"/>
</svg>
