<svg xmlns="http://www.w3.org/2000/svg" viewBox="-64 -12.5 188 142.5" role="img" aria-label="brick-2x4 kraft (isometric mirror)">
<title>brick-2x4 kraft (isometric mirror)</title>
<polygon points="60,90 120,60 120,96 60,126" fill="#BF7642" stroke="#4C2E1A" stroke-width="0.6" stroke-linejoin="round"/>
<polygon points="60,90 -60,30 -60,66 60,126" fill="#CA8C60" stroke="#4C2E1A" stroke-width="0.6" stroke-linejoin="round"/>
<polygon points="0,0 -60,30 60,90 120,60" fill="#D4A27F" stroke="#4C2E1A" stroke-width="0.6" stroke-linejoin="round"/>
<ellipse cx="0" cy="15" rx="9" ry="4.5" fill="#CA8C60" stroke="#4C2E1A" stroke-width="0.6"/>
<rect x="-9" y="11" width="18" height="4" fill="#CA8C60"/>
<path d="M -9 11 L -9 15 M 9 11 L 9 15" fill="none" stroke="#4C2E1A" stroke-width="0.6"/>
<ellipse cx="0" cy="11" rx="9" ry="4.5" fill="#E3C3AD" stroke="#4C2E1A" stroke-width="0.6"/>
<ellipse cx="30" cy="30" rx="9" ry="4.5" fill="#CA8C60" stroke="#4C2E1A" stroke-width="0.6"/>
<rect x="21" y="26" width="18" height="4" fill="#CA8C60"/>
<path d="M 21 26 L 21 30 M 39 26 L 39 30" fill="none" stroke="#4C2E1A" stroke-width="0.6"/>
<ellipse cx="30" cy="26" rx="9" ry="4.5" fill="#E3C3AD" stroke="#4C2E1A" stroke-width="0.6"/>
<ellipse cx="60" cy="45" rx="9" ry="4.5" fill="#CA8C60" stroke="#4C2E1A" stroke-width="0.6"/>
<rect x="51" y="41" width="18" height="4" fill="#CA8C60"/>
<path d="M 51 41 L 51 45 M 69 41 L 69 45" fill="none" stroke="#4C2E1A" stroke-width="0.6"/>
<ellipse cx="60" cy="41" rx="9" ry="4.5" fill="#E3C3AD" stroke="#4C2E1A" stroke-width="0.6"/>
<ellipse cx="90" cy="60" rx="9" ry="4.5" fill="#CA8C60" stroke="#4C2E1A" stroke-width="0.6"/>
<rect x="81" y="56" width="18" height="4" fill="#CA8C60"/>
<path d="M 81 56 L 81 60 M 99 56 L 99 60" fill="none" stroke="#4C2E1A" stroke-width="0.6"/>
<ellipse cx="90" cy="56" rx="9" ry="4.5" fill="#E3C3AD" stroke="#4C2E1A" stroke-width="0.6"/>
<ellipse cx="-30" cy="30" rx="9" ry="4.5" fill="#CA8C60" stroke="#4C2E1A" stroke-width="0.6"/>
<rect x="-39" y="26" width="18" height="4" fill="#CA8C60"/>
<path d="M -39 26 L -39 30 M -21 26 L -21 30" fill="none" stroke="#4C2E1A" stroke-width="0.6"/>
<ellipse cx="-30" cy="26" rx="9" ry="4.5" fill="#E3C3AD" stroke="#4C2E1A" stroke-width="0.6"/>
<ellipse cx="0" cy="45" rx="9" ry="4.5" fill="#CA8C60" stroke="#4C2E1A" stroke-width="0.6"/>
<rect x="-9" y="41" width="18" height="4" fill="#CA8C60"/>
<path d="M -9 41 L -9 45 M 9 41 L 9 45" fill="none" stroke="#4C2E1A" stroke-width="0.6"/>
<ellipse cx="0" cy="41" rx="9" ry="4.5" fill="#E3C3AD" stroke="#4C2E1A" stroke-width="0.6"/>
<ellipse cx="30" cy="60" rx="9" ry="4.5" fill="#CA8C60" stroke="#4C2E1A" stroke-width="0.6"/>
<rect x="21" y="56" width="18" height="4" fill="#CA8C60"/>
<path d="M 21 56 L 21 60 M 39 56 L 39 60" fill="none" stroke="#4C2E1A" stroke-width="0.6"/>
<ellipse cx="30" cy="56" rx="9" ry="4.5" fill="#E3C3AD" stroke="#4C2E1A" stroke-width="0.6"/>
<ellipse cx="60" cy="75" rx="9" ry="4.5" fill="#CA8C60" stroke="#4C2E1A" stroke-width="0.6"/>
<rect x="51" y="71" width="18" height="4" fill="#CA8C60"/>
<path d="M 51 71 L 51 75 M 69 71 L 69 75" fill="none" stroke="#4C2E1A" stroke-width="0.6"/>
<ellipse cx="60" cy="71" rx="9" ry="4.5" fill="#E3C3AD" stroke="#4C2E1A" stroke-width="0.6"/>
</svg>
