<svg xmlns="http://www.w3.org/2000/svg" viewBox="-34 -12.5 218 133.5" role="img" aria-label="plate-1x6 smoke (isometric mirror)">
<title>plate-1x6 smoke (isometric mirror)</title>
<polygon points="150,105 180,90 180,102 150,117" fill="#686864" stroke="#2C2C2A" stroke-width="0.6" stroke-linejoin="round"/>
<polygon points="150,105 -30,15 -30,27 150,117" fill="#7D7D78" stroke="#2C2C2A" stroke-width="0.6" stroke-linejoin="round"/>
<polygon points="0,0 -30,15 150,105 180,90" fill="#91918D" stroke="#2C2C2A" stroke-width="0.6" stroke-linejoin="round"/>
<ellipse cx="0" cy="15" rx="9" ry="4.5" fill="#7D7D78" stroke="#2C2C2A" stroke-width="0.6"/>
<rect x="-9" y="11" width="18" height="4" fill="#7D7D78"/>
<path d="M -9 11 L -9 15 M 9 11 L 9 15" fill="none" stroke="#2C2C2A" stroke-width="0.6"/>
<ellipse cx="0" cy="11" rx="9" ry="4.5" fill="#AFAFAC" stroke="#2C2C2A" stroke-width="0.6"/>
<ellipse cx="30" cy="30" rx="9" ry="4.5" fill="#7D7D78" stroke="#2C2C2A" stroke-width="0.6"/>
<rect x="21" y="26" width="18" height="4" fill="#7D7D78"/>
<path d="M 21 26 L 21 30 M 39 26 L 39 30" fill="none" stroke="#2C2C2A" stroke-width="0.6"/>
<ellipse cx="30" cy="26" rx="9" ry="4.5" fill="#AFAFAC" stroke="#2C2C2A" stroke-width="0.6"/>
<ellipse cx="60" cy="45" rx="9" ry="4.5" fill="#7D7D78" stroke="#2C2C2A" stroke-width="0.6"/>
<rect x="51" y="41" width="18" height="4" fill="#7D7D78"/>
<path d="M 51 41 L 51 45 M 69 41 L 69 45" fill="none" stroke="#2C2C2A" stroke-width="0.6"/>
<ellipse cx="60" cy="41" rx="9" ry="4.5" fill="#AFAFAC" stroke="#2C2C2A" stroke-width="0.6"/>
<ellipse cx="90" cy="60" rx="9" ry="4.5" fill="#7D7D78" stroke="#2C2C2A" stroke-width="0.6"/>
<rect x="81" y="56" width="18" height="4" fill="#7D7D78"/>
<path d="M 81 56 L 81 60 M 99 56 L 99 60" fill="none" stroke="#2C2C2A" stroke-width="0.6"/>
<ellipse cx="90" cy="56" rx="9" ry="4.5" fill="#AFAFAC" stroke="#2C2C2A" stroke-width="0.6"/>
<ellipse cx="120" cy="75" rx="9" ry="4.5" fill="#7D7D78" stroke="#2C2C2A" stroke-width="0.6"/>
<rect x="111" y="71" width="18" height="4" fill="#7D7D78"/>
<path d="M 111 71 L 111 75 M 129 71 L 129 75" fill="none" stroke="#2C2C2A" stroke-width="0.6"/>
<ellipse cx="120" cy="71" rx="9" ry="4.5" fill="#AFAFAC" stroke="#2C2C2A" stroke-width="0.6"/>
<ellipse cx="150" cy="90" rx="9" ry="4.5" fill="#7D7D78" stroke="#2C2C2A" stroke-width="0.6"/>
<rect x="141" y="86" width="18" height="4" fill="#7D7D78"/>
<path d="M 141 86 L 141 90 M 159 86 L 159 90" fill="none" stroke="#2C2C2A" stroke-width="0.6"/>
<ellipse cx="150" cy="86" rx="9" ry="4.5" fill="#AFAFAC" stroke="#2C2C2A" stroke-width="0.6"/>
</svg>
