<svg xmlns="http://www.w3.org/2000/svg" viewBox="-64 0.5 1028 52" role="img" aria-label="strip-32x2 kraft (strip)">
<title>strip-32x2 kraft (strip)</title>
<polygon points="-60,36.5 960,36.5 960,48.5 -60,48.5" fill="#CA8C60" stroke="#4C2E1A" stroke-width="0.6" stroke-linejoin="round"/>
<polygon points="-60,4.5 960,4.5 960,36.5 -60,36.5" fill="#D4A27F" stroke="#4C2E1A" stroke-width="0.6" stroke-linejoin="round"/>
<ellipse cx="-60" cy="15" rx="9" ry="4.5" fill="#CA8C60" stroke="#4C2E1A" stroke-width="0.6"/>
<rect x="-69" y="11" width="18" height="4" fill="#CA8C60"/>
<path d="M -69 11 L -69 15 M -51 11 L -51 15" fill="none" stroke="#4C2E1A" stroke-width="0.6"/>
<ellipse cx="-60" cy="11" rx="9" ry="4.5" fill="#E3C3AD" stroke="#4C2E1A" stroke-width="0.6"/>
<ellipse cx="0" cy="15" rx="9" ry="4.5" fill="#CA8C60" stroke="#4C2E1A" stroke-width="0.6"/>
<rect x="-9" y="11" width="18" height="4" fill="#CA8C60"/>
<path d="M -9 11 L -9 15 M 9 11 L 9 15" fill="none" stroke="#4C2E1A" stroke-width="0.6"/>
<ellipse cx="0" cy="11" rx="9" ry="4.5" fill="#E3C3AD" stroke="#4C2E1A" stroke-width="0.6"/>
<ellipse cx="60" cy="15" rx="9" ry="4.5" fill="#CA8C60" stroke="#4C2E1A" stroke-width="0.6"/>
<rect x="51" y="11" width="18" height="4" fill="#CA8C60"/>
<path d="M 51 11 L 51 15 M 69 11 L 69 15" fill="none" stroke="#4C2E1A" stroke-width="0.6"/>
<ellipse cx="60" cy="11" rx="9" ry="4.5" fill="#E3C3AD" stroke="#4C2E1A" stroke-width="0.6"/>
<ellipse cx="120" cy="15" rx="9" ry="4.5" fill="#CA8C60" stroke="#4C2E1A" stroke-width="0.6"/>
<rect x="111" y="11" width="18" height="4" fill="#CA8C60"/>
<path d="M 111 11 L 111 15 M 129 11 L 129 15" fill="none" stroke="#4C2E1A" stroke-width="0.6"/>
<ellipse cx="120" cy="11" rx="9" ry="4.5" fill="#E3C3AD" stroke="#4C2E1A" stroke-width="0.6"/>
<ellipse cx="180" cy="15" rx="9" ry="4.5" fill="#CA8C60" stroke="#4C2E1A" stroke-width="0.6"/>
<rect x="171" y="11" width="18" height="4" fill="#CA8C60"/>
<path d="M 171 11 L 171 15 M 189 11 L 189 15" fill="none" stroke="#4C2E1A" stroke-width="0.6"/>
<ellipse cx="180" cy="11" rx="9" ry="4.5" fill="#E3C3AD" stroke="#4C2E1A" stroke-width="0.6"/>
<ellipse cx="240" cy="15" rx="9" ry="4.5" fill="#CA8C60" stroke="#4C2E1A" stroke-width="0.6"/>
<rect x="231" y="11" width="18" height="4" fill="#CA8C60"/>
<path d="M 231 11 L 231 15 M 249 11 L 249 15" fill="none" stroke="#4C2E1A" stroke-width="0.6"/>
<ellipse cx="240" cy="11" rx="9" ry="4.5" fill="#E3C3AD" stroke="#4C2E1A" stroke-width="0.6"/>
<ellipse cx="300" cy="15" rx="9" ry="4.5" fill="#CA8C60" stroke="#4C2E1A" stroke-width="0.6"/>
<rect x="291" y="11" width="18" height="4" fill="#CA8C60"/>
<path d="M 291 11 L 291 15 M 309 11 L 309 15" fill="none" stroke="#4C2E1A" stroke-width="0.6"/>
<ellipse cx="300" cy="11" rx="9" ry="4.5" fill="#E3C3AD" stroke="#4C2E1A" stroke-width="0.6"/>
<ellipse cx="360" cy="15" rx="9" ry="4.5" fill="#CA8C60" stroke="#4C2E1A" stroke-width="0.6"/>
<rect x="351" y="11" width="18" height="4" fill="#CA8C60"/>
<path d="M 351 11 L 351 15 M 369 11 L 369 15" fill="none" stroke="#4C2E1A" stroke-width="0.6"/>
<ellipse cx="360" cy="11" rx="9" ry="4.5" fill="#E3C3AD" stroke="#4C2E1A" stroke-width="0.6"/>
<ellipse cx="420" cy="15" rx="9" ry="4.5" fill="#CA8C60" stroke="#4C2E1A" stroke-width="0.6"/>
<rect x="411" y="11" width="18" height="4" fill="#CA8C60"/>
<path d="M 411 11 L 411 15 M 429 11 L 429 15" fill="none" stroke="#4C2E1A" stroke-width="0.6"/>
<ellipse cx="420" cy="11" rx="9" ry="4.5" fill="#E3C3AD" stroke="#4C2E1A" stroke-width="0.6"/>
<ellipse cx="480" cy="15" rx="9" ry="4.5" fill="#CA8C60" stroke="#4C2E1A" stroke-width="0.6"/>
<rect x="471" y="11" width="18" height="4" fill="#CA8C60"/>
<path d="M 471 11 L 471 15 M 489 11 L 489 15" fill="none" stroke="#4C2E1A" stroke-width="0.6"/>
<ellipse cx="480" cy="11" rx="9" ry="4.5" fill="#E3C3AD" stroke="#4C2E1A" stroke-width="0.6"/>
<ellipse cx="540" cy="15" rx="9" ry="4.5" fill="#CA8C60" stroke="#4C2E1A" stroke-width="0.6"/>
<rect x="531" y="11" width="18" height="4" fill="#CA8C60"/>
<path d="M 531 11 L 531 15 M 549 11 L 549 15" fill="none" stroke="#4C2E1A" stroke-width="0.6"/>
<ellipse cx="540" cy="11" rx="9" ry="4.5" fill="#E3C3AD" stroke="#4C2E1A" stroke-width="0.6"/>
<ellipse cx="600" cy="15" rx="9" ry="4.5" fill="#CA8C60" stroke="#4C2E1A" stroke-width="0.6"/>
<rect x="591" y="11" width="18" height="4" fill="#CA8C60"/>
<path d="M 591 11 L 591 15 M 609 11 L 609 15" fill="none" stroke="#4C2E1A" stroke-width="0.6"/>
<ellipse cx="600" cy="11" rx="9" ry="4.5" fill="#E3C3AD" stroke="#4C2E1A" stroke-width="0.6"/>
<ellipse cx="660" cy="15" rx="9" ry="4.5" fill="#CA8C60" stroke="#4C2E1A" stroke-width="0.6"/>
<rect x="651" y="11" width="18" height="4" fill="#CA8C60"/>
<path d="M 651 11 L 651 15 M 669 11 L 669 15" fill="none" stroke="#4C2E1A" stroke-width="0.6"/>
<ellipse cx="660" cy="11" rx="9" ry="4.5" fill="#E3C3AD" stroke="#4C2E1A" stroke-width="0.6"/>
<ellipse cx="720" cy="15" rx="9" ry="4.5" fill="#CA8C60" stroke="#4C2E1A" stroke-width="0.6"/>
<rect x="711" y="11" width="18" height="4" fill="#CA8C60"/>
<path d="M 711 11 L 711 15 M 729 11 L 729 15" fill="none" stroke="#4C2E1A" stroke-width="0.6"/>
<ellipse cx="720" cy="11" rx="9" ry="4.5" fill="#E3C3AD" stroke="#4C2E1A" stroke-width="0.6"/>
<ellipse cx="780" cy="15" rx="9" ry="4.5" fill="#CA8C60" stroke="#4C2E1A" stroke-width="0.6"/>
<rect x="771" y="11" width="18" height="4" fill="#CA8C60"/>
<path d="M 771 11 L 771 15 M 789 11 L 789 15" fill="none" stroke="#4C2E1A" stroke-width="0.6"/>
<ellipse cx="780" cy="11" rx="9" ry="4.5" fill="#E3C3AD" stroke="#4C2E1A" stroke-width="0.6"/>
<ellipse cx="840" cy="15" rx="9" ry="4.5" fill="#CA8C60" stroke="#4C2E1A" stroke-width="0.6"/>
<rect x="831" y="11" width="18" height="4" fill="#CA8C60"/>
<path d="M 831 11 L 831 15 M 849 11 L 849 15" fill="none" stroke="#4C2E1A" stroke-width="0.6"/>
<ellipse cx="840" cy="11" rx="9" ry="4.5" fill="#E3C3AD" stroke="#4C2E1A" stroke-width="0.6"/>
<ellipse cx="900" cy="15" rx="9" ry="4.5" fill="#CA8C60" stroke="#4C2E1A" stroke-width="0.6"/>
<rect x="891" y="11" width="18" height="4" fill="#CA8C60"/>
<path d="M 891 11 L 891 15 M 909 11 L 909 15" fill="none" stroke="#4C2E1A" stroke-width="0.6"/>
<ellipse cx="900" cy="11" rx="9" ry="4.5" fill="#E3C3AD" stroke="#4C2E1A" stroke-width="0.6"/>
<ellipse cx="960" cy="15" rx="9" ry="4.5" fill="#CA8C60" stroke="#4C2E1A" stroke-width="0.6"/>
<rect x="951" y="11" width="18" height="4" fill="#CA8C60"/>
<path d="M 951 11 L 951 15 M 969 11 L 969 15" fill="none" stroke="#4C2E1A" stroke-width="0.6"/>
<ellipse cx="960" cy="11" rx="9" ry="4.5" fill="#E3C3AD" stroke="#4C2E1A" stroke-width="0.6"/>
<ellipse cx="-30" cy="30" rx="9" ry="4.5" fill="#CA8C60" stroke="#4C2E1A" stroke-width="0.6"/>
<rect x="-39" y="26" width="18" height="4" fill="#CA8C60"/>
<path d="M -39 26 L -39 30 M -21 26 L -21 30" fill="none" stroke="#4C2E1A" stroke-width="0.6"/>
<ellipse cx="-30" cy="26" rx="9" ry="4.5" fill="#E3C3AD" stroke="#4C2E1A" stroke-width="0.6"/>
<ellipse cx="30" cy="30" rx="9" ry="4.5" fill="#CA8C60" stroke="#4C2E1A" stroke-width="0.6"/>
<rect x="21" y="26" width="18" height="4" fill="#CA8C60"/>
<path d="M 21 26 L 21 30 M 39 26 L 39 30" fill="none" stroke="#4C2E1A" stroke-width="0.6"/>
<ellipse cx="30" cy="26" rx="9" ry="4.5" fill="#E3C3AD" stroke="#4C2E1A" stroke-width="0.6"/>
<ellipse cx="90" cy="30" rx="9" ry="4.5" fill="#CA8C60" stroke="#4C2E1A" stroke-width="0.6"/>
<rect x="81" y="26" width="18" height="4" fill="#CA8C60"/>
<path d="M 81 26 L 81 30 M 99 26 L 99 30" fill="none" stroke="#4C2E1A" stroke-width="0.6"/>
<ellipse cx="90" cy="26" rx="9" ry="4.5" fill="#E3C3AD" stroke="#4C2E1A" stroke-width="0.6"/>
<ellipse cx="150" cy="30" rx="9" ry="4.5" fill="#CA8C60" stroke="#4C2E1A" stroke-width="0.6"/>
<rect x="141" y="26" width="18" height="4" fill="#CA8C60"/>
<path d="M 141 26 L 141 30 M 159 26 L 159 30" fill="none" stroke="#4C2E1A" stroke-width="0.6"/>
<ellipse cx="150" cy="26" rx="9" ry="4.5" fill="#E3C3AD" stroke="#4C2E1A" stroke-width="0.6"/>
<ellipse cx="210" cy="30" rx="9" ry="4.5" fill="#CA8C60" stroke="#4C2E1A" stroke-width="0.6"/>
<rect x="201" y="26" width="18" height="4" fill="#CA8C60"/>
<path d="M 201 26 L 201 30 M 219 26 L 219 30" fill="none" stroke="#4C2E1A" stroke-width="0.6"/>
<ellipse cx="210" cy="26" rx="9" ry="4.5" fill="#E3C3AD" stroke="#4C2E1A" stroke-width="0.6"/>
<ellipse cx="270" cy="30" rx="9" ry="4.5" fill="#CA8C60" stroke="#4C2E1A" stroke-width="0.6"/>
<rect x="261" y="26" width="18" height="4" fill="#CA8C60"/>
<path d="M 261 26 L 261 30 M 279 26 L 279 30" fill="none" stroke="#4C2E1A" stroke-width="0.6"/>
<ellipse cx="270" cy="26" rx="9" ry="4.5" fill="#E3C3AD" stroke="#4C2E1A" stroke-width="0.6"/>
<ellipse cx="330" cy="30" rx="9" ry="4.5" fill="#CA8C60" stroke="#4C2E1A" stroke-width="0.6"/>
<rect x="321" y="26" width="18" height="4" fill="#CA8C60"/>
<path d="M 321 26 L 321 30 M 339 26 L 339 30" fill="none" stroke="#4C2E1A" stroke-width="0.6"/>
<ellipse cx="330" cy="26" rx="9" ry="4.5" fill="#E3C3AD" stroke="#4C2E1A" stroke-width="0.6"/>
<ellipse cx="390" cy="30" rx="9" ry="4.5" fill="#CA8C60" stroke="#4C2E1A" stroke-width="0.6"/>
<rect x="381" y="26" width="18" height="4" fill="#CA8C60"/>
<path d="M 381 26 L 381 30 M 399 26 L 399 30" fill="none" stroke="#4C2E1A" stroke-width="0.6"/>
<ellipse cx="390" cy="26" rx="9" ry="4.5" fill="#E3C3AD" stroke="#4C2E1A" stroke-width="0.6"/>
<ellipse cx="450" cy="30" rx="9" ry="4.5" fill="#CA8C60" stroke="#4C2E1A" stroke-width="0.6"/>
<rect x="441" y="26" width="18" height="4" fill="#CA8C60"/>
<path d="M 441 26 L 441 30 M 459 26 L 459 30" fill="none" stroke="#4C2E1A" stroke-width="0.6"/>
<ellipse cx="450" cy="26" rx="9" ry="4.5" fill="#E3C3AD" stroke="#4C2E1A" stroke-width="0.6"/>
<ellipse cx="510" cy="30" rx="9" ry="4.5" fill="#CA8C60" stroke="#4C2E1A" stroke-width="0.6"/>
<rect x="501" y="26" width="18" height="4" fill="#CA8C60"/>
<path d="M 501 26 L 501 30 M 519 26 L 519 30" fill="none" stroke="#4C2E1A" stroke-width="0.6"/>
<ellipse cx="510" cy="26" rx="9" ry="4.5" fill="#E3C3AD" stroke="#4C2E1A" stroke-width="0.6"/>
<ellipse cx="570" cy="30" rx="9" ry="4.5" fill="#CA8C60" stroke="#4C2E1A" stroke-width="0.6"/>
<rect x="561" y="26" width="18" height="4" fill="#CA8C60"/>
<path d="M 561 26 L 561 30 M 579 26 L 579 30" fill="none" stroke="#4C2E1A" stroke-width="0.6"/>
<ellipse cx="570" cy="26" rx="9" ry="4.5" fill="#E3C3AD" stroke="#4C2E1A" stroke-width="0.6"/>
<ellipse cx="630" cy="30" rx="9" ry="4.5" fill="#CA8C60" stroke="#4C2E1A" stroke-width="0.6"/>
<rect x="621" y="26" width="18" height="4" fill="#CA8C60"/>
<path d="M 621 26 L 621 30 M 639 26 L 639 30" fill="none" stroke="#4C2E1A" stroke-width="0.6"/>
<ellipse cx="630" cy="26" rx="9" ry="4.5" fill="#E3C3AD" stroke="#4C2E1A" stroke-width="0.6"/>
<ellipse cx="690" cy="30" rx="9" ry="4.5" fill="#CA8C60" stroke="#4C2E1A" stroke-width="0.6"/>
<rect x="681" y="26" width="18" height="4" fill="#CA8C60"/>
<path d="M 681 26 L 681 30 M 699 26 L 699 30" fill="none" stroke="#4C2E1A" stroke-width="0.6"/>
<ellipse cx="690" cy="26" rx="9" ry="4.5" fill="#E3C3AD" stroke="#4C2E1A" stroke-width="0.6"/>
<ellipse cx="750" cy="30" rx="9" ry="4.5" fill="#CA8C60" stroke="#4C2E1A" stroke-width="0.6"/>
<rect x="741" y="26" width="18" height="4" fill="#CA8C60"/>
<path d="M 741 26 L 741 30 M 759 26 L 759 30" fill="none" stroke="#4C2E1A" stroke-width="0.6"/>
<ellipse cx="750" cy="26" rx="9" ry="4.5" fill="#E3C3AD" stroke="#4C2E1A" stroke-width="0.6"/>
<ellipse cx="810" cy="30" rx="9" ry="4.5" fill="#CA8C60" stroke="#4C2E1A" stroke-width="0.6"/>
<rect x="801" y="26" width="18" height="4" fill="#CA8C60"/>
<path d="M 801 26 L 801 30 M 819 26 L 819 30" fill="none" stroke="#4C2E1A" stroke-width="0.6"/>
<ellipse cx="810" cy="26" rx="9" ry="4.5" fill="#E3C3AD" stroke="#4C2E1A" stroke-width="0.6"/>
<ellipse cx="870" cy="30" rx="9" ry="4.5" fill="#CA8C60" stroke="#4C2E1A" stroke-width="0.6"/>
<rect x="861" y="26" width="18" height="4" fill="#CA8C60"/>
<path d="M 861 26 L 861 30 M 879 26 L 879 30" fill="none" stroke="#4C2E1A" stroke-width="0.6"/>
<ellipse cx="870" cy="26" rx="9" ry="4.5" fill="#E3C3AD" stroke="#4C2E1A" stroke-width="0.6"/>
<ellipse cx="930" cy="30" rx="9" ry="4.5" fill="#CA8C60" stroke="#4C2E1A" stroke-width="0.6"/>
<rect x="921" y="26" width="18" height="4" fill="#CA8C60"/>
<path d="M 921 26 L 921 30 M 939 26 L 939 30" fill="none" stroke="#4C2E1A" stroke-width="0.6"/>
<ellipse cx="930" cy="26" rx="9" ry="4.5" fill="#E3C3AD" stroke="#4C2E1A" stroke-width="0.6"/>
</svg>
