<svg xmlns="http://www.w3.org/2000/svg" viewBox="-64 -12.5 128 148.5" role="img" aria-label="tall-2x2 smoke (isometric)">
<title>tall-2x2 smoke (isometric)</title>
<polygon points="0,60 -60,30 -60,102 0,132" fill="#7D7D78" stroke="#2C2C2A" stroke-width="0.6" stroke-linejoin="round"/>
<polygon points="0,60 60,30 60,102 0,132" fill="#686864" stroke="#2C2C2A" stroke-width="0.6" stroke-linejoin="round"/>
<polygon points="0,0 60,30 0,60 -60,30" fill="#91918D" stroke="#2C2C2A" stroke-width="0.6" stroke-linejoin="round"/>
<ellipse cx="0" cy="15" rx="9" ry="4.5" fill="#7D7D78" stroke="#2C2C2A" stroke-width="0.6"/>
<rect x="-9" y="11" width="18" height="4" fill="#7D7D78"/>
<path d="M -9 11 L -9 15 M 9 11 L 9 15" fill="none" stroke="#2C2C2A" stroke-width="0.6"/>
<ellipse cx="0" cy="11" rx="9" ry="4.5" fill="#AFAFAC" stroke="#2C2C2A" stroke-width="0.6"/>
<ellipse cx="-30" cy="30" rx="9" ry="4.5" fill="#7D7D78" stroke="#2C2C2A" stroke-width="0.6"/>
<rect x="-39" y="26" width="18" height="4" fill="#7D7D78"/>
<path d="M -39 26 L -39 30 M -21 26 L -21 30" fill="none" stroke="#2C2C2A" stroke-width="0.6"/>
<ellipse cx="-30" cy="26" rx="9" ry="4.5" fill="#AFAFAC" stroke="#2C2C2A" stroke-width="0.6"/>
<ellipse cx="30" cy="30" rx="9" ry="4.5" fill="#7D7D78" stroke="#2C2C2A" stroke-width="0.6"/>
<rect x="21" y="26" width="18" height="4" fill="#7D7D78"/>
<path d="M 21 26 L 21 30 M 39 26 L 39 30" fill="none" stroke="#2C2C2A" stroke-width="0.6"/>
<ellipse cx="30" cy="26" rx="9" ry="4.5" fill="#AFAFAC" stroke="#2C2C2A" stroke-width="0.6"/>
<ellipse cx="0" cy="45" rx="9" ry="4.5" fill="#7D7D78" stroke="#2C2C2A" stroke-width="0.6"/>
<rect x="-9" y="41" width="18" height="4" fill="#7D7D78"/>
<path d="M -9 41 L -9 45 M 9 41 L 9 45" fill="none" stroke="#2C2C2A" stroke-width="0.6"/>
<ellipse cx="0" cy="41" rx="9" ry="4.5" fill="#AFAFAC" stroke="#2C2C2A" stroke-width="0.6"/>
</svg>
