<svg xmlns="http://www.w3.org/2000/svg" viewBox="-4 -4 68 308" role="img" aria-label="brick-2x10 l-yellow (top-down)">
<title>brick-2x10 l-yellow (top-down)</title>
<rect x="0" y="0" width="60" height="300" rx="2" fill="#F2CD37" stroke="#544405" stroke-width="0.6"/>
<circle cx="15" cy="15" r="9" fill="#F6DB70" stroke="#544405" stroke-width="0.6"/>
<circle cx="15" cy="45" r="9" fill="#F6DB70" stroke="#544405" stroke-width="0.6"/>
<circle cx="15" cy="75" r="9" fill="#F6DB70" stroke="#544405" stroke-width="0.6"/>
<circle cx="15" cy="105" r="9" fill="#F6DB70" stroke="#544405" stroke-width="0.6"/>
<circle cx="15" cy="135" r="9" fill="#F6DB70" stroke="#544405" stroke-width="0.6"/>
<circle cx="15" cy="165" r="9" fill="#F6DB70" stroke="#544405" stroke-width="0.6"/>
<circle cx="15" cy="195" r="9" fill="#F6DB70" stroke="#544405" stroke-width="0.6"/>
<circle cx="15" cy="225" r="9" fill="#F6DB70" stroke="#544405" stroke-width="0.6"/>
<circle cx="15" cy="255" r="9" fill="#F6DB70" stroke="#544405" stroke-width="0.6"/>
<circle cx="15" cy="285" r="9" fill="#F6DB70" stroke="#544405" stroke-width="0.6"/>
<circle cx="45" cy="15" r="9" fill="#F6DB70" stroke="#544405" stroke-width="0.6"/>
<circle cx="45" cy="45" r="9" fill="#F6DB70" stroke="#544405" stroke-width="0.6"/>
<circle cx="45" cy="75" r="9" fill="#F6DB70" stroke="#544405" stroke-width="0.6"/>
<circle cx="45" cy="105" r="9" fill="#F6DB70" stroke="#544405" stroke-width="0.6"/>
<circle cx="45" cy="135" r="9" fill="#F6DB70" stroke="#544405" stroke-width="0.6"/>
<circle cx="45" cy="165" r="9" fill="#F6DB70" stroke="#544405" stroke-width="0.6"/>
<circle cx="45" cy="195" r="9" fill="#F6DB70" stroke="#544405" stroke-width="0.6"/>
<circle cx="45" cy="225" r="9" fill="#F6DB70" stroke="#544405" stroke-width="0.6"/>
<circle cx="45" cy="255" r="9" fill="#F6DB70" stroke="#544405" stroke-width="0.6"/>
<circle cx="45" cy="285" r="9" fill="#F6DB70" stroke="#544405" stroke-width="0.6"/>
</svg>
