<svg xmlns="http://www.w3.org/2000/svg" viewBox="-4 -4 128 188" role="img" aria-label="brick-4x6 l-grey (top-down)">
<title>brick-4x6 l-grey (top-down)</title>
<rect x="0" y="0" width="120" height="180" rx="2" fill="#A0A5A9" stroke="#2F3234" stroke-width="0.6"/>
<circle cx="15" cy="15" r="9" fill="#C0C3C6" stroke="#2F3234" stroke-width="0.6"/>
<circle cx="15" cy="45" r="9" fill="#C0C3C6" stroke="#2F3234" stroke-width="0.6"/>
<circle cx="15" cy="75" r="9" fill="#C0C3C6" stroke="#2F3234" stroke-width="0.6"/>
<circle cx="15" cy="105" r="9" fill="#C0C3C6" stroke="#2F3234" stroke-width="0.6"/>
<circle cx="15" cy="135" r="9" fill="#C0C3C6" stroke="#2F3234" stroke-width="0.6"/>
<circle cx="15" cy="165" r="9" fill="#C0C3C6" stroke="#2F3234" stroke-width="0.6"/>
<circle cx="45" cy="15" r="9" fill="#C0C3C6" stroke="#2F3234" stroke-width="0.6"/>
<circle cx="45" cy="45" r="9" fill="#C0C3C6" stroke="#2F3234" stroke-width="0.6"/>
<circle cx="45" cy="75" r="9" fill="#C0C3C6" stroke="#2F3234" stroke-width="0.6"/>
<circle cx="45" cy="105" r="9" fill="#C0C3C6" stroke="#2F3234" stroke-width="0.6"/>
<circle cx="45" cy="135" r="9" fill="#C0C3C6" stroke="#2F3234" stroke-width="0.6"/>
<circle cx="45" cy="165" r="9" fill="#C0C3C6" stroke="#2F3234" stroke-width="0.6"/>
<circle cx="75" cy="15" r="9" fill="#C0C3C6" stroke="#2F3234" stroke-width="0.6"/>
<circle cx="75" cy="45" r="9" fill="#C0C3C6" stroke="#2F3234" stroke-width="0.6"/>
<circle cx="75" cy="75" r="9" fill="#C0C3C6" stroke="#2F3234" stroke-width="0.6"/>
<circle cx="75" cy="105" r="9" fill="#C0C3C6" stroke="#2F3234" stroke-width="0.6"/>
<circle cx="75" cy="135" r="9" fill="#C0C3C6" stroke="#2F3234" stroke-width="0.6"/>
<circle cx="75" cy="165" r="9" fill="#C0C3C6" stroke="#2F3234" stroke-width="0.6"/>
<circle cx="105" cy="15" r="9" fill="#C0C3C6" stroke="#2F3234" stroke-width="0.6"/>
<circle cx="105" cy="45" r="9" fill="#C0C3C6" stroke="#2F3234" stroke-width="0.6"/>
<circle cx="105" cy="75" r="9" fill="#C0C3C6" stroke="#2F3234" stroke-width="0.6"/>
<circle cx="105" cy="105" r="9" fill="#C0C3C6" stroke="#2F3234" stroke-width="0.6"/>
<circle cx="105" cy="135" r="9" fill="#C0C3C6" stroke="#2F3234" stroke-width="0.6"/>
<circle cx="105" cy="165" r="9" fill="#C0C3C6" stroke="#2F3234" stroke-width="0.6"/>
</svg>
