<svg xmlns="http://www.w3.org/2000/svg" viewBox="-4 -4 248 488" role="img" aria-label="plate-8x16 l-red (top-down)">
<title>plate-8x16 l-red (top-down)</title>
<rect x="0" y="0" width="240" height="480" rx="2" fill="#C91A09" stroke="#3C0803" stroke-width="0.6"/>
<circle cx="15" cy="15" r="9" fill="#F52E1A" stroke="#3C0803" stroke-width="0.6"/>
<circle cx="15" cy="45" r="9" fill="#F52E1A" stroke="#3C0803" stroke-width="0.6"/>
<circle cx="15" cy="75" r="9" fill="#F52E1A" stroke="#3C0803" stroke-width="0.6"/>
<circle cx="15" cy="105" r="9" fill="#F52E1A" stroke="#3C0803" stroke-width="0.6"/>
<circle cx="15" cy="135" r="9" fill="#F52E1A" stroke="#3C0803" stroke-width="0.6"/>
<circle cx="15" cy="165" r="9" fill="#F52E1A" stroke="#3C0803" stroke-width="0.6"/>
<circle cx="15" cy="195" r="9" fill="#F52E1A" stroke="#3C0803" stroke-width="0.6"/>
<circle cx="15" cy="225" r="9" fill="#F52E1A" stroke="#3C0803" stroke-width="0.6"/>
<circle cx="15" cy="255" r="9" fill="#F52E1A" stroke="#3C0803" stroke-width="0.6"/>
<circle cx="15" cy="285" r="9" fill="#F52E1A" stroke="#3C0803" stroke-width="0.6"/>
<circle cx="15" cy="315" r="9" fill="#F52E1A" stroke="#3C0803" stroke-width="0.6"/>
<circle cx="15" cy="345" r="9" fill="#F52E1A" stroke="#3C0803" stroke-width="0.6"/>
<circle cx="15" cy="375" r="9" fill="#F52E1A" stroke="#3C0803" stroke-width="0.6"/>
<circle cx="15" cy="405" r="9" fill="#F52E1A" stroke="#3C0803" stroke-width="0.6"/>
<circle cx="15" cy="435" r="9" fill="#F52E1A" stroke="#3C0803" stroke-width="0.6"/>
<circle cx="15" cy="465" r="9" fill="#F52E1A" stroke="#3C0803" stroke-width="0.6"/>
<circle cx="45" cy="15" r="9" fill="#F52E1A" stroke="#3C0803" stroke-width="0.6"/>
<circle cx="45" cy="45" r="9" fill="#F52E1A" stroke="#3C0803" stroke-width="0.6"/>
<circle cx="45" cy="75" r="9" fill="#F52E1A" stroke="#3C0803" stroke-width="0.6"/>
<circle cx="45" cy="105" r="9" fill="#F52E1A" stroke="#3C0803" stroke-width="0.6"/>
<circle cx="45" cy="135" r="9" fill="#F52E1A" stroke="#3C0803" stroke-width="0.6"/>
<circle cx="45" cy="165" r="9" fill="#F52E1A" stroke="#3C0803" stroke-width="0.6"/>
<circle cx="45" cy="195" r="9" fill="#F52E1A" stroke="#3C0803" stroke-width="0.6"/>
<circle cx="45" cy="225" r="9" fill="#F52E1A" stroke="#3C0803" stroke-width="0.6"/>
<circle cx="45" cy="255" r="9" fill="#F52E1A" stroke="#3C0803" stroke-width="0.6"/>
<circle cx="45" cy="285" r="9" fill="#F52E1A" stroke="#3C0803" stroke-width="0.6"/>
<circle cx="45" cy="315" r="9" fill="#F52E1A" stroke="#3C0803" stroke-width="0.6"/>
<circle cx="45" cy="345" r="9" fill="#F52E1A" stroke="#3C0803" stroke-width="0.6"/>
<circle cx="45" cy="375" r="9" fill="#F52E1A" stroke="#3C0803" stroke-width="0.6"/>
<circle cx="45" cy="405" r="9" fill="#F52E1A" stroke="#3C0803" stroke-width="0.6"/>
<circle cx="45" cy="435" r="9" fill="#F52E1A" stroke="#3C0803" stroke-width="0.6"/>
<circle cx="45" cy="465" r="9" fill="#F52E1A" stroke="#3C0803" stroke-width="0.6"/>
<circle cx="75" cy="15" r="9" fill="#F52E1A" stroke="#3C0803" stroke-width="0.6"/>
<circle cx="75" cy="45" r="9" fill="#F52E1A" stroke="#3C0803" stroke-width="0.6"/>
<circle cx="75" cy="75" r="9" fill="#F52E1A" stroke="#3C0803" stroke-width="0.6"/>
<circle cx="75" cy="105" r="9" fill="#F52E1A" stroke="#3C0803" stroke-width="0.6"/>
<circle cx="75" cy="135" r="9" fill="#F52E1A" stroke="#3C0803" stroke-width="0.6"/>
<circle cx="75" cy="165" r="9" fill="#F52E1A" stroke="#3C0803" stroke-width="0.6"/>
<circle cx="75" cy="195" r="9" fill="#F52E1A" stroke="#3C0803" stroke-width="0.6"/>
<circle cx="75" cy="225" r="9" fill="#F52E1A" stroke="#3C0803" stroke-width="0.6"/>
<circle cx="75" cy="255" r="9" fill="#F52E1A" stroke="#3C0803" stroke-width="0.6"/>
<circle cx="75" cy="285" r="9" fill="#F52E1A" stroke="#3C0803" stroke-width="0.6"/>
<circle cx="75" cy="315" r="9" fill="#F52E1A" stroke="#3C0803" stroke-width="0.6"/>
<circle cx="75" cy="345" r="9" fill="#F52E1A" stroke="#3C0803" stroke-width="0.6"/>
<circle cx="75" cy="375" r="9" fill="#F52E1A" stroke="#3C0803" stroke-width="0.6"/>
<circle cx="75" cy="405" r="9" fill="#F52E1A" stroke="#3C0803" stroke-width="0.6"/>
<circle cx="75" cy="435" r="9" fill="#F52E1A" stroke="#3C0803" stroke-width="0.6"/>
<circle cx="75" cy="465" r="9" fill="#F52E1A" stroke="#3C0803" stroke-width="0.6"/>
<circle cx="105" cy="15" r="9" fill="#F52E1A" stroke="#3C0803" stroke-width="0.6"/>
<circle cx="105" cy="45" r="9" fill="#F52E1A" stroke="#3C0803" stroke-width="0.6"/>
<circle cx="105" cy="75" r="9" fill="#F52E1A" stroke="#3C0803" stroke-width="0.6"/>
<circle cx="105" cy="105" r="9" fill="#F52E1A" stroke="#3C0803" stroke-width="0.6"/>
<circle cx="105" cy="135" r="9" fill="#F52E1A" stroke="#3C0803" stroke-width="0.6"/>
<circle cx="105" cy="165" r="9" fill="#F52E1A" stroke="#3C0803" stroke-width="0.6"/>
<circle cx="105" cy="195" r="9" fill="#F52E1A" stroke="#3C0803" stroke-width="0.6"/>
<circle cx="105" cy="225" r="9" fill="#F52E1A" stroke="#3C0803" stroke-width="0.6"/>
<circle cx="105" cy="255" r="9" fill="#F52E1A" stroke="#3C0803" stroke-width="0.6"/>
<circle cx="105" cy="285" r="9" fill="#F52E1A" stroke="#3C0803" stroke-width="0.6"/>
<circle cx="105" cy="315" r="9" fill="#F52E1A" stroke="#3C0803" stroke-width="0.6"/>
<circle cx="105" cy="345" r="9" fill="#F52E1A" stroke="#3C0803" stroke-width="0.6"/>
<circle cx="105" cy="375" r="9" fill="#F52E1A" stroke="#3C0803" stroke-width="0.6"/>
<circle cx="105" cy="405" r="9" fill="#F52E1A" stroke="#3C0803" stroke-width="0.6"/>
<circle cx="105" cy="435" r="9" fill="#F52E1A" stroke="#3C0803" stroke-width="0.6"/>
<circle cx="105" cy="465" r="9" fill="#F52E1A" stroke="#3C0803" stroke-width="0.6"/>
<circle cx="135" cy="15" r="9" fill="#F52E1A" stroke="#3C0803" stroke-width="0.6"/>
<circle cx="135" cy="45" r="9" fill="#F52E1A" stroke="#3C0803" stroke-width="0.6"/>
<circle cx="135" cy="75" r="9" fill="#F52E1A" stroke="#3C0803" stroke-width="0.6"/>
<circle cx="135" cy="105" r="9" fill="#F52E1A" stroke="#3C0803" stroke-width="0.6"/>
<circle cx="135" cy="135" r="9" fill="#F52E1A" stroke="#3C0803" stroke-width="0.6"/>
<circle cx="135" cy="165" r="9" fill="#F52E1A" stroke="#3C0803" stroke-width="0.6"/>
<circle cx="135" cy="195" r="9" fill="#F52E1A" stroke="#3C0803" stroke-width="0.6"/>
<circle cx="135" cy="225" r="9" fill="#F52E1A" stroke="#3C0803" stroke-width="0.6"/>
<circle cx="135" cy="255" r="9" fill="#F52E1A" stroke="#3C0803" stroke-width="0.6"/>
<circle cx="135" cy="285" r="9" fill="#F52E1A" stroke="#3C0803" stroke-width="0.6"/>
<circle cx="135" cy="315" r="9" fill="#F52E1A" stroke="#3C0803" stroke-width="0.6"/>
<circle cx="135" cy="345" r="9" fill="#F52E1A" stroke="#3C0803" stroke-width="0.6"/>
<circle cx="135" cy="375" r="9" fill="#F52E1A" stroke="#3C0803" stroke-width="0.6"/>
<circle cx="135" cy="405" r="9" fill="#F52E1A" stroke="#3C0803" stroke-width="0.6"/>
<circle cx="135" cy="435" r="9" fill="#F52E1A" stroke="#3C0803" stroke-width="0.6"/>
<circle cx="135" cy="465" r="9" fill="#F52E1A" stroke="#3C0803" stroke-width="0.6"/>
<circle cx="165" cy="15" r="9" fill="#F52E1A" stroke="#3C0803" stroke-width="0.6"/>
<circle cx="165" cy="45" r="9" fill="#F52E1A" stroke="#3C0803" stroke-width="0.6"/>
<circle cx="165" cy="75" r="9" fill="#F52E1A" stroke="#3C0803" stroke-width="0.6"/>
<circle cx="165" cy="105" r="9" fill="#F52E1A" stroke="#3C0803" stroke-width="0.6"/>
<circle cx="165" cy="135" r="9" fill="#F52E1A" stroke="#3C0803" stroke-width="0.6"/>
<circle cx="165" cy="165" r="9" fill="#F52E1A" stroke="#3C0803" stroke-width="0.6"/>
<circle cx="165" cy="195" r="9" fill="#F52E1A" stroke="#3C0803" stroke-width="0.6"/>
<circle cx="165" cy="225" r="9" fill="#F52E1A" stroke="#3C0803" stroke-width="0.6"/>
<circle cx="165" cy="255" r="9" fill="#F52E1A" stroke="#3C0803" stroke-width="0.6"/>
<circle cx="165" cy="285" r="9" fill="#F52E1A" stroke="#3C0803" stroke-width="0.6"/>
<circle cx="165" cy="315" r="9" fill="#F52E1A" stroke="#3C0803" stroke-width="0.6"/>
<circle cx="165" cy="345" r="9" fill="#F52E1A" stroke="#3C0803" stroke-width="0.6"/>
<circle cx="165" cy="375" r="9" fill="#F52E1A" stroke="#3C0803" stroke-width="0.6"/>
<circle cx="165" cy="405" r="9" fill="#F52E1A" stroke="#3C0803" stroke-width="0.6"/>
<circle cx="165" cy="435" r="9" fill="#F52E1A" stroke="#3C0803" stroke-width="0.6"/>
<circle cx="165" cy="465" r="9" fill="#F52E1A" stroke="#3C0803" stroke-width="0.6"/>
<circle cx="195" cy="15" r="9" fill="#F52E1A" stroke="#3C0803" stroke-width="0.6"/>
<circle cx="195" cy="45" r="9" fill="#F52E1A" stroke="#3C0803" stroke-width="0.6"/>
<circle cx="195" cy="75" r="9" fill="#F52E1A" stroke="#3C0803" stroke-width="0.6"/>
<circle cx="195" cy="105" r="9" fill="#F52E1A" stroke="#3C0803" stroke-width="0.6"/>
<circle cx="195" cy="135" r="9" fill="#F52E1A" stroke="#3C0803" stroke-width="0.6"/>
<circle cx="195" cy="165" r="9" fill="#F52E1A" stroke="#3C0803" stroke-width="0.6"/>
<circle cx="195" cy="195" r="9" fill="#F52E1A" stroke="#3C0803" stroke-width="0.6"/>
<circle cx="195" cy="225" r="9" fill="#F52E1A" stroke="#3C0803" stroke-width="0.6"/>
<circle cx="195" cy="255" r="9" fill="#F52E1A" stroke="#3C0803" stroke-width="0.6"/>
<circle cx="195" cy="285" r="9" fill="#F52E1A" stroke="#3C0803" stroke-width="0.6"/>
<circle cx="195" cy="315" r="9" fill="#F52E1A" stroke="#3C0803" stroke-width="0.6"/>
<circle cx="195" cy="345" r="9" fill="#F52E1A" stroke="#3C0803" stroke-width="0.6"/>
<circle cx="195" cy="375" r="9" fill="#F52E1A" stroke="#3C0803" stroke-width="0.6"/>
<circle cx="195" cy="405" r="9" fill="#F52E1A" stroke="#3C0803" stroke-width="0.6"/>
<circle cx="195" cy="435" r="9" fill="#F52E1A" stroke="#3C0803" stroke-width="0.6"/>
<circle cx="195" cy="465" r="9" fill="#F52E1A" stroke="#3C0803" stroke-width="0.6"/>
<circle cx="225" cy="15" r="9" fill="#F52E1A" stroke="#3C0803" stroke-width="0.6"/>
<circle cx="225" cy="45" r="9" fill="#F52E1A" stroke="#3C0803" stroke-width="0.6"/>
<circle cx="225" cy="75" r="9" fill="#F52E1A" stroke="#3C0803" stroke-width="0.6"/>
<circle cx="225" cy="105" r="9" fill="#F52E1A" stroke="#3C0803" stroke-width="0.6"/>
<circle cx="225" cy="135" r="9" fill="#F52E1A" stroke="#3C0803" stroke-width="0.6"/>
<circle cx="225" cy="165" r="9" fill="#F52E1A" stroke="#3C0803" stroke-width="0.6"/>
<circle cx="225" cy="195" r="9" fill="#F52E1A" stroke="#3C0803" stroke-width="0.6"/>
<circle cx="225" cy="225" r="9" fill="#F52E1A" stroke="#3C0803" stroke-width="0.6"/>
<circle cx="225" cy="255" r="9" fill="#F52E1A" stroke="#3C0803" stroke-width="0.6"/>
<circle cx="225" cy="285" r="9" fill="#F52E1A" stroke="#3C0803" stroke-width="0.6"/>
<circle cx="225" cy="315" r="9" fill="#F52E1A" stroke="#3C0803" stroke-width="0.6"/>
<circle cx="225" cy="345" r="9" fill="#F52E1A" stroke="#3C0803" stroke-width="0.6"/>
<circle cx="225" cy="375" r="9" fill="#F52E1A" stroke="#3C0803" stroke-width="0.6"/>
<circle cx="225" cy="405" r="9" fill="#F52E1A" stroke="#3C0803" stroke-width="0.6"/>
<circle cx="225" cy="435" r="9" fill="#F52E1A" stroke="#3C0803" stroke-width="0.6"/>
<circle cx="225" cy="465" r="9" fill="#F52E1A" stroke="#3C0803" stroke-width="0.6"/>
</svg>
