<svg xmlns="http://www.w3.org/2000/svg" viewBox="-4 -4 188 188" role="img" aria-label="plate-6x6 l-black (top-down)">
<title>plate-6x6 l-black (top-down)</title>
<rect x="0" y="0" width="180" height="180" rx="2" fill="#1B2A34" stroke="#090E11" stroke-width="0.6"/>
<circle cx="15" cy="15" r="9" fill="#304B5C" stroke="#090E11" stroke-width="0.6"/>
<circle cx="15" cy="45" r="9" fill="#304B5C" stroke="#090E11" stroke-width="0.6"/>
<circle cx="15" cy="75" r="9" fill="#304B5C" stroke="#090E11" stroke-width="0.6"/>
<circle cx="15" cy="105" r="9" fill="#304B5C" stroke="#090E11" stroke-width="0.6"/>
<circle cx="15" cy="135" r="9" fill="#304B5C" stroke="#090E11" stroke-width="0.6"/>
<circle cx="15" cy="165" r="9" fill="#304B5C" stroke="#090E11" stroke-width="0.6"/>
<circle cx="45" cy="15" r="9" fill="#304B5C" stroke="#090E11" stroke-width="0.6"/>
<circle cx="45" cy="45" r="9" fill="#304B5C" stroke="#090E11" stroke-width="0.6"/>
<circle cx="45" cy="75" r="9" fill="#304B5C" stroke="#090E11" stroke-width="0.6"/>
<circle cx="45" cy="105" r="9" fill="#304B5C" stroke="#090E11" stroke-width="0.6"/>
<circle cx="45" cy="135" r="9" fill="#304B5C" stroke="#090E11" stroke-width="0.6"/>
<circle cx="45" cy="165" r="9" fill="#304B5C" stroke="#090E11" stroke-width="0.6"/>
<circle cx="75" cy="15" r="9" fill="#304B5C" stroke="#090E11" stroke-width="0.6"/>
<circle cx="75" cy="45" r="9" fill="#304B5C" stroke="#090E11" stroke-width="0.6"/>
<circle cx="75" cy="75" r="9" fill="#304B5C" stroke="#090E11" stroke-width="0.6"/>
<circle cx="75" cy="105" r="9" fill="#304B5C" stroke="#090E11" stroke-width="0.6"/>
<circle cx="75" cy="135" r="9" fill="#304B5C" stroke="#090E11" stroke-width="0.6"/>
<circle cx="75" cy="165" r="9" fill="#304B5C" stroke="#090E11" stroke-width="0.6"/>
<circle cx="105" cy="15" r="9" fill="#304B5C" stroke="#090E11" stroke-width="0.6"/>
<circle cx="105" cy="45" r="9" fill="#304B5C" stroke="#090E11" stroke-width="0.6"/>
<circle cx="105" cy="75" r="9" fill="#304B5C" stroke="#090E11" stroke-width="0.6"/>
<circle cx="105" cy="105" r="9" fill="#304B5C" stroke="#090E11" stroke-width="0.6"/>
<circle cx="105" cy="135" r="9" fill="#304B5C" stroke="#090E11" stroke-width="0.6"/>
<circle cx="105" cy="165" r="9" fill="#304B5C" stroke="#090E11" stroke-width="0.6"/>
<circle cx="135" cy="15" r="9" fill="#304B5C" stroke="#090E11" stroke-width="0.6"/>
<circle cx="135" cy="45" r="9" fill="#304B5C" stroke="#090E11" stroke-width="0.6"/>
<circle cx="135" cy="75" r="9" fill="#304B5C" stroke="#090E11" stroke-width="0.6"/>
<circle cx="135" cy="105" r="9" fill="#304B5C" stroke="#090E11" stroke-width="0.6"/>
<circle cx="135" cy="135" r="9" fill="#304B5C" stroke="#090E11" stroke-width="0.6"/>
<circle cx="135" cy="165" r="9" fill="#304B5C" stroke="#090E11" stroke-width="0.6"/>
<circle cx="165" cy="15" r="9" fill="#304B5C" stroke="#090E11" stroke-width="0.6"/>
<circle cx="165" cy="45" r="9" fill="#304B5C" stroke="#090E11" stroke-width="0.6"/>
<circle cx="165" cy="75" r="9" fill="#304B5C" stroke="#090E11" stroke-width="0.6"/>
<circle cx="165" cy="105" r="9" fill="#304B5C" stroke="#090E11" stroke-width="0.6"/>
<circle cx="165" cy="135" r="9" fill="#304B5C" stroke="#090E11" stroke-width="0.6"/>
<circle cx="165" cy="165" r="9" fill="#304B5C" stroke="#090E11" stroke-width="0.6"/>
</svg>
