<svg xmlns="http://www.w3.org/2000/svg" viewBox="-4 -4 128 308" role="img" aria-label="plate-4x10 l-green (top-down)">
<title>plate-4x10 l-green (top-down)</title>
<rect x="0" y="0" width="120" height="300" rx="2" fill="#237841" stroke="#0B2414" stroke-width="0.6"/>
<circle cx="15" cy="15" r="9" fill="#31A75B" stroke="#0B2414" stroke-width="0.6"/>
<circle cx="15" cy="45" r="9" fill="#31A75B" stroke="#0B2414" stroke-width="0.6"/>
<circle cx="15" cy="75" r="9" fill="#31A75B" stroke="#0B2414" stroke-width="0.6"/>
<circle cx="15" cy="105" r="9" fill="#31A75B" stroke="#0B2414" stroke-width="0.6"/>
<circle cx="15" cy="135" r="9" fill="#31A75B" stroke="#0B2414" stroke-width="0.6"/>
<circle cx="15" cy="165" r="9" fill="#31A75B" stroke="#0B2414" stroke-width="0.6"/>
<circle cx="15" cy="195" r="9" fill="#31A75B" stroke="#0B2414" stroke-width="0.6"/>
<circle cx="15" cy="225" r="9" fill="#31A75B" stroke="#0B2414" stroke-width="0.6"/>
<circle cx="15" cy="255" r="9" fill="#31A75B" stroke="#0B2414" stroke-width="0.6"/>
<circle cx="15" cy="285" r="9" fill="#31A75B" stroke="#0B2414" stroke-width="0.6"/>
<circle cx="45" cy="15" r="9" fill="#31A75B" stroke="#0B2414" stroke-width="0.6"/>
<circle cx="45" cy="45" r="9" fill="#31A75B" stroke="#0B2414" stroke-width="0.6"/>
<circle cx="45" cy="75" r="9" fill="#31A75B" stroke="#0B2414" stroke-width="0.6"/>
<circle cx="45" cy="105" r="9" fill="#31A75B" stroke="#0B2414" stroke-width="0.6"/>
<circle cx="45" cy="135" r="9" fill="#31A75B" stroke="#0B2414" stroke-width="0.6"/>
<circle cx="45" cy="165" r="9" fill="#31A75B" stroke="#0B2414" stroke-width="0.6"/>
<circle cx="45" cy="195" r="9" fill="#31A75B" stroke="#0B2414" stroke-width="0.6"/>
<circle cx="45" cy="225" r="9" fill="#31A75B" stroke="#0B2414" stroke-width="0.6"/>
<circle cx="45" cy="255" r="9" fill="#31A75B" stroke="#0B2414" stroke-width="0.6"/>
<circle cx="45" cy="285" r="9" fill="#31A75B" stroke="#0B2414" stroke-width="0.6"/>
<circle cx="75" cy="15" r="9" fill="#31A75B" stroke="#0B2414" stroke-width="0.6"/>
<circle cx="75" cy="45" r="9" fill="#31A75B" stroke="#0B2414" stroke-width="0.6"/>
<circle cx="75" cy="75" r="9" fill="#31A75B" stroke="#0B2414" stroke-width="0.6"/>
<circle cx="75" cy="105" r="9" fill="#31A75B" stroke="#0B2414" stroke-width="0.6"/>
<circle cx="75" cy="135" r="9" fill="#31A75B" stroke="#0B2414" stroke-width="0.6"/>
<circle cx="75" cy="165" r="9" fill="#31A75B" stroke="#0B2414" stroke-width="0.6"/>
<circle cx="75" cy="195" r="9" fill="#31A75B" stroke="#0B2414" stroke-width="0.6"/>
<circle cx="75" cy="225" r="9" fill="#31A75B" stroke="#0B2414" stroke-width="0.6"/>
<circle cx="75" cy="255" r="9" fill="#31A75B" stroke="#0B2414" stroke-width="0.6"/>
<circle cx="75" cy="285" r="9" fill="#31A75B" stroke="#0B2414" stroke-width="0.6"/>
<circle cx="105" cy="15" r="9" fill="#31A75B" stroke="#0B2414" stroke-width="0.6"/>
<circle cx="105" cy="45" r="9" fill="#31A75B" stroke="#0B2414" stroke-width="0.6"/>
<circle cx="105" cy="75" r="9" fill="#31A75B" stroke="#0B2414" stroke-width="0.6"/>
<circle cx="105" cy="105" r="9" fill="#31A75B" stroke="#0B2414" stroke-width="0.6"/>
<circle cx="105" cy="135" r="9" fill="#31A75B" stroke="#0B2414" stroke-width="0.6"/>
<circle cx="105" cy="165" r="9" fill="#31A75B" stroke="#0B2414" stroke-width="0.6"/>
<circle cx="105" cy="195" r="9" fill="#31A75B" stroke="#0B2414" stroke-width="0.6"/>
<circle cx="105" cy="225" r="9" fill="#31A75B" stroke="#0B2414" stroke-width="0.6"/>
<circle cx="105" cy="255" r="9" fill="#31A75B" stroke="#0B2414" stroke-width="0.6"/>
<circle cx="105" cy="285" r="9" fill="#31A75B" stroke="#0B2414" stroke-width="0.6"/>
</svg>
