<svg xmlns="http://www.w3.org/2000/svg" viewBox="-4 -4 488 32" role="img" aria-label="plate-16x16 book-cloth (side)">
<title>plate-16x16 book-cloth (side)</title>
<rect x="0" y="12" width="480" height="12" rx="1" fill="#CC785C" stroke="#442115" stroke-width="0.6"/>
<rect x="0" y="22" width="480" height="2" fill="#A34F33" stroke="none" stroke-width="0.6"/>
<rect x="6" y="0" width="18" height="13.5" rx="1.5" fill="#DB9F8B" stroke="#442115" stroke-width="0.6"/>
<rect x="36" y="0" width="18" height="13.5" rx="1.5" fill="#DB9F8B" stroke="#442115" stroke-width="0.6"/>
<rect x="66" y="0" width="18" height="13.5" rx="1.5" fill="#DB9F8B" stroke="#442115" stroke-width="0.6"/>
<rect x="96" y="0" width="18" height="13.5" rx="1.5" fill="#DB9F8B" stroke="#442115" stroke-width="0.6"/>
<rect x="126" y="0" width="18" height="13.5" rx="1.5" fill="#DB9F8B" stroke="#442115" stroke-width="0.6"/>
<rect x="156" y="0" width="18" height="13.5" rx="1.5" fill="#DB9F8B" stroke="#442115" stroke-width="0.6"/>
<rect x="186" y="0" width="18" height="13.5" rx="1.5" fill="#DB9F8B" stroke="#442115" stroke-width="0.6"/>
<rect x="216" y="0" width="18" height="13.5" rx="1.5" fill="#DB9F8B" stroke="#442115" stroke-width="0.6"/>
<rect x="246" y="0" width="18" height="13.5" rx="1.5" fill="#DB9F8B" stroke="#442115" stroke-width="0.6"/>
<rect x="276" y="0" width="18" height="13.5" rx="1.5" fill="#DB9F8B" stroke="#442115" stroke-width="0.6"/>
<rect x="306" y="0" width="18" height="13.5" rx="1.5" fill="#DB9F8B" stroke="#442115" stroke-width="0.6"/>
<rect x="336" y="0" width="18" height="13.5" rx="1.5" fill="#DB9F8B" stroke="#442115" stroke-width="0.6"/>
<rect x="366" y="0" width="18" height="13.5" rx="1.5" fill="#DB9F8B" stroke="#442115" stroke-width="0.6"/>
<rect x="396" y="0" width="18" height="13.5" rx="1.5" fill="#DB9F8B" stroke="#442115" stroke-width="0.6"/>
<rect x="426" y="0" width="18" height="13.5" rx="1.5" fill="#DB9F8B" stroke="#442115" stroke-width="0.6"/>
<rect x="456" y="0" width="18" height="13.5" rx="1.5" fill="#DB9F8B" stroke="#442115" stroke-width="0.6"/>
</svg>
